<?xml version="1.0" standalone="no"?>
<!DOCTYPE svg PUBLIC "-//W3C//DTD SVG 20010904//EN"
 "http://www.w3.org/TR/2001/REC-SVG-20010904/DTD/svg10.dtd">
<svg version="1.0" xmlns="http://www.w3.org/2000/svg"
 width="670.000000pt" height="670.000000pt" viewBox="0 0 670.000000 670.000000"
 preserveAspectRatio="xMidYMid meet">
<metadata>
Created by potrace 1.14, written by Peter Selinger 2001-2017
</metadata>
<g transform="translate(0.000000,670.000000) scale(0.100000,-0.100000)"
fill="#000000" stroke="none">
<path d="M3340 6383 c-89 -22 -99 -26 -170 -71 -134 -85 -221 -228 -223 -367
-3 -200 134 -355 316 -357 77 -1 125 20 172 75 61 71 58 158 -7 219 -34 32
-63 42 -106 35 -42 -7 -47 -11 -84 -65 -17 -26 -36 -50 -42 -54 -17 -11 -45
11 -67 54 -43 84 -9 222 73 293 60 52 119 76 203 82 200 15 381 -123 423 -322
18 -84 -7 -261 -39 -281 -5 -3 -9 -12 -9 -21 0 -18 -49 -83 -100 -132 -43 -41
-134 -101 -154 -101 -8 0 -17 -4 -20 -9 -3 -5 -23 -12 -43 -16 -21 -5 -45 -10
-53 -12 -24 -6 -142 -5 -175 1 -56 11 -70 14 -115 31 -48 17 -164 78 -186 98
-7 7 -37 32 -67 57 -29 25 -68 63 -85 86 -107 138 -103 136 -200 108 -233 -66
-470 -166 -649 -275 -105 -64 -177 -111 -188 -123 -5 -6 -27 -22 -47 -36 -21
-14 -38 -28 -38 -32 0 -5 -5 -8 -11 -8 -6 0 -16 -6 -23 -12 -8 -7 -38 -33 -67
-58 -170 -142 -413 -417 -509 -575 -13 -22 -27 -42 -30 -45 -5 -5 -23 -34 -73
-120 -28 -49 -137 -268 -137 -275 0 -4 -6 -21 -14 -38 -32 -69 -97 -258 -111
-322 -2 -11 -12 -51 -22 -88 l-18 -68 -85 -4 c-47 -1 -96 -7 -110 -13 -14 -5
-29 -11 -35 -12 -180 -44 -338 -215 -392 -421 -10 -40 -11 -233 -1 -252 5 -10
12 -30 14 -44 11 -57 64 -150 132 -227 57 -65 191 -147 262 -160 14 -2 25 -5
25 -6 0 -5 49 -10 115 -13 l75 -4 12 -42 c6 -23 14 -54 17 -69 2 -15 9 -40 14
-57 5 -16 22 -68 37 -115 70 -222 147 -382 318 -665 7 -11 15 -22 18 -25 3 -3
25 -34 49 -70 24 -36 49 -69 55 -75 6 -5 29 -32 50 -60 79 -100 238 -263 340
-348 33 -27 62 -53 65 -57 9 -12 215 -156 290 -203 66 -41 292 -157 375 -191
17 -7 41 -18 55 -24 28 -13 236 -83 260 -87 8 -2 15 -4 15 -5 0 -1 7 -3 15 -5
8 -1 47 -10 85 -19 88 -21 114 -27 145 -32 14 -2 40 -6 58 -9 41 -7 93 -14
162 -22 80 -9 473 -9 555 0 72 8 85 10 190 28 93 16 96 16 165 34 36 8 73 18
84 20 42 10 132 36 151 45 11 5 49 19 85 31 36 12 77 28 91 35 15 7 29 10 33
7 3 -4 6 -1 6 5 0 7 6 12 14 12 16 0 267 128 344 175 63 39 245 165 252 174 3
4 17 16 32 27 135 104 338 309 447 452 20 26 42 53 49 60 6 7 12 17 12 21 0 4
8 16 18 27 27 30 112 160 112 173 0 6 3 11 8 11 4 0 23 31 42 68 19 37 38 68
43 70 4 2 7 8 7 14 0 5 20 51 44 101 73 153 132 324 193 557 l9 35 69 1 c78 2
141 15 200 40 22 10 46 19 52 20 7 1 19 9 28 17 8 9 24 18 34 22 11 3 22 12
25 20 3 8 11 15 18 16 19 0 109 111 140 171 51 99 63 154 63 279 -1 78 -5 122
-13 132 -7 8 -12 19 -11 23 1 5 0 16 -3 24 -4 8 -9 24 -14 35 -4 11 -6 23 -6
28 1 4 -3 7 -8 7 -6 0 -10 5 -10 11 0 29 -94 141 -163 193 -96 71 -198 107
-320 111 -43 2 -80 5 -82 7 -2 2 -6 15 -8 28 -42 221 -190 587 -334 828 -44
72 -151 229 -173 253 -8 9 -28 33 -45 54 -153 193 -391 411 -603 553 -87 59
-266 163 -332 194 -168 78 -296 129 -304 120 -3 -3 -6 0 -6 6 0 7 -6 12 -12
12 -7 0 -29 5 -49 10 -39 11 -51 31 -84 145 -69 238 -286 471 -495 531 -87 25
-197 28 -280 7z m92 -1611 c6 -6 12 -48 13 -94 2 -46 6 -146 10 -223 13 -305
15 -355 20 -480 3 -71 7 -174 10 -227 2 -53 7 -161 10 -240 7 -163 9 -175 36
-183 10 -4 44 -30 74 -60 53 -51 92 -117 104 -179 7 -32 10 -33 396 -155 55
-18 107 -35 115 -38 8 -3 20 -7 26 -8 6 -2 118 -37 250 -80 131 -42 309 -99
394 -127 85 -27 168 -54 183 -60 31 -12 30 -7 11 -93 -2 -11 -7 -35 -10 -53
-8 -41 -15 -45 -61 -33 -21 6 -49 12 -63 15 -39 8 -91 19 -155 35 -22 5 -51
12 -65 15 -14 3 -34 7 -45 10 -11 3 -63 15 -115 26 -52 12 -103 23 -112 26
-10 2 -26 6 -35 8 -10 2 -58 14 -108 25 -49 12 -106 24 -125 27 -19 3 -38 8
-43 11 -4 2 -20 6 -35 9 -15 2 -63 13 -107 24 -44 10 -91 21 -105 24 -14 2
-56 12 -95 21 -180 43 -166 44 -224 -6 l-50 -43 5 -131 c3 -71 7 -140 9 -152
l4 -23 -200 0 -200 0 6 147 c3 81 8 149 10 153 2 3 -8 15 -23 26 -56 40 -106
100 -133 159 l-29 61 -63 14 c-34 7 -64 14 -67 15 -3 0 -42 9 -88 20 -66 14
-81 21 -78 34 3 9 13 43 22 76 8 33 25 92 35 130 26 90 24 85 33 123 4 17 12
32 17 32 11 0 193 -57 224 -70 43 -18 65 -18 87 1 12 11 37 29 55 40 18 11 33
28 34 37 2 37 16 354 24 547 4 77 8 178 10 225 5 106 17 382 20 475 2 39 4 93
4 122 1 40 5 52 18 55 38 7 154 1 165 -10z m-929 -160 c155 -72 271 -253 304
-472 9 -61 9 -213 -1 -275 -27 -179 -131 -356 -256 -434 -186 -117 -390 -62
-539 145 -16 23 -27 45 -24 48 4 3 2 6 -4 6 -6 0 -13 8 -16 18 -4 9 -13 35
-22 57 -21 54 -30 87 -46 175 -13 74 -9 218 8 293 7 34 16 73 19 87 3 14 23
62 45 107 46 97 141 201 219 241 96 49 214 51 313 4z m1977 13 c101 -40 191
-128 252 -245 34 -65 50 -110 74 -212 11 -45 13 -244 3 -298 -58 -313 -248
-513 -474 -497 -38 2 -83 10 -100 17 -16 8 -32 14 -35 14 -19 5 -74 49 -125
101 -119 122 -179 286 -179 495 -1 181 30 299 112 430 113 179 307 260 472
195z m-373 -2645 c-18 -178 -88 -324 -216 -450 -61 -61 -172 -135 -231 -155
-3 -1 -18 -7 -34 -14 -16 -6 -38 -13 -50 -16 -11 -2 -21 -4 -21 -5 0 -1 -7 -3
-15 -5 -142 -31 -283 -26 -417 15 -289 89 -501 344 -519 625 l-3 61 755 0 756
0 -5 -56z"/>
<path d="M2180 4423 c-117 -44 -164 -248 -86 -372 106 -168 304 -54 292 168
-6 90 -48 166 -113 200 -23 11 -67 14 -93 4z"/>
<path d="M4183 4423 c-35 -7 -90 -69 -108 -123 -41 -123 -10 -246 77 -307 32
-22 45 -25 85 -20 120 13 190 195 131 337 -40 94 -98 130 -185 113z"/>
</g>
</svg>
