<svg version="1" xmlns="http://www.w3.org/2000/svg" width="630.667" height="630.667" viewBox="0 0 473.000000 473.000000"><path d="M234.7 24.1c-9.4 2.2-19.9 10.2-24.4 18.8-7 13.2-1 31 12 35.4 5.4 1.8 11.6 1.5 15.6-.9 3.4-2 7.2-8.7 6.4-11.3-2.2-6.9-3.8-8.6-9.2-9.6-2-.4-3.4.5-6.7 4-2.3 2.5-4.6 4.5-5.2 4.5-3.4 0-5.5-11.3-3.2-17.4 1.1-3 6.3-8.2 10.5-10.4 4.9-2.7 16.9-2.3 22.9.8 14.2 7.3 19.6 24.3 12.2 39.3-12 24.7-43 27.2-65.1 5.2-3.8-3.9-8.2-8.4-9.8-10.2l-2.7-3.1-7.3 2c-33.3 9.4-64.8 29.1-87.3 54.5-10.3 11.7-10.7 12.1-17.4 22.2-11.3 16.7-20.2 35.9-25.1 53.7-2.2 8.1-2.7 10.1-2.8 12-.1.7-3.2 1.3-7.6 1.7-20.5 1.5-36.1 17.5-37.1 38-.9 18.1 11.7 35.5 29.1 40.2 1.7.5 3.3.9 3.8 1 .4.2 3.1.3 6.1.4l5.4.1.7 4.2c1.9 11.6 12.6 38.3 21.3 53.3 10.4 18 28.8 39.1 45.8 52.7 46.6 37.1 106.7 50.5 164.9 36.8 35.1-8.2 67.7-26.8 93-53.1 15-15.6 24.9-29.6 34.2-48.4 3-6 5.8-11.7 6.2-12.5 1-1.9 7.7-23.2 9.1-28.8l1.1-4.2h5c5.7 0 15.3-3 20.7-6.4 9.6-6 16.9-18 17.9-29.2 2.1-23.5-14.7-43.2-37.7-44.3-5.8-.3-6.3-.5-6.6-2.4-1.5-9.6-8.5-29-15.4-42.8-12.3-24.8-29.3-46.3-50-63.2-4.1-3.4-7.6-6.5-7.8-6.9-.2-.5-.7-.8-1.1-.8-.5 0-4.6-2.5-9.2-5.6-9.6-6.5-29.2-16.2-39.4-19.6-3.8-1.3-7.5-2.7-8.2-3.1-.6-.4-2.1-3.7-3.3-7.5-5.7-17.6-18-31.9-32.2-37.4-5.8-2.2-16.2-3-22.1-1.7zm7.1 113.4c0 1.1.3 9 .6 17.5.4 8.5.9 19.8 1.1 25 .5 12.4 1.4 32.9 2 45.5.4 7.6.9 10.1 2.1 10.8 5.5 3.1 12.7 12.9 12.7 17.3 0 1.6 1.1 2 21.2 8.5 8.8 2.8 23.4 7.5 32.5 10.4 9.1 3 22.5 7.3 29.8 9.6 12.2 3.8 13.3 4.4 12.8 6.3-.2 1.2-.8 3.8-1.1 5.9-.4 2-1 3.9-1.4 4.2-.4.2-6.2-.9-13-2.6-6.8-1.6-13.3-3.1-14.4-3.3-1.2-.2-6.5-1.4-11.7-2.6-5.2-1.2-10.2-2.3-11-2.5-12.4-2.7-46.3-10.7-47.3-11.1-.7-.2-3 1-5 2.7l-3.7 3.2.4 10.7.5 10.6h-13.7l-13.7-.1.3-11.3c.2-6.6-.1-11.2-.6-11.2-1.8 0-7.4-6.5-9.4-10.7-1.3-3.1-2.6-4.5-4.6-4.9-7.7-1.7-17.4-4.3-17.8-4.7-.5-.4 6-24.4 6.9-25.3.3-.3 4.8.8 10.1 2.5l9.5 3.1 4.3-2.7c4-2.6 4.3-3.1 4.4-7.3.1-4.6 1.3-34 1.9-46.5.5-10.6 1.7-39.5 1.9-44 0-2.2.4-4.2.8-4.5.4-.3 3.4-.5 6.7-.5 5.4 0 6 .2 5.9 2zm-67.7 8.6c8.9 2.7 18.9 15.4 22.4 28.5 1.6 5.6 2.1 20 1 25.3-5.5 27.3-27.1 41.3-45.2 29.3-11-7.3-17.7-21.7-18.2-38.7-.7-29.5 18.5-50.8 40-44.4zm141.4 1.3c28.3 13.3 29.3 67.9 1.4 83-10.5 5.8-22.2 3.4-31.4-6.5-14.8-15.9-16.5-46.6-3.6-65.3 8.7-12.4 21.7-16.8 33.6-11.2zM288 329.3c0 9.9-5.8 22.3-14.5 31.2-30.6 31-85.1 13.3-90-29.2l-.5-5.2h105v3.2z"/><path d="M151.8 161.7c-8.4 5.2-8.1 23.7.3 28.7 13 7.7 22.8-17.7 10.8-27.9-3.5-2.9-7.3-3.2-11.1-.8zM290.1 162.6c-5.4 4.5-7.1 15.5-3.6 22.4 2 3.8 4.9 6 8.8 6.7 3.2.5 4.1.1 7.1-2.9 7.3-7.3 6.8-20.6-1-26.7-3.6-2.8-7.6-2.6-11.3.5z"/></svg>