<?xml version="1.0" standalone="no"?>
<!DOCTYPE svg PUBLIC "-//W3C//DTD SVG 20010904//EN"
 "http://www.w3.org/TR/2001/REC-SVG-20010904/DTD/svg10.dtd">
<svg version="1.0" xmlns="http://www.w3.org/2000/svg"
 width="670.000000pt" height="670.000000pt" viewBox="0 0 670.000000 670.000000"
 preserveAspectRatio="xMidYMid meet">
<metadata>
Created by potrace 1.14, written by Peter Selinger 2001-2017
</metadata>
<g transform="translate(0.000000,670.000000) scale(0.100000,-0.100000)"
fill="#000000" stroke="none">
<path d="M3290 6381 c-30 -10 -71 -28 -90 -39 -19 -12 -42 -25 -50 -29 -38
-17 -139 -133 -169 -195 -101 -205 -21 -443 175 -520 125 -49 251 -13 311 89
45 78 22 167 -57 221 -66 45 -134 23 -186 -59 -30 -48 -57 -51 -80 -8 -38 75
-22 203 33 265 127 141 326 154 490 33 53 -39 103 -97 103 -117 0 -7 4 -12 9
-12 14 0 43 -107 46 -172 8 -158 -79 -319 -227 -419 -32 -22 -58 -37 -58 -33
0 3 -6 2 -12 -4 -25 -20 -130 -43 -208 -44 -62 -2 -243 42 -260 62 -3 3 -18
12 -35 21 -79 38 -255 188 -255 217 0 6 -3 12 -7 14 -5 2 -20 20 -35 40 -33
43 -70 54 -130 37 -23 -7 -48 -13 -54 -15 -24 -4 -233 -78 -289 -101 -324
-135 -597 -322 -865 -594 -85 -86 -160 -163 -166 -171 -131 -168 -212 -284
-279 -403 -58 -104 -125 -238 -125 -251 0 -8 -5 -14 -12 -14 -6 0 -9 -3 -5 -6
3 -4 0 -18 -7 -33 -36 -69 -110 -294 -141 -421 -17 -72 -15 -70 -64 -71 -85
-3 -107 -5 -119 -13 -7 -4 -12 -5 -12 -2 0 3 -19 -1 -41 -9 -194 -69 -327
-199 -390 -384 -30 -85 -27 -283 5 -374 14 -38 32 -80 42 -95 10 -15 17 -28
16 -30 -2 -1 3 -9 10 -16 7 -7 31 -34 52 -59 68 -81 211 -163 318 -183 18 -3
62 -7 97 -8 72 -3 73 -4 91 -91 15 -73 93 -310 126 -383 13 -29 24 -55 24 -58
0 -6 84 -178 90 -184 3 -3 17 -30 33 -61 15 -32 34 -62 42 -69 8 -7 15 -17 15
-22 0 -5 31 -55 69 -111 202 -296 474 -564 766 -756 124 -82 131 -86 288 -166
180 -91 478 -199 634 -229 80 -15 194 -36 243 -43 60 -9 703 -10 735 -1 11 3
42 9 68 12 47 7 58 9 110 21 12 3 38 8 57 11 19 3 42 8 50 11 8 3 24 8 35 10
11 2 51 13 90 25 38 12 78 23 88 25 10 2 31 10 47 18 17 9 31 15 32 15 14 -5
217 84 338 146 138 72 391 235 440 284 3 3 34 29 70 59 122 102 303 292 402
420 41 53 193 280 218 326 56 101 131 259 168 355 49 129 54 142 58 155 1 6
12 42 24 80 25 84 24 76 38 145 l12 55 58 1 c106 1 181 21 284 76 115 61 226
195 267 323 27 82 29 273 5 356 -53 181 -214 341 -399 395 -51 15 -85 19 -202
24 -12 0 -22 23 -28 68 -4 26 -10 48 -51 187 -10 33 -22 63 -28 67 -6 4 -8 8
-4 8 17 0 -172 429 -194 438 -4 2 -8 9 -8 17 0 7 -7 18 -15 25 -9 7 -14 15
-11 17 5 5 -114 187 -126 191 -4 2 -8 8 -8 13 0 37 -331 398 -461 504 -34 27
-67 54 -73 60 -6 6 -36 28 -66 50 -30 22 -57 42 -60 46 -3 3 -16 12 -29 19
-14 7 -30 17 -35 22 -28 23 -102 68 -113 68 -6 0 -13 4 -15 8 -3 10 -6 11
-160 88 -95 48 -152 74 -203 94 -11 4 -31 12 -45 18 -14 6 -60 23 -104 38 -87
31 -86 29 -122 157 -10 37 -22 67 -26 67 -5 0 -8 8 -8 18 0 32 -100 181 -168
251 -91 93 -204 174 -259 186 -10 2 -34 9 -53 14 -58 18 -257 13 -320 -8z
m136 -1614 c5 -4 8 -67 19 -317 7 -166 14 -332 20 -460 3 -58 8 -168 11 -245
5 -136 9 -240 15 -357 1 -41 6 -58 18 -62 76 -26 174 -154 196 -253 3 -18 12
-33 18 -33 6 0 110 -32 231 -72 122 -39 226 -73 231 -74 6 -1 33 -9 60 -19 51
-17 262 -85 280 -89 6 -2 17 -6 25 -9 15 -6 278 -89 293 -93 4 -1 8 -2 10 -3
1 -1 54 -19 117 -39 130 -43 126 -38 100 -137 -18 -67 -11 -65 -120 -41 -41 9
-86 19 -100 22 -14 3 -59 14 -100 24 -41 10 -88 21 -105 23 -16 3 -57 12 -90
20 -33 9 -71 18 -85 21 -14 2 -74 16 -135 31 -60 15 -119 28 -130 30 -11 1
-81 17 -155 35 -74 17 -146 34 -160 36 -14 3 -43 10 -65 16 -22 5 -49 12 -60
14 -49 8 -117 24 -125 29 -4 3 -21 -7 -37 -23 -15 -15 -40 -35 -54 -44 -25
-16 -26 -21 -24 -90 5 -129 7 -203 6 -220 -1 -17 -17 -18 -185 -18 l-185 0 6
159 c5 154 4 159 -15 165 -35 12 -119 113 -140 169 -14 36 -26 52 -38 53 -11
1 -48 9 -84 19 -36 9 -74 19 -85 21 -11 2 -31 7 -45 10 -14 3 -34 7 -45 9 -11
2 -21 4 -22 4 0 1 5 25 13 54 8 28 26 95 40 147 21 80 42 146 49 158 1 1 65
-18 141 -42 134 -44 139 -45 163 -28 13 9 31 22 39 27 9 6 22 15 29 22 7 6 18
13 24 15 6 2 12 39 14 93 7 181 15 372 20 465 2 52 7 158 10 235 3 77 7 185
10 240 9 171 17 359 16 382 0 16 6 22 27 25 37 4 132 1 138 -5z m-923 -166
c59 -29 157 -110 157 -130 0 -4 7 -14 16 -22 38 -32 105 -196 121 -298 9 -60
10 -224 1 -279 -39 -235 -170 -418 -340 -475 -72 -25 -170 -23 -219 4 -11 5
-19 7 -19 3 0 -3 -15 5 -34 20 -19 14 -38 26 -43 26 -4 0 -32 25 -61 57 -90
95 -148 219 -170 358 -8 53 -9 227 -1 290 9 67 61 206 101 269 123 191 320
263 491 177z m1977 13 c140 -55 255 -205 306 -399 12 -47 19 -111 20 -197 2
-151 -11 -219 -64 -338 -8 -19 -13 -35 -11 -36 2 0 -8 -17 -23 -37 -16 -19
-28 -38 -28 -42 0 -3 -26 -32 -57 -64 -156 -155 -358 -162 -515 -17 -63 58
-127 152 -153 226 -1 3 -4 12 -7 20 -14 38 -31 109 -37 150 -11 89 -5 265 12
320 31 102 44 136 52 142 5 4 6 8 2 8 -5 0 1 14 13 30 12 17 18 30 13 30 -4 0
-3 4 2 8 6 4 22 23 36 42 115 155 286 215 439 154z m-385 -2646 c-11 -103 -65
-268 -87 -268 -5 0 -7 -4 -4 -8 3 -5 -6 -21 -20 -37 -13 -15 -24 -31 -24 -34
0 -8 -90 -100 -131 -134 -84 -69 -244 -139 -353 -154 -88 -12 -218 -7 -302 11
-68 14 -183 64 -216 94 -10 8 -18 12 -18 7 0 -7 -89 64 -131 105 -97 94 -180
268 -195 411 l-6 65 746 0 747 1 -6 -59z"/>
<path d="M2164 4430 c-28 -11 -81 -73 -100 -118 -17 -41 -22 -126 -11 -187 9
-48 46 -106 87 -137 37 -27 52 -30 108 -22 86 11 146 109 146 235 0 63 -5 87
-28 133 -15 31 -31 56 -35 56 -4 0 -18 10 -31 22 -25 24 -96 33 -136 18z"/>
<path d="M4170 4429 c-50 -20 -100 -88 -115 -159 -47 -217 135 -395 270 -264
51 49 70 99 77 199 4 55 -31 143 -73 185 -50 49 -101 62 -159 39z"/>
</g>
</svg>
