<?xml version="1.0" encoding="utf-8"?>
<!-- Generator: Adobe Illustrator 16.0.0, SVG Export Plug-In . SVG Version: 6.00 Build 0)  -->
<!DOCTYPE svg PUBLIC "-//W3C//DTD SVG 1.1//EN" "http://www.w3.org/Graphics/SVG/1.1/DTD/svg11.dtd">
<svg version="1.1" id="Layer_1" xmlns="http://www.w3.org/2000/svg" xmlns:xlink="http://www.w3.org/1999/xlink" x="0px" y="0px"
	 width="2598.534px" height="3572.78px" viewBox="0 0 2598.534 3572.78" enable-background="new 0 0 2598.534 3572.78"
	 xml:space="preserve">
<rect y="2118.88" fill="#37ABE9" width="2598.534" height="726.95"/>
<rect y="733.874" width="2598.534" height="690.069"/>
<g>
	<g>
		<path fill="#37ABE9" d="M134.647,665.444c-9.282,0-17.254-2.601-23.916-7.8c-5.543-4.813-8.314-10.529-8.314-17.147
			c0-8.293-0.064-20.282-0.193-35.969c0.471-4.941,1.16-8.681,2.062-11.218c2.278-5.414,5.888-9.302,10.83-11.667
			c4.9-2.276,10.958-3.416,18.179-3.416c9.969,0,18.114,1.14,24.431,3.416v15.922h-0.193c-4.943-2.491-11.497-3.738-19.661-3.738
			h-2.063c-7.178,0-11.69,1.87-13.537,5.607c-0.474,1.119-0.817,2.472-1.032,4.062l0.129,0.321v15.278l18.759-0.387
			c14.827,0.258,23.915,4.362,27.267,12.313c1.117,2.751,1.676,5.63,1.676,8.639v1.998c0,9.712-5.265,16.673-15.792,20.885
			C148.334,664.477,142.125,665.444,134.647,665.444z M156.628,581.515c10.529,4.255,15.794,11.216,15.794,20.886v1.998
			c0,3.009-0.56,5.909-1.676,8.703c-3.353,7.907-12.442,11.989-27.269,12.247l-18.757-0.387l-18.309-0.064
			c-0.429-5.888-0.644-12.998-0.644-21.337c0-6.575,2.771-12.29,8.316-17.147c6.661-5.198,14.633-7.799,23.916-7.799
			C145.477,578.614,151.687,579.581,156.628,581.515z M121.239,632.503v6.318c0,4.169,2.493,7.049,7.479,8.638
			c2.192,0.56,4.275,0.839,6.253,0.839h1.675c6.403,0,10.701-1.741,12.893-5.223c0.473-1.072,0.709-2.213,0.709-3.415
			c0-4.771-4.189-7.157-12.57-7.157H121.239z M141.029,611.555c8.38,0,12.57-2.385,12.57-7.156c0-1.202-0.236-2.321-0.708-3.352
			c-2.192-3.523-6.491-5.286-12.893-5.286h-1.676c-1.977,0-4.061,0.279-6.253,0.838c-4.984,1.592-7.477,4.491-7.477,8.702v6.254
			H141.029z"/>
		<path fill="#37ABE9" d="M210.326,598.404c13.321,0,21.939,4.361,25.85,13.086c1.332,3.824,1.999,7.455,1.999,10.894v19.854
			c0,9.111-5.351,15.965-16.052,20.563c-4.641,1.548-9.261,2.32-13.859,2.32c-16.074,0-26.15-5.049-30.233-15.148
			c-0.73-2.362-1.095-4.598-1.095-6.704v-1.869c0-8.336,3.997-13.945,11.989-16.824c4.513-1.331,9.712-1.998,15.6-1.998h16.052
			c0.213,0,0.322-0.106,0.322-0.322c0-6.359-4.47-9.541-13.408-9.541h-1.87c-7.348,0-13.431,1.161-18.242,3.481v-14.697
			C193.05,599.435,200.699,598.404,210.326,598.404z M194.211,641.916c0,4.125,3.587,6.618,10.765,7.477h3.287
			c6.231,0,10.334-2.04,12.313-6.124c0.213-0.814,0.322-1.696,0.322-2.643v-5.736h-15.148c-5.716,0-9.282,1.183-10.701,3.545
			C194.489,639.423,194.211,640.585,194.211,641.916z"/>
		<path fill="#37ABE9" d="M262.798,600.66c4.255-2.707,9.131-4.062,14.632-4.062h0.646c7.176,0,13.666,1.611,19.467,4.834
			c10.271,6.792,15.406,16.546,15.406,29.267c0,7.822-1.934,14.633-5.802,20.435c-6.618,9.325-16.374,13.987-29.265,13.987
			c-8.767,0-16.095-2.084-21.982-6.252c-8.811-6.705-13.215-15.771-13.215-27.203v-58.982h20.113V600.66z M293.031,624.575
			c-2.666-7.906-7.824-11.861-15.473-11.861c-1.933,0-4.188,0.474-6.769,1.418c-6.103,3.31-9.153,8.726-9.153,16.244v0.968
			c0,2.364,0.43,4.877,1.29,7.542c3.051,6.662,7.713,9.991,13.988,9.991h1.29c2.621,0,5.135-0.644,7.541-1.934
			c5.372-3.481,8.058-8.896,8.058-16.244C293.804,629.368,293.546,627.325,293.031,624.575z"/>
		<path fill="#37ABE9" d="M330.419,599.242h1.289l14.247,43.318l18.242-43.318h19.339l-39.064,91.342l-17.276-7.735l10.83-26.494
			l-7.67-3.479l-18.244-53.763C323.715,599.2,329.816,599.242,330.419,599.242z"/>
		<path fill="#37ABE9" d="M408.159,600.66c4.254-2.707,9.131-4.062,14.633-4.062h0.644c7.177,0,13.666,1.611,19.468,4.834
			c10.27,6.792,15.407,16.546,15.407,29.267c0,7.822-1.935,14.633-5.802,20.435c-6.618,9.325-16.373,13.987-29.266,13.987
			c-8.767,0-16.095-2.084-21.981-6.252c-8.812-6.705-13.215-15.771-13.215-27.203v-58.982h20.112V600.66z M438.392,624.575
			c-2.666-7.906-7.823-11.861-15.471-11.861c-1.934,0-4.19,0.474-6.769,1.418c-6.103,3.31-9.155,8.726-9.155,16.244v0.968
			c0,2.364,0.43,4.877,1.29,7.542c3.051,6.662,7.713,9.991,13.987,9.991h1.29c2.62,0,5.134-0.644,7.542-1.934
			c5.373-3.481,8.058-8.896,8.058-16.244C439.165,629.368,438.907,627.325,438.392,624.575z"/>
		<path fill="#37ABE9" d="M481.13,599.242h1.29l-0.129,32.037c0,3.438,1.138,7.134,3.416,11.087
			c3.31,4.169,7.456,6.254,12.441,6.254h1.29c6.403,0,11.151-3.375,14.245-10.121c0.86-2.749,1.29-5.327,1.29-7.734v-31.522h19.274
			v31.908c0,11.603-4.471,20.8-13.41,27.589c-6.017,4.255-13.472,6.382-22.368,6.382c-13.109,0-23.035-4.747-29.781-14.245
			c-3.911-5.888-5.866-12.806-5.866-20.758v-31.006C474.467,599.2,480.571,599.242,481.13,599.242z"/>
		<path fill="#37ABE9" d="M588.91,572.684h20.111v58.982c0,11.433-4.404,20.498-13.215,27.203
			c-5.887,4.168-13.214,6.252-21.979,6.252c-12.893,0-22.648-4.662-29.267-13.987c-3.867-5.802-5.801-12.612-5.801-20.435
			c0-12.721,5.134-22.475,15.406-29.267c5.801-3.223,12.291-4.834,19.468-4.834h0.644c5.5,0,10.378,1.354,14.633,4.062V572.684z
			 M557.903,630.699c0,7.349,2.686,12.763,8.059,16.244c2.406,1.29,4.919,1.934,7.542,1.934h1.288
			c6.274,0,10.938-3.329,13.988-9.991c0.859-2.665,1.29-5.178,1.29-7.542v-0.968c0-7.519-3.053-12.935-9.154-16.244
			c-2.579-0.944-4.834-1.418-6.768-1.418c-7.65,0-12.807,3.955-15.471,11.861C558.163,627.325,557.903,629.368,557.903,630.699z"/>
		<path fill="#37ABE9" d="M663.687,572.684H683.8v58.982c0,11.433-4.407,20.498-13.215,27.203
			c-5.89,4.168-13.214,6.252-21.982,6.252c-12.893,0-22.65-4.662-29.267-13.987c-3.866-5.802-5.801-12.612-5.801-20.435
			c0-12.721,5.133-22.475,15.407-29.267c5.8-3.223,12.288-4.834,19.467-4.834h0.644c5.502,0,10.38,1.354,14.634,4.062V572.684z
			 M632.68,630.699c0,7.349,2.684,12.763,8.059,16.244c2.405,1.29,4.92,1.934,7.542,1.934h1.289c6.273,0,10.937-3.329,13.988-9.991
			c0.859-2.665,1.289-5.178,1.289-7.542v-0.968c0-7.519-3.053-12.935-9.153-16.244c-2.578-0.944-4.835-1.418-6.769-1.418
			c-7.65,0-12.807,3.955-15.471,11.861C632.938,627.325,632.68,629.368,632.68,630.699z"/>
		<path fill="#37ABE9" d="M706.619,599.242h1.289l14.248,43.318l18.242-43.318h19.337l-39.064,91.342l-17.275-7.735l10.831-26.494
			l-7.672-3.479l-18.242-53.763C699.914,599.2,706.016,599.242,706.619,599.242z"/>
	</g>
</g>
<g>
	<g>
		<path fill="#37ABE9" d="M1377.487,373.595c-14.717,0-27.357-4.123-37.918-12.367c-8.789-7.631-13.183-16.693-13.183-27.187
			c0-13.148-0.103-32.157-0.307-57.028c0.747-7.835,1.839-13.764,3.269-17.785c3.611-8.584,9.335-14.749,17.17-18.498
			c7.77-3.609,17.375-5.416,28.823-5.416c15.806,0,28.719,1.807,38.735,5.416v25.243h-0.307c-7.838-3.949-18.229-5.926-31.172-5.926
			h-3.271c-11.38,0-18.534,2.964-21.462,8.891c-0.751,1.774-1.296,3.919-1.637,6.438l0.204,0.511v24.223l29.742-0.613
			c23.508,0.409,37.918,6.916,43.231,19.521c1.771,4.36,2.657,8.927,2.657,13.696v3.168c0,15.397-8.348,26.436-25.039,33.113
			C1399.188,372.061,1389.344,373.595,1377.487,373.595z M1412.338,240.524c16.694,6.746,25.042,17.783,25.042,33.115v3.169
			c0,4.769-0.888,9.367-2.658,13.797c-5.315,12.536-19.726,19.009-43.233,19.418l-29.739-0.613l-29.027-0.102
			c-0.682-9.336-1.021-20.609-1.021-33.83c0-10.425,4.395-19.485,13.185-27.187c10.561-8.241,23.2-12.365,37.917-12.365
			C1394.657,235.927,1404.503,237.459,1412.338,240.524z M1356.229,321.367v10.017c0,6.609,3.952,11.176,11.856,13.695
			c3.476,0.887,6.778,1.33,9.914,1.33h2.656c10.152,0,16.966-2.761,20.441-8.28c0.748-1.7,1.125-3.509,1.125-5.415
			c0-7.563-6.644-11.347-19.93-11.347H1356.229z M1387.604,288.152c13.287,0,19.931-3.781,19.931-11.344
			c0-1.907-0.374-3.682-1.124-5.315c-3.475-5.586-10.29-8.38-20.44-8.38h-2.657c-3.135,0-6.439,0.442-9.914,1.327
			c-7.903,2.524-11.855,7.12-11.855,13.798v9.914H1387.604z"/>
		<path fill="#37ABE9" d="M1497.475,267.303c21.12,0,34.783,6.916,40.983,20.747c2.111,6.064,3.169,11.821,3.169,17.272v31.479
			c0,14.447-8.483,25.313-25.45,32.603c-7.358,2.453-14.683,3.679-21.973,3.679c-25.484,0-41.461-8.005-47.934-24.018
			c-1.158-3.745-1.736-7.29-1.736-10.629v-2.965c0-13.216,6.336-22.108,19.008-26.673c7.154-2.111,15.398-3.169,24.733-3.169h25.45
			c0.338,0,0.511-0.168,0.511-0.511c0-10.082-7.088-15.127-21.258-15.127h-2.965c-11.65,0-21.294,1.84-28.923,5.52v-23.303
			C1470.084,268.938,1482.211,267.303,1497.475,267.303z M1471.925,336.29c0,6.542,5.688,10.493,17.068,11.855h5.211
			c9.88,0,16.385-3.234,19.521-9.71c0.338-1.292,0.511-2.689,0.511-4.19v-9.095h-24.019c-9.063,0-14.717,1.875-16.966,5.62
			C1472.365,332.339,1471.925,334.18,1471.925,336.29z"/>
		<path fill="#37ABE9" d="M1580.668,270.88c6.746-4.292,14.477-6.439,23.199-6.439h1.023c11.378,0,21.667,2.556,30.865,7.665
			c16.283,10.768,24.427,26.233,24.427,46.401c0,12.402-3.066,23.199-9.199,32.398c-10.492,14.785-25.961,22.177-46.399,22.177
			c-13.899,0-25.519-3.305-34.852-9.914c-13.97-10.629-20.953-25.003-20.953-43.129v-93.516h31.889V270.88z M1628.603,308.798
			c-4.227-12.536-12.404-18.807-24.531-18.807c-3.064,0-6.642,0.751-10.731,2.249c-9.676,5.247-14.513,13.833-14.513,25.754v1.534
			c0,3.748,0.682,7.733,2.045,11.957c4.837,10.563,12.229,15.843,22.178,15.843h2.045c4.156,0,8.142-1.021,11.957-3.066
			c8.516-5.52,12.775-14.104,12.775-25.755C1629.827,316.396,1629.419,313.157,1628.603,308.798z"/>
		<path fill="#37ABE9" d="M1687.88,268.631h2.043l22.588,68.681l28.923-68.681h30.661l-61.936,144.822l-27.391-12.265l17.17-42.006
			l-12.16-5.518l-28.926-85.238C1677.251,268.564,1686.925,268.631,1687.88,268.631z"/>
		<path fill="#37ABE9" d="M1811.136,270.88c6.746-4.292,14.477-6.439,23.201-6.439h1.021c11.378,0,21.667,2.556,30.865,7.665
			c16.283,10.768,24.427,26.233,24.427,46.401c0,12.402-3.066,23.199-9.198,32.398c-10.493,14.785-25.959,22.177-46.4,22.177
			c-13.899,0-25.518-3.305-34.852-9.914c-13.969-10.629-20.951-25.003-20.951-43.129v-93.516h31.887V270.88z M1859.07,308.798
			c-4.227-12.536-12.404-18.807-24.529-18.807c-3.066,0-6.644,0.751-10.731,2.249c-9.675,5.247-14.514,13.833-14.514,25.754v1.534
			c0,3.748,0.681,7.733,2.045,11.957c4.836,10.563,12.229,15.843,22.177,15.843h2.045c4.154,0,8.14-1.021,11.957-3.066
			c8.519-5.52,12.776-14.104,12.776-25.755C1860.296,316.396,1859.888,313.157,1859.07,308.798z"/>
		<path fill="#37ABE9" d="M1926.83,268.631h2.045l-0.204,50.796c0,5.451,1.804,11.31,5.415,17.578
			c5.247,6.609,11.821,9.914,19.726,9.914h2.045c10.152,0,17.682-5.35,22.586-16.046c1.364-4.358,2.045-8.446,2.045-12.264v-49.979
			h30.56v50.592c0,18.396-7.088,32.977-21.26,43.741c-9.54,6.746-21.36,10.118-35.464,10.118c-20.784,0-36.522-7.526-47.217-22.586
			c-6.201-9.335-9.302-20.302-9.302-32.91v-49.159C1916.267,268.564,1925.944,268.631,1926.83,268.631z"/>
		<path fill="#37ABE9" d="M2097.714,226.523h31.887v93.516c0,18.126-6.984,32.5-20.951,43.129
			c-9.334,6.609-20.952,9.914-34.85,9.914c-20.441,0-35.909-7.392-46.401-22.177c-6.131-9.199-9.197-19.996-9.197-32.398
			c0-20.168,8.14-35.634,24.427-46.401c9.197-5.109,19.485-7.665,30.865-7.665h1.021c8.721,0,16.453,2.147,23.199,6.439V226.523z
			 M2048.554,318.507c0,11.65,4.258,20.235,12.776,25.755c3.815,2.045,7.801,3.066,11.959,3.066h2.043
			c9.948,0,17.341-5.279,22.177-15.843c1.364-4.224,2.045-8.209,2.045-11.957v-1.534c0-11.921-4.838-20.507-14.512-25.754
			c-4.09-1.498-7.665-2.249-10.731-2.249c-12.129,0-20.305,6.271-24.528,18.807C2048.965,313.157,2048.554,316.396,2048.554,318.507
			z"/>
		<path fill="#37ABE9" d="M2216.271,226.523h31.89v93.516c0,18.126-6.988,32.5-20.952,43.129
			c-9.337,6.609-20.952,9.914-34.854,9.914c-20.44,0-35.911-7.392-46.401-22.177c-6.131-9.199-9.197-19.996-9.197-32.398
			c0-20.168,8.137-35.634,24.427-46.401c9.196-5.109,19.483-7.665,30.865-7.665h1.021c8.723,0,16.456,2.147,23.201,6.439V226.523z
			 M2167.109,318.507c0,11.65,4.256,20.235,12.776,25.755c3.815,2.045,7.801,3.066,11.959,3.066h2.043
			c9.948,0,17.34-5.279,22.18-15.843c1.361-4.224,2.043-8.209,2.043-11.957v-1.534c0-11.921-4.84-20.507-14.513-25.754
			c-4.088-1.498-7.665-2.249-10.731-2.249c-12.129,0-20.305,6.271-24.529,18.807
			C2167.521,313.157,2167.109,316.396,2167.109,318.507z"/>
		<path fill="#37ABE9" d="M2284.34,268.631h2.043l22.59,68.681l28.923-68.681h30.659l-61.936,144.822l-27.391-12.265l17.173-42.006
			l-12.164-5.518l-28.923-85.238C2273.708,268.564,2283.382,268.631,2284.34,268.631z"/>
	</g>
</g>
<g>
	<path fill="#37ABE9" d="M1271.859,499.167c0,8.662-7.021,15.685-15.686,15.685H866.793c-8.664,0-15.686-7.022-15.686-15.685
		V109.786c0-8.662,7.021-15.686,15.686-15.686h389.381c8.664,0,15.686,7.024,15.686,15.686V499.167z"/>
	<path fill="#FFFFFF" d="M1200.013,289.791c-1.007,0-2.001,0.053-2.981,0.153c-10.43-49.48-47.266-89.23-95.077-103.813
		c-0.516-0.923-1.054-1.834-1.589-3.831c-2.725-11.934-10.685-21.883-21.299-27.854c-11.277-5.308-25.207-2.654-33.168,7.295
		c-5.971,7.298-6.633,16.584-1.327,24.546c5.308,6.633,16.585,9.287,21.893,1.325c3.316-4.644,0-11.938-5.97-11.938
		c-3.318,0-4.645,3.316-5.971,5.307c-2.654,3.315-5.309-2.655-5.309-5.307c0-3.319,0.664-7.297,3.318-9.951
		c7.961-8.625,21.227-6.633,28.523,1.989c9.951,12.605,2.654,29.854-11.276,35.822c-15.257,5.971-31.179-3.315-39.546-15.356
		c-1.996-3.025-3.257-3.217-4.441-2.919c-11.832,2.98-23.42,7.405-34.227,13.777c-10.261,6.011-19.68,13.306-28.035,21.665
		c-18.618,18.616-31.954,42.51-37.59,69.242c-0.981-0.101-1.978-0.153-2.986-0.153c-15.938,0-28.86,12.926-28.86,28.863
		c0,15.938,12.923,28.863,28.86,28.863c1.009,0,2.005-0.053,2.986-0.153c13.223,62.729,68.881,109.819,135.543,109.819
		s122.32-47.091,135.542-109.819c0.981,0.101,1.978,0.153,2.986,0.153c15.939,0,28.859-12.925,28.859-28.863
		C1228.872,302.717,1215.952,289.791,1200.013,289.791z"/>
	<path fill="#37ABE9" d="M1079.582,318.949c-0.948-6.347-5.07-11.646-10.712-14.235l-3.097-72.083h-9.387l-3.096,72.083
		c-2.121,0.973-4.03,2.322-5.639,3.976l-14.695-4.723l-5.238,19.085l15.283,3.499c1.308,4.904,4.542,9.016,8.859,11.467
		l-0.675,15.708h19.79l-0.674-15.709c1.881-1.069,3.557-2.451,4.961-4.08l71.66,16.404l2.039-9.098L1079.582,318.949z"/>
	<g>
		<g>
			<ellipse fill="#37ABE9" cx="1011.378" cy="271.308" rx="23.249" ry="31.998"/>
			<path fill="#FFFFFF" d="M1013.129,261.77c0,6.369-3.755,11.536-8.383,11.536c-4.631,0-8.383-5.167-8.383-11.536
				c0-6.375,3.752-11.54,8.383-11.54C1009.374,250.229,1013.129,255.395,1013.129,261.77z"/>
		</g>
		<g>
			<ellipse fill="#37ABE9" cx="1111.589" cy="271.308" rx="23.249" ry="31.998"/>
			<path fill="#FFFFFF" d="M1113.34,261.77c0,6.369-3.755,11.536-8.383,11.536c-4.631,0-8.383-5.167-8.383-11.536
				c0-6.375,3.752-11.54,8.383-11.54C1109.585,250.229,1113.34,255.395,1113.34,261.77z"/>
		</g>
	</g>
	<path fill="#37ABE9" d="M1061.484,406.033c20.879,0,37.807-16.18,37.807-36.142h-75.613
		C1023.678,389.854,1040.604,406.033,1061.484,406.033z"/>
</g>
<g>
	<path fill="#37ABE9" d="M641.355,499.167c0,8.662-7.021,15.685-15.686,15.685H236.289c-8.664,0-15.686-7.022-15.686-15.685V109.786
		c0-8.662,7.021-15.686,15.686-15.686H625.67c8.664,0,15.686,7.024,15.686,15.686V499.167z"/>
	<path fill="#FFFFFF" d="M569.508,289.791c-1.006,0-2,0.053-2.98,0.153c-10.43-49.48-47.266-89.23-95.077-103.813
		c-0.516-0.923-1.054-1.834-1.589-3.831c-2.725-11.934-10.685-21.883-21.299-27.854c-11.277-5.308-25.207-2.654-33.168,7.295
		c-5.971,7.298-6.633,16.584-1.327,24.546c5.308,6.633,16.585,9.287,21.893,1.325c3.316-4.644,0-11.938-5.97-11.938
		c-3.318,0-4.645,3.316-5.971,5.307c-2.654,3.315-5.309-2.655-5.309-5.307c0-3.319,0.664-7.297,3.318-9.951
		c7.961-8.625,21.227-6.633,28.523,1.989c9.951,12.605,2.654,29.854-11.276,35.822c-15.257,5.971-31.179-3.315-39.546-15.356
		c-1.996-3.025-3.257-3.217-4.441-2.919c-11.832,2.98-23.42,7.405-34.227,13.777c-10.261,6.011-19.68,13.306-28.035,21.665
		c-18.618,18.616-31.954,42.51-37.59,69.242c-0.981-0.101-1.978-0.153-2.986-0.153c-15.938,0-28.86,12.926-28.86,28.863
		c0,15.938,12.923,28.863,28.86,28.863c1.009,0,2.005-0.053,2.986-0.153c13.223,62.729,68.881,109.819,135.543,109.819
		s122.32-47.091,135.541-109.819c0.982,0.101,1.979,0.153,2.986,0.153c15.939,0,28.859-12.925,28.859-28.863
		C598.367,302.717,585.447,289.791,569.508,289.791z"/>
	<path fill="#37ABE9" d="M449.078,318.949c-0.948-6.347-5.07-11.646-10.712-14.235l-3.097-72.083h-9.387l-3.096,72.083
		c-2.121,0.973-4.03,2.322-5.639,3.976l-14.695-4.723l-5.238,19.085l15.283,3.499c1.308,4.904,4.542,9.016,8.859,11.467
		l-0.675,15.708h19.79l-0.674-15.709c1.881-1.069,3.557-2.451,4.961-4.08l71.66,16.404l2.039-9.098L449.078,318.949z"/>
	<g>
		<g>
			<ellipse fill="#37ABE9" cx="380.875" cy="271.308" rx="23.249" ry="31.998"/>
			<path fill="#FFFFFF" d="M382.625,261.77c0,6.369-3.755,11.536-8.383,11.536c-4.631,0-8.383-5.167-8.383-11.536
				c0-6.375,3.752-11.54,8.383-11.54C378.87,250.229,382.625,255.395,382.625,261.77z"/>
		</g>
		<g>
			<ellipse fill="#37ABE9" cx="481.085" cy="271.308" rx="23.249" ry="31.998"/>
			<path fill="#FFFFFF" d="M482.836,261.77c0,6.369-3.755,11.536-8.383,11.536c-4.631,0-8.383-5.167-8.383-11.536
				c0-6.375,3.752-11.54,8.383-11.54C479.081,250.229,482.836,255.395,482.836,261.77z"/>
		</g>
	</g>
	<path fill="#37ABE9" d="M430.98,406.033c20.879,0,37.807-16.18,37.807-36.142h-75.613
		C393.174,389.854,410.1,406.033,430.98,406.033z"/>
</g>
<g>
	<g>
		<g>
			<path fill="#FFFFFF" d="M134.647,1361.929c-9.282,0-17.254-2.601-23.916-7.8c-5.543-4.813-8.314-10.529-8.314-17.147
				c0-8.293-0.064-20.282-0.193-35.969c0.471-4.941,1.16-8.681,2.062-11.218c2.278-5.414,5.888-9.302,10.83-11.667
				c4.9-2.276,10.958-3.416,18.179-3.416c9.969,0,18.114,1.14,24.431,3.416v15.922h-0.193c-4.943-2.491-11.497-3.738-19.661-3.738
				h-2.063c-7.178,0-11.69,1.87-13.537,5.607c-0.474,1.119-0.817,2.472-1.032,4.062l0.129,0.321v15.278l18.759-0.387
				c14.827,0.258,23.915,4.362,27.267,12.313c1.117,2.751,1.676,5.63,1.676,8.639v1.998c0,9.712-5.265,16.673-15.792,20.885
				C148.334,1360.961,142.125,1361.929,134.647,1361.929z M156.628,1277.999c10.529,4.255,15.794,11.216,15.794,20.886v1.998
				c0,3.009-0.56,5.909-1.676,8.703c-3.353,7.907-12.442,11.989-27.269,12.247l-18.757-0.387l-18.309-0.064
				c-0.429-5.888-0.644-12.998-0.644-21.337c0-6.575,2.771-12.29,8.316-17.147c6.661-5.198,14.633-7.799,23.916-7.799
				C145.477,1275.099,151.687,1276.065,156.628,1277.999z M121.239,1328.987v6.318c0,4.169,2.493,7.049,7.479,8.638
				c2.192,0.56,4.275,0.839,6.253,0.839h1.675c6.403,0,10.701-1.741,12.893-5.223c0.473-1.072,0.709-2.213,0.709-3.415
				c0-4.771-4.189-7.157-12.57-7.157H121.239z M141.029,1308.039c8.38,0,12.57-2.385,12.57-7.156c0-1.202-0.236-2.321-0.708-3.352
				c-2.192-3.523-6.491-5.286-12.893-5.286h-1.676c-1.977,0-4.061,0.279-6.253,0.838c-4.984,1.592-7.477,4.491-7.477,8.702v6.254
				H141.029z"/>
			<path fill="#FFFFFF" d="M210.326,1294.889c13.321,0,21.939,4.361,25.85,13.086c1.332,3.824,1.999,7.455,1.999,10.894v19.854
				c0,9.111-5.351,15.965-16.052,20.563c-4.641,1.548-9.261,2.32-13.859,2.32c-16.074,0-26.15-5.049-30.233-15.148
				c-0.73-2.362-1.095-4.598-1.095-6.704v-1.869c0-8.336,3.997-13.945,11.989-16.824c4.513-1.331,9.712-1.998,15.6-1.998h16.052
				c0.213,0,0.322-0.106,0.322-0.322c0-6.359-4.47-9.541-13.408-9.541h-1.87c-7.348,0-13.431,1.161-18.242,3.481v-14.697
				C193.05,1295.919,200.699,1294.889,210.326,1294.889z M194.211,1338.4c0,4.125,3.587,6.618,10.765,7.477h3.287
				c6.231,0,10.334-2.04,12.313-6.124c0.213-0.814,0.322-1.696,0.322-2.643v-5.736h-15.148c-5.716,0-9.282,1.183-10.701,3.545
				C194.489,1335.907,194.211,1337.069,194.211,1338.4z"/>
			<path fill="#FFFFFF" d="M262.798,1297.145c4.255-2.707,9.131-4.062,14.632-4.062h0.646c7.176,0,13.666,1.611,19.467,4.834
				c10.271,6.792,15.406,16.546,15.406,29.267c0,7.822-1.934,14.633-5.802,20.435c-6.618,9.325-16.374,13.987-29.265,13.987
				c-8.767,0-16.095-2.084-21.982-6.252c-8.811-6.705-13.215-15.771-13.215-27.203v-58.982h20.113V1297.145z M293.031,1321.06
				c-2.666-7.906-7.824-11.861-15.473-11.861c-1.933,0-4.188,0.474-6.769,1.418c-6.103,3.31-9.153,8.726-9.153,16.244v0.968
				c0,2.364,0.43,4.877,1.29,7.542c3.051,6.662,7.713,9.991,13.988,9.991h1.29c2.621,0,5.135-0.644,7.541-1.934
				c5.372-3.481,8.058-8.896,8.058-16.244C293.804,1325.853,293.546,1323.81,293.031,1321.06z"/>
			<path fill="#FFFFFF" d="M330.419,1295.727h1.289l14.247,43.318l18.242-43.318h19.339l-39.064,91.342l-17.276-7.735l10.83-26.494
				l-7.67-3.479l-18.244-53.763C323.715,1295.685,329.816,1295.727,330.419,1295.727z"/>
			<path fill="#FFFFFF" d="M408.159,1297.145c4.254-2.707,9.131-4.062,14.633-4.062h0.644c7.177,0,13.666,1.611,19.468,4.834
				c10.27,6.792,15.407,16.546,15.407,29.267c0,7.822-1.935,14.633-5.802,20.435c-6.618,9.325-16.373,13.987-29.266,13.987
				c-8.767,0-16.095-2.084-21.981-6.252c-8.812-6.705-13.215-15.771-13.215-27.203v-58.982h20.112V1297.145z M438.392,1321.06
				c-2.666-7.906-7.823-11.861-15.471-11.861c-1.934,0-4.19,0.474-6.769,1.418c-6.103,3.31-9.155,8.726-9.155,16.244v0.968
				c0,2.364,0.43,4.877,1.29,7.542c3.051,6.662,7.713,9.991,13.987,9.991h1.29c2.62,0,5.134-0.644,7.542-1.934
				c5.373-3.481,8.058-8.896,8.058-16.244C439.165,1325.853,438.907,1323.81,438.392,1321.06z"/>
			<path fill="#FFFFFF" d="M481.13,1295.727h1.29l-0.129,32.037c0,3.438,1.138,7.134,3.416,11.087
				c3.31,4.169,7.456,6.254,12.441,6.254h1.29c6.403,0,11.151-3.375,14.245-10.121c0.86-2.749,1.29-5.327,1.29-7.734v-31.522h19.274
				v31.908c0,11.603-4.471,20.8-13.41,27.589c-6.017,4.255-13.472,6.382-22.368,6.382c-13.109,0-23.035-4.747-29.781-14.245
				c-3.911-5.888-5.866-12.806-5.866-20.758v-31.006C474.467,1295.685,480.571,1295.727,481.13,1295.727z"/>
			<path fill="#FFFFFF" d="M588.91,1269.168h20.111v58.982c0,11.433-4.404,20.498-13.215,27.203
				c-5.887,4.168-13.214,6.252-21.979,6.252c-12.893,0-22.648-4.662-29.267-13.987c-3.867-5.802-5.801-12.612-5.801-20.435
				c0-12.721,5.134-22.475,15.406-29.267c5.801-3.223,12.291-4.834,19.468-4.834h0.644c5.5,0,10.378,1.354,14.633,4.062V1269.168z
				 M557.903,1327.184c0,7.349,2.686,12.763,8.059,16.244c2.406,1.29,4.919,1.934,7.542,1.934h1.288
				c6.274,0,10.938-3.329,13.988-9.991c0.859-2.665,1.29-5.178,1.29-7.542v-0.968c0-7.519-3.053-12.935-9.154-16.244
				c-2.579-0.944-4.834-1.418-6.768-1.418c-7.65,0-12.807,3.955-15.471,11.861C558.163,1323.81,557.903,1325.853,557.903,1327.184z"
				/>
			<path fill="#FFFFFF" d="M663.687,1269.168H683.8v58.982c0,11.433-4.407,20.498-13.215,27.203
				c-5.89,4.168-13.214,6.252-21.982,6.252c-12.893,0-22.65-4.662-29.267-13.987c-3.866-5.802-5.801-12.612-5.801-20.435
				c0-12.721,5.133-22.475,15.407-29.267c5.8-3.223,12.288-4.834,19.467-4.834h0.644c5.502,0,10.38,1.354,14.634,4.062V1269.168z
				 M632.68,1327.184c0,7.349,2.684,12.763,8.059,16.244c2.405,1.29,4.92,1.934,7.542,1.934h1.289
				c6.273,0,10.937-3.329,13.988-9.991c0.859-2.665,1.289-5.178,1.289-7.542v-0.968c0-7.519-3.053-12.935-9.153-16.244
				c-2.578-0.944-4.835-1.418-6.769-1.418c-7.65,0-12.807,3.955-15.471,11.861C632.938,1323.81,632.68,1325.853,632.68,1327.184z"/>
			<path fill="#FFFFFF" d="M706.619,1295.727h1.289l14.248,43.318l18.242-43.318h19.337l-39.064,91.342l-17.275-7.735l10.831-26.494
				l-7.672-3.479l-18.242-53.763C699.914,1295.685,706.016,1295.727,706.619,1295.727z"/>
		</g>
	</g>
	<g>
		<g>
			<path fill="#FFFFFF" d="M1377.487,1070.079c-14.717,0-27.357-4.123-37.918-12.367c-8.789-7.631-13.183-16.693-13.183-27.187
				c0-13.148-0.103-32.157-0.307-57.028c0.747-7.835,1.839-13.764,3.269-17.785c3.611-8.584,9.335-14.749,17.17-18.498
				c7.77-3.609,17.375-5.416,28.823-5.416c15.806,0,28.719,1.807,38.735,5.416v25.243h-0.307
				c-7.838-3.949-18.229-5.926-31.172-5.926h-3.271c-11.38,0-18.534,2.964-21.462,8.891c-0.751,1.774-1.296,3.919-1.637,6.438
				l0.204,0.511v24.223l29.742-0.613c23.508,0.409,37.918,6.916,43.231,19.521c1.771,4.36,2.657,8.927,2.657,13.696v3.168
				c0,15.397-8.348,26.436-25.039,33.113C1399.188,1068.545,1389.344,1070.079,1377.487,1070.079z M1412.338,937.009
				c16.694,6.746,25.042,17.783,25.042,33.115v3.169c0,4.769-0.888,9.367-2.658,13.797c-5.315,12.536-19.726,19.009-43.233,19.418
				l-29.739-0.613l-29.027-0.102c-0.682-9.336-1.021-20.609-1.021-33.83c0-10.425,4.395-19.485,13.185-27.187
				c10.561-8.241,23.2-12.365,37.917-12.365C1394.657,932.411,1404.503,933.943,1412.338,937.009z M1356.229,1017.852v10.017
				c0,6.609,3.952,11.176,11.856,13.695c3.476,0.887,6.778,1.33,9.914,1.33h2.656c10.152,0,16.966-2.761,20.441-8.28
				c0.748-1.7,1.125-3.509,1.125-5.415c0-7.563-6.644-11.347-19.93-11.347H1356.229z M1387.604,984.637
				c13.287,0,19.931-3.781,19.931-11.344c0-1.907-0.374-3.682-1.124-5.315c-3.475-5.586-10.29-8.38-20.44-8.38h-2.657
				c-3.135,0-6.439,0.442-9.914,1.327c-7.903,2.524-11.855,7.12-11.855,13.798v9.914H1387.604z"/>
			<path fill="#FFFFFF" d="M1497.475,963.787c21.12,0,34.783,6.916,40.983,20.747c2.111,6.064,3.169,11.821,3.169,17.272v31.479
				c0,14.447-8.483,25.313-25.45,32.603c-7.358,2.453-14.683,3.679-21.973,3.679c-25.484,0-41.461-8.005-47.934-24.018
				c-1.158-3.745-1.736-7.29-1.736-10.629v-2.965c0-13.216,6.336-22.108,19.008-26.673c7.154-2.111,15.398-3.169,24.733-3.169h25.45
				c0.338,0,0.511-0.168,0.511-0.511c0-10.082-7.088-15.127-21.258-15.127h-2.965c-11.65,0-21.294,1.84-28.923,5.52v-23.303
				C1470.084,965.422,1482.211,963.787,1497.475,963.787z M1471.925,1032.774c0,6.542,5.688,10.493,17.068,11.855h5.211
				c9.88,0,16.385-3.234,19.521-9.71c0.338-1.292,0.511-2.689,0.511-4.19v-9.095h-24.019c-9.063,0-14.717,1.875-16.966,5.62
				C1472.365,1028.823,1471.925,1030.664,1471.925,1032.774z"/>
			<path fill="#FFFFFF" d="M1580.668,967.364c6.746-4.292,14.477-6.439,23.199-6.439h1.023c11.378,0,21.667,2.556,30.865,7.665
				c16.283,10.768,24.427,26.233,24.427,46.401c0,12.402-3.066,23.199-9.199,32.398c-10.492,14.785-25.961,22.177-46.399,22.177
				c-13.899,0-25.519-3.305-34.852-9.914c-13.97-10.629-20.953-25.003-20.953-43.129v-93.516h31.889V967.364z M1628.603,1005.282
				c-4.227-12.536-12.404-18.807-24.531-18.807c-3.064,0-6.642,0.751-10.731,2.249c-9.676,5.247-14.513,13.833-14.513,25.754v1.534
				c0,3.748,0.682,7.733,2.045,11.957c4.837,10.563,12.229,15.843,22.178,15.843h2.045c4.156,0,8.142-1.021,11.957-3.066
				c8.516-5.52,12.775-14.104,12.775-25.755C1629.827,1012.881,1629.419,1009.642,1628.603,1005.282z"/>
			<path fill="#FFFFFF" d="M1687.88,965.115h2.043l22.588,68.681l28.923-68.681h30.661l-61.936,144.822l-27.391-12.265l17.17-42.006
				l-12.16-5.518l-28.926-85.238C1677.251,965.049,1686.925,965.115,1687.88,965.115z"/>
			<path fill="#FFFFFF" d="M1811.136,967.364c6.746-4.292,14.477-6.439,23.201-6.439h1.021c11.378,0,21.667,2.556,30.865,7.665
				c16.283,10.768,24.427,26.233,24.427,46.401c0,12.402-3.066,23.199-9.198,32.398c-10.493,14.785-25.959,22.177-46.4,22.177
				c-13.899,0-25.518-3.305-34.852-9.914c-13.969-10.629-20.951-25.003-20.951-43.129v-93.516h31.887V967.364z M1859.07,1005.282
				c-4.227-12.536-12.404-18.807-24.529-18.807c-3.066,0-6.644,0.751-10.731,2.249c-9.675,5.247-14.514,13.833-14.514,25.754v1.534
				c0,3.748,0.681,7.733,2.045,11.957c4.836,10.563,12.229,15.843,22.177,15.843h2.045c4.154,0,8.14-1.021,11.957-3.066
				c8.519-5.52,12.776-14.104,12.776-25.755C1860.296,1012.881,1859.888,1009.642,1859.07,1005.282z"/>
			<path fill="#FFFFFF" d="M1926.83,965.115h2.045l-0.204,50.796c0,5.451,1.804,11.31,5.415,17.578
				c5.247,6.609,11.821,9.914,19.726,9.914h2.045c10.152,0,17.682-5.35,22.586-16.046c1.364-4.358,2.045-8.446,2.045-12.264v-49.979
				h30.56v50.592c0,18.396-7.088,32.977-21.26,43.741c-9.54,6.746-21.36,10.118-35.464,10.118c-20.784,0-36.522-7.526-47.217-22.586
				c-6.201-9.335-9.302-20.302-9.302-32.91v-49.159C1916.267,965.049,1925.944,965.115,1926.83,965.115z"/>
			<path fill="#FFFFFF" d="M2097.714,923.008h31.887v93.516c0,18.126-6.984,32.5-20.951,43.129
				c-9.334,6.609-20.952,9.914-34.85,9.914c-20.441,0-35.909-7.392-46.401-22.177c-6.131-9.199-9.197-19.996-9.197-32.398
				c0-20.168,8.14-35.634,24.427-46.401c9.197-5.109,19.485-7.665,30.865-7.665h1.021c8.721,0,16.453,2.147,23.199,6.439V923.008z
				 M2048.554,1014.991c0,11.65,4.258,20.235,12.776,25.755c3.815,2.045,7.801,3.066,11.959,3.066h2.043
				c9.948,0,17.341-5.279,22.177-15.843c1.364-4.224,2.045-8.209,2.045-11.957v-1.534c0-11.921-4.838-20.507-14.512-25.754
				c-4.09-1.498-7.665-2.249-10.731-2.249c-12.129,0-20.305,6.271-24.528,18.807
				C2048.965,1009.642,2048.554,1012.881,2048.554,1014.991z"/>
			<path fill="#FFFFFF" d="M2216.271,923.008h31.89v93.516c0,18.126-6.988,32.5-20.952,43.129
				c-9.337,6.609-20.952,9.914-34.854,9.914c-20.44,0-35.911-7.392-46.401-22.177c-6.131-9.199-9.197-19.996-9.197-32.398
				c0-20.168,8.137-35.634,24.427-46.401c9.196-5.109,19.483-7.665,30.865-7.665h1.021c8.723,0,16.456,2.147,23.201,6.439V923.008z
				 M2167.109,1014.991c0,11.65,4.256,20.235,12.776,25.755c3.815,2.045,7.801,3.066,11.959,3.066h2.043
				c9.948,0,17.34-5.279,22.18-15.843c1.361-4.224,2.043-8.209,2.043-11.957v-1.534c0-11.921-4.84-20.507-14.513-25.754
				c-4.088-1.498-7.665-2.249-10.731-2.249c-12.129,0-20.305,6.271-24.529,18.807
				C2167.521,1009.642,2167.109,1012.881,2167.109,1014.991z"/>
			<path fill="#FFFFFF" d="M2284.34,965.115h2.043l22.59,68.681l28.923-68.681h30.659l-61.936,144.822l-27.391-12.265l17.173-42.006
				l-12.164-5.518l-28.923-85.238C2273.708,965.049,2283.382,965.115,2284.34,965.115z"/>
		</g>
	</g>
	<path fill="#FFFFFF" d="M1271.859,1195.651c0,8.662-7.021,15.685-15.686,15.685H866.793c-8.664,0-15.686-7.022-15.686-15.685
		V806.27c0-8.662,7.021-15.686,15.686-15.686h389.381c8.664,0,15.686,7.023,15.686,15.686V1195.651z"/>
	<path d="M1200.013,986.275c-1.007,0-2.001,0.053-2.981,0.153c-10.43-49.48-47.266-89.23-95.077-103.813
		c-0.516-0.922-1.054-1.834-1.589-3.83c-2.725-11.934-10.685-21.883-21.299-27.854c-11.277-5.309-25.207-2.654-33.168,7.295
		c-5.971,7.298-6.633,16.584-1.327,24.547c5.308,6.633,16.585,9.286,21.893,1.324c3.316-4.644,0-11.938-5.97-11.938
		c-3.318,0-4.645,3.316-5.971,5.308c-2.654,3.314-5.309-2.656-5.309-5.308c0-3.319,0.664-7.298,3.318-9.951
		c7.961-8.624,21.227-6.633,28.523,1.989c9.951,12.605,2.654,29.854-11.276,35.822c-15.257,5.971-31.179-3.315-39.546-15.355
		c-1.996-3.025-3.257-3.218-4.441-2.92c-11.832,2.98-23.42,7.405-34.227,13.777c-10.261,6.011-19.68,13.306-28.035,21.665
		c-18.618,18.616-31.954,42.51-37.59,69.242c-0.981-0.101-1.978-0.153-2.986-0.153c-15.938,0-28.86,12.926-28.86,28.863
		c0,15.938,12.923,28.863,28.86,28.863c1.009,0,2.005-0.053,2.986-0.153c13.223,62.729,68.881,109.819,135.543,109.819
		s122.32-47.091,135.542-109.819c0.981,0.101,1.978,0.153,2.986,0.153c15.939,0,28.859-12.925,28.859-28.863
		C1228.872,999.201,1215.952,986.275,1200.013,986.275z"/>
	<path fill="#FFFFFF" d="M1079.582,1015.434c-0.948-6.347-5.07-11.646-10.712-14.235l-3.097-72.083h-9.387l-3.096,72.083
		c-2.121,0.973-4.03,2.322-5.639,3.976l-14.695-4.723l-5.238,19.085l15.283,3.499c1.308,4.904,4.542,9.016,8.859,11.467
		l-0.675,15.708h19.79l-0.674-15.709c1.881-1.069,3.557-2.451,4.961-4.08l71.66,16.404l2.039-9.098L1079.582,1015.434z"/>
	<ellipse fill="#FFFFFF" cx="1011.378" cy="967.792" rx="23.249" ry="31.998"/>
	<path d="M1013.129,958.254c0,6.369-3.755,11.536-8.383,11.536c-4.631,0-8.383-5.167-8.383-11.536c0-6.375,3.752-11.54,8.383-11.54
		C1009.374,946.714,1013.129,951.879,1013.129,958.254z"/>
	<ellipse fill="#FFFFFF" cx="1111.589" cy="967.792" rx="23.249" ry="31.998"/>
	<path d="M1113.34,958.254c0,6.369-3.755,11.536-8.383,11.536c-4.631,0-8.383-5.167-8.383-11.536c0-6.375,3.752-11.54,8.383-11.54
		C1109.585,946.714,1113.34,951.879,1113.34,958.254z"/>
	<path fill="#FFFFFF" d="M1061.484,1102.518c20.879,0,37.807-16.18,37.807-36.142h-75.613
		C1023.678,1086.338,1040.604,1102.518,1061.484,1102.518z"/>
	<path fill="#FFFFFF" d="M641.355,1195.651c0,8.662-7.021,15.685-15.686,15.685H236.289c-8.664,0-15.686-7.022-15.686-15.685V806.27
		c0-8.662,7.021-15.686,15.686-15.686H625.67c8.664,0,15.686,7.023,15.686,15.686V1195.651z"/>
	<path d="M569.508,986.275c-1.006,0-2,0.053-2.98,0.153c-10.43-49.48-47.266-89.23-95.077-103.813
		c-0.516-0.922-1.054-1.834-1.589-3.83c-2.725-11.934-10.685-21.883-21.299-27.854c-11.277-5.309-25.207-2.654-33.168,7.295
		c-5.971,7.298-6.633,16.584-1.327,24.547c5.308,6.633,16.585,9.286,21.893,1.324c3.316-4.644,0-11.938-5.97-11.938
		c-3.318,0-4.645,3.316-5.971,5.308c-2.654,3.314-5.309-2.656-5.309-5.308c0-3.319,0.664-7.298,3.318-9.951
		c7.961-8.624,21.227-6.633,28.523,1.989c9.951,12.605,2.654,29.854-11.276,35.822c-15.257,5.971-31.179-3.315-39.546-15.355
		c-1.996-3.025-3.257-3.218-4.441-2.92c-11.832,2.98-23.42,7.405-34.227,13.777c-10.261,6.011-19.68,13.306-28.035,21.665
		c-18.618,18.616-31.954,42.51-37.59,69.242c-0.981-0.101-1.978-0.153-2.986-0.153c-15.938,0-28.86,12.926-28.86,28.863
		c0,15.938,12.923,28.863,28.86,28.863c1.009,0,2.005-0.053,2.986-0.153c13.223,62.729,68.881,109.819,135.543,109.819
		s122.32-47.091,135.541-109.819c0.982,0.101,1.979,0.153,2.986,0.153c15.939,0,28.859-12.925,28.859-28.863
		C598.367,999.201,585.447,986.275,569.508,986.275z"/>
	<path fill="#FFFFFF" d="M449.078,1015.434c-0.948-6.347-5.07-11.646-10.712-14.235l-3.097-72.083h-9.387l-3.096,72.083
		c-2.121,0.973-4.03,2.322-5.639,3.976l-14.695-4.723l-5.238,19.085l15.283,3.499c1.308,4.904,4.542,9.016,8.859,11.467
		l-0.675,15.708h19.79l-0.674-15.709c1.881-1.069,3.557-2.451,4.961-4.08l71.66,16.404l2.039-9.098L449.078,1015.434z"/>
	<ellipse fill="#FFFFFF" cx="380.875" cy="967.792" rx="23.249" ry="31.998"/>
	<path d="M382.625,958.254c0,6.369-3.755,11.536-8.383,11.536c-4.631,0-8.383-5.167-8.383-11.536c0-6.375,3.752-11.54,8.383-11.54
		C378.87,946.714,382.625,951.879,382.625,958.254z"/>
	<ellipse fill="#FFFFFF" cx="481.085" cy="967.792" rx="23.249" ry="31.998"/>
	<path d="M482.836,958.254c0,6.369-3.755,11.536-8.383,11.536c-4.631,0-8.383-5.167-8.383-11.536c0-6.375,3.752-11.54,8.383-11.54
		C479.081,946.714,482.836,951.879,482.836,958.254z"/>
	<path fill="#FFFFFF" d="M430.98,1102.518c20.879,0,37.807-16.18,37.807-36.142h-75.613
		C393.174,1086.338,410.1,1102.518,430.98,1102.518z"/>
</g>
<g>
	<g>
		<path d="M134.647,2058.413c-9.282,0-17.254-2.601-23.916-7.8c-5.543-4.813-8.314-10.529-8.314-17.147
			c0-8.293-0.064-20.282-0.193-35.969c0.471-4.941,1.16-8.681,2.062-11.218c2.278-5.414,5.888-9.302,10.83-11.667
			c4.9-2.276,10.958-3.416,18.179-3.416c9.969,0,18.114,1.14,24.431,3.416v15.922h-0.193c-4.943-2.491-11.497-3.738-19.661-3.738
			h-2.063c-7.178,0-11.69,1.87-13.537,5.607c-0.474,1.119-0.817,2.472-1.032,4.062l0.129,0.321v15.278l18.759-0.387
			c14.827,0.258,23.915,4.362,27.267,12.313c1.117,2.751,1.676,5.63,1.676,8.639v1.998c0,9.712-5.265,16.673-15.792,20.885
			C148.334,2057.445,142.125,2058.413,134.647,2058.413z M156.628,1974.483c10.529,4.255,15.794,11.216,15.794,20.886v1.998
			c0,3.009-0.56,5.909-1.676,8.703c-3.353,7.907-12.442,11.989-27.269,12.247l-18.757-0.387l-18.309-0.064
			c-0.429-5.888-0.644-12.998-0.644-21.337c0-6.575,2.771-12.29,8.316-17.147c6.661-5.198,14.633-7.799,23.916-7.799
			C145.477,1971.583,151.687,1972.55,156.628,1974.483z M121.239,2025.472v6.318c0,4.169,2.493,7.049,7.479,8.638
			c2.192,0.56,4.275,0.839,6.253,0.839h1.675c6.403,0,10.701-1.741,12.893-5.223c0.473-1.072,0.709-2.213,0.709-3.415
			c0-4.771-4.189-7.157-12.57-7.157H121.239z M141.029,2004.523c8.38,0,12.57-2.385,12.57-7.156c0-1.202-0.236-2.321-0.708-3.352
			c-2.192-3.523-6.491-5.286-12.893-5.286h-1.676c-1.977,0-4.061,0.279-6.253,0.838c-4.984,1.592-7.477,4.491-7.477,8.702v6.254
			H141.029z"/>
		<path d="M210.326,1991.373c13.321,0,21.939,4.361,25.85,13.086c1.332,3.824,1.999,7.455,1.999,10.894v19.854
			c0,9.111-5.351,15.965-16.052,20.563c-4.641,1.548-9.261,2.32-13.859,2.32c-16.074,0-26.15-5.049-30.233-15.148
			c-0.73-2.362-1.095-4.598-1.095-6.704v-1.869c0-8.336,3.997-13.945,11.989-16.824c4.513-1.331,9.712-1.998,15.6-1.998h16.052
			c0.213,0,0.322-0.106,0.322-0.322c0-6.359-4.47-9.541-13.408-9.541h-1.87c-7.348,0-13.431,1.161-18.242,3.481v-14.697
			C193.05,1992.403,200.699,1991.373,210.326,1991.373z M194.211,2034.885c0,4.125,3.587,6.618,10.765,7.477h3.287
			c6.231,0,10.334-2.04,12.313-6.124c0.213-0.814,0.322-1.696,0.322-2.643v-5.736h-15.148c-5.716,0-9.282,1.183-10.701,3.545
			C194.489,2032.392,194.211,2033.554,194.211,2034.885z"/>
		<path d="M262.798,1993.629c4.255-2.707,9.131-4.062,14.632-4.062h0.646c7.176,0,13.666,1.611,19.467,4.834
			c10.271,6.792,15.406,16.546,15.406,29.267c0,7.822-1.934,14.633-5.802,20.435c-6.618,9.325-16.374,13.987-29.265,13.987
			c-8.767,0-16.095-2.084-21.982-6.252c-8.811-6.705-13.215-15.771-13.215-27.203v-58.982h20.113V1993.629z M293.031,2017.544
			c-2.666-7.906-7.824-11.861-15.473-11.861c-1.933,0-4.188,0.474-6.769,1.418c-6.103,3.31-9.153,8.726-9.153,16.244v0.968
			c0,2.364,0.43,4.877,1.29,7.542c3.051,6.662,7.713,9.991,13.988,9.991h1.29c2.621,0,5.135-0.644,7.541-1.934
			c5.372-3.481,8.058-8.896,8.058-16.244C293.804,2022.337,293.546,2020.294,293.031,2017.544z"/>
		<path d="M330.419,1992.211h1.289l14.247,43.318l18.242-43.318h19.339l-39.064,91.342l-17.276-7.735l10.83-26.494l-7.67-3.479
			l-18.244-53.763C323.715,1992.169,329.816,1992.211,330.419,1992.211z"/>
		<path d="M408.159,1993.629c4.254-2.707,9.131-4.062,14.633-4.062h0.644c7.177,0,13.666,1.611,19.468,4.834
			c10.27,6.792,15.407,16.546,15.407,29.267c0,7.822-1.935,14.633-5.802,20.435c-6.618,9.325-16.373,13.987-29.266,13.987
			c-8.767,0-16.095-2.084-21.981-6.252c-8.812-6.705-13.215-15.771-13.215-27.203v-58.982h20.112V1993.629z M438.392,2017.544
			c-2.666-7.906-7.823-11.861-15.471-11.861c-1.934,0-4.19,0.474-6.769,1.418c-6.103,3.31-9.155,8.726-9.155,16.244v0.968
			c0,2.364,0.43,4.877,1.29,7.542c3.051,6.662,7.713,9.991,13.987,9.991h1.29c2.62,0,5.134-0.644,7.542-1.934
			c5.373-3.481,8.058-8.896,8.058-16.244C439.165,2022.337,438.907,2020.294,438.392,2017.544z"/>
		<path d="M481.13,1992.211h1.29l-0.129,32.037c0,3.438,1.138,7.134,3.416,11.087c3.31,4.169,7.456,6.254,12.441,6.254h1.29
			c6.403,0,11.151-3.375,14.245-10.121c0.86-2.749,1.29-5.327,1.29-7.734v-31.522h19.274v31.908c0,11.603-4.471,20.8-13.41,27.589
			c-6.017,4.255-13.472,6.382-22.368,6.382c-13.109,0-23.035-4.747-29.781-14.245c-3.911-5.888-5.866-12.806-5.866-20.758v-31.006
			C474.467,1992.169,480.571,1992.211,481.13,1992.211z"/>
		<path d="M588.91,1965.652h20.111v58.982c0,11.433-4.404,20.498-13.215,27.203c-5.887,4.168-13.214,6.252-21.979,6.252
			c-12.893,0-22.648-4.662-29.267-13.987c-3.867-5.802-5.801-12.612-5.801-20.435c0-12.721,5.134-22.475,15.406-29.267
			c5.801-3.223,12.291-4.834,19.468-4.834h0.644c5.5,0,10.378,1.354,14.633,4.062V1965.652z M557.903,2023.668
			c0,7.349,2.686,12.763,8.059,16.244c2.406,1.29,4.919,1.934,7.542,1.934h1.288c6.274,0,10.938-3.329,13.988-9.991
			c0.859-2.665,1.29-5.178,1.29-7.542v-0.968c0-7.519-3.053-12.935-9.154-16.244c-2.579-0.944-4.834-1.418-6.768-1.418
			c-7.65,0-12.807,3.955-15.471,11.861C558.163,2020.294,557.903,2022.337,557.903,2023.668z"/>
		<path d="M663.687,1965.652H683.8v58.982c0,11.433-4.407,20.498-13.215,27.203c-5.89,4.168-13.214,6.252-21.982,6.252
			c-12.893,0-22.65-4.662-29.267-13.987c-3.866-5.802-5.801-12.612-5.801-20.435c0-12.721,5.133-22.475,15.407-29.267
			c5.8-3.223,12.288-4.834,19.467-4.834h0.644c5.502,0,10.38,1.354,14.634,4.062V1965.652z M632.68,2023.668
			c0,7.349,2.684,12.763,8.059,16.244c2.405,1.29,4.92,1.934,7.542,1.934h1.289c6.273,0,10.937-3.329,13.988-9.991
			c0.859-2.665,1.289-5.178,1.289-7.542v-0.968c0-7.519-3.053-12.935-9.153-16.244c-2.578-0.944-4.835-1.418-6.769-1.418
			c-7.65,0-12.807,3.955-15.471,11.861C632.938,2020.294,632.68,2022.337,632.68,2023.668z"/>
		<path d="M706.619,1992.211h1.289l14.248,43.318l18.242-43.318h19.337l-39.064,91.342l-17.275-7.735l10.831-26.494l-7.672-3.479
			l-18.242-53.763C699.914,1992.169,706.016,1992.211,706.619,1992.211z"/>
	</g>
</g>
<g>
	<g>
		<path d="M1377.487,1766.563c-14.717,0-27.357-4.123-37.918-12.367c-8.789-7.631-13.183-16.693-13.183-27.187
			c0-13.148-0.103-32.157-0.307-57.028c0.747-7.835,1.839-13.764,3.269-17.785c3.611-8.584,9.335-14.749,17.17-18.498
			c7.77-3.609,17.375-5.416,28.823-5.416c15.806,0,28.719,1.807,38.735,5.416v25.243h-0.307c-7.838-3.949-18.229-5.926-31.172-5.926
			h-3.271c-11.38,0-18.534,2.964-21.462,8.891c-0.751,1.774-1.296,3.919-1.637,6.438l0.204,0.511v24.223l29.742-0.613
			c23.508,0.409,37.918,6.916,43.231,19.521c1.771,4.36,2.657,8.927,2.657,13.696v3.168c0,15.397-8.348,26.436-25.039,33.113
			C1399.188,1765.029,1389.344,1766.563,1377.487,1766.563z M1412.338,1633.493c16.694,6.746,25.042,17.783,25.042,33.115v3.169
			c0,4.769-0.888,9.367-2.658,13.797c-5.315,12.536-19.726,19.009-43.233,19.418l-29.739-0.613l-29.027-0.102
			c-0.682-9.336-1.021-20.609-1.021-33.83c0-10.425,4.395-19.485,13.185-27.187c10.561-8.241,23.2-12.365,37.917-12.365
			C1394.657,1628.896,1404.503,1630.428,1412.338,1633.493z M1356.229,1714.336v10.017c0,6.609,3.952,11.176,11.856,13.695
			c3.476,0.887,6.778,1.33,9.914,1.33h2.656c10.152,0,16.966-2.761,20.441-8.28c0.748-1.7,1.125-3.509,1.125-5.415
			c0-7.563-6.644-11.347-19.93-11.347H1356.229z M1387.604,1681.121c13.287,0,19.931-3.781,19.931-11.344
			c0-1.907-0.374-3.682-1.124-5.315c-3.475-5.586-10.29-8.38-20.44-8.38h-2.657c-3.135,0-6.439,0.442-9.914,1.327
			c-7.903,2.524-11.855,7.12-11.855,13.798v9.914H1387.604z"/>
		<path d="M1497.475,1660.271c21.12,0,34.783,6.916,40.983,20.747c2.111,6.064,3.169,11.821,3.169,17.272v31.479
			c0,14.447-8.483,25.313-25.45,32.603c-7.358,2.453-14.683,3.679-21.973,3.679c-25.484,0-41.461-8.005-47.934-24.018
			c-1.158-3.745-1.736-7.29-1.736-10.629v-2.965c0-13.216,6.336-22.108,19.008-26.673c7.154-2.111,15.398-3.169,24.733-3.169h25.45
			c0.338,0,0.511-0.168,0.511-0.511c0-10.082-7.088-15.127-21.258-15.127h-2.965c-11.65,0-21.294,1.84-28.923,5.52v-23.303
			C1470.084,1661.906,1482.211,1660.271,1497.475,1660.271z M1471.925,1729.259c0,6.542,5.688,10.493,17.068,11.855h5.211
			c9.88,0,16.385-3.234,19.521-9.71c0.338-1.292,0.511-2.689,0.511-4.19v-9.095h-24.019c-9.063,0-14.717,1.875-16.966,5.62
			C1472.365,1725.308,1471.925,1727.148,1471.925,1729.259z"/>
		<path d="M1580.668,1663.849c6.746-4.292,14.477-6.439,23.199-6.439h1.023c11.378,0,21.667,2.556,30.865,7.665
			c16.283,10.768,24.427,26.233,24.427,46.401c0,12.402-3.066,23.199-9.199,32.398c-10.492,14.785-25.961,22.177-46.399,22.177
			c-13.899,0-25.519-3.305-34.852-9.914c-13.97-10.629-20.953-25.003-20.953-43.129v-93.516h31.889V1663.849z M1628.603,1701.767
			c-4.227-12.536-12.404-18.807-24.531-18.807c-3.064,0-6.642,0.751-10.731,2.249c-9.676,5.247-14.513,13.833-14.513,25.754v1.534
			c0,3.748,0.682,7.733,2.045,11.957c4.837,10.563,12.229,15.843,22.178,15.843h2.045c4.156,0,8.142-1.021,11.957-3.066
			c8.516-5.52,12.775-14.104,12.775-25.755C1629.827,1709.365,1629.419,1706.126,1628.603,1701.767z"/>
		<path d="M1687.88,1661.6h2.043l22.588,68.681l28.923-68.681h30.661l-61.936,144.822l-27.391-12.265l17.17-42.006l-12.16-5.518
			l-28.926-85.238C1677.251,1661.533,1686.925,1661.6,1687.88,1661.6z"/>
		<path d="M1811.136,1663.849c6.746-4.292,14.477-6.439,23.201-6.439h1.021c11.378,0,21.667,2.556,30.865,7.665
			c16.283,10.768,24.427,26.233,24.427,46.401c0,12.402-3.066,23.199-9.198,32.398c-10.493,14.785-25.959,22.177-46.4,22.177
			c-13.899,0-25.518-3.305-34.852-9.914c-13.969-10.629-20.951-25.003-20.951-43.129v-93.516h31.887V1663.849z M1859.07,1701.767
			c-4.227-12.536-12.404-18.807-24.529-18.807c-3.066,0-6.644,0.751-10.731,2.249c-9.675,5.247-14.514,13.833-14.514,25.754v1.534
			c0,3.748,0.681,7.733,2.045,11.957c4.836,10.563,12.229,15.843,22.177,15.843h2.045c4.154,0,8.14-1.021,11.957-3.066
			c8.519-5.52,12.776-14.104,12.776-25.755C1860.296,1709.365,1859.888,1706.126,1859.07,1701.767z"/>
		<path d="M1926.83,1661.6h2.045l-0.204,50.796c0,5.451,1.804,11.31,5.415,17.578c5.247,6.609,11.821,9.914,19.726,9.914h2.045
			c10.152,0,17.682-5.35,22.586-16.046c1.364-4.358,2.045-8.446,2.045-12.264V1661.6h30.56v50.592
			c0,18.396-7.088,32.977-21.26,43.741c-9.54,6.746-21.36,10.118-35.464,10.118c-20.784,0-36.522-7.526-47.217-22.586
			c-6.201-9.335-9.302-20.302-9.302-32.91v-49.159C1916.267,1661.533,1925.944,1661.6,1926.83,1661.6z"/>
		<path d="M2097.714,1619.492h31.887v93.516c0,18.126-6.984,32.5-20.951,43.129c-9.334,6.609-20.952,9.914-34.85,9.914
			c-20.441,0-35.909-7.392-46.401-22.177c-6.131-9.199-9.197-19.996-9.197-32.398c0-20.168,8.14-35.634,24.427-46.401
			c9.197-5.109,19.485-7.665,30.865-7.665h1.021c8.721,0,16.453,2.147,23.199,6.439V1619.492z M2048.554,1711.476
			c0,11.65,4.258,20.235,12.776,25.755c3.815,2.045,7.801,3.066,11.959,3.066h2.043c9.948,0,17.341-5.279,22.177-15.843
			c1.364-4.224,2.045-8.209,2.045-11.957v-1.534c0-11.921-4.838-20.507-14.512-25.754c-4.09-1.498-7.665-2.249-10.731-2.249
			c-12.129,0-20.305,6.271-24.528,18.807C2048.965,1706.126,2048.554,1709.365,2048.554,1711.476z"/>
		<path d="M2216.271,1619.492h31.89v93.516c0,18.126-6.988,32.5-20.952,43.129c-9.337,6.609-20.952,9.914-34.854,9.914
			c-20.44,0-35.911-7.392-46.401-22.177c-6.131-9.199-9.197-19.996-9.197-32.398c0-20.168,8.137-35.634,24.427-46.401
			c9.196-5.109,19.483-7.665,30.865-7.665h1.021c8.723,0,16.456,2.147,23.201,6.439V1619.492z M2167.109,1711.476
			c0,11.65,4.256,20.235,12.776,25.755c3.815,2.045,7.801,3.066,11.959,3.066h2.043c9.948,0,17.34-5.279,22.18-15.843
			c1.361-4.224,2.043-8.209,2.043-11.957v-1.534c0-11.921-4.84-20.507-14.513-25.754c-4.088-1.498-7.665-2.249-10.731-2.249
			c-12.129,0-20.305,6.271-24.529,18.807C2167.521,1706.126,2167.109,1709.365,2167.109,1711.476z"/>
		<path d="M2284.34,1661.6h2.043l22.59,68.681l28.923-68.681h30.659l-61.936,144.822l-27.391-12.265l17.173-42.006l-12.164-5.518
			l-28.923-85.238C2273.708,1661.533,2283.382,1661.6,2284.34,1661.6z"/>
	</g>
</g>
<g>
	<path d="M1271.859,1892.136c0,8.662-7.021,15.685-15.686,15.685H866.793c-8.664,0-15.686-7.022-15.686-15.685v-389.382
		c0-8.662,7.021-15.686,15.686-15.686h389.381c8.664,0,15.686,7.023,15.686,15.686V1892.136z"/>
	<path fill="#FFFFFF" d="M1200.013,1682.76c-1.007,0-2.001,0.053-2.981,0.153c-10.43-49.48-47.266-89.23-95.077-103.813
		c-0.516-0.922-1.054-1.834-1.589-3.83c-2.725-11.934-10.685-21.883-21.299-27.854c-11.277-5.309-25.207-2.654-33.168,7.295
		c-5.971,7.298-6.633,16.584-1.327,24.547c5.308,6.633,16.585,9.286,21.893,1.324c3.316-4.644,0-11.938-5.97-11.938
		c-3.318,0-4.645,3.316-5.971,5.308c-2.654,3.314-5.309-2.656-5.309-5.308c0-3.319,0.664-7.298,3.318-9.951
		c7.961-8.624,21.227-6.633,28.523,1.989c9.951,12.605,2.654,29.854-11.276,35.822c-15.257,5.971-31.179-3.315-39.546-15.355
		c-1.996-3.025-3.257-3.218-4.441-2.92c-11.832,2.98-23.42,7.405-34.227,13.777c-10.261,6.011-19.68,13.306-28.035,21.665
		c-18.618,18.616-31.954,42.51-37.59,69.242c-0.981-0.101-1.978-0.153-2.986-0.153c-15.938,0-28.86,12.926-28.86,28.863
		c0,15.938,12.923,28.863,28.86,28.863c1.009,0,2.005-0.053,2.986-0.153c13.223,62.729,68.881,109.819,135.543,109.819
		s122.32-47.091,135.542-109.819c0.981,0.101,1.978,0.153,2.986,0.153c15.939,0,28.859-12.925,28.859-28.863
		C1228.872,1695.686,1215.952,1682.76,1200.013,1682.76z"/>
	<path d="M1079.582,1711.918c-0.948-6.347-5.07-11.646-10.712-14.235l-3.097-72.083h-9.387l-3.096,72.083
		c-2.121,0.973-4.03,2.322-5.639,3.976l-14.695-4.723l-5.238,19.085l15.283,3.499c1.308,4.904,4.542,9.016,8.859,11.467
		l-0.675,15.708h19.79l-0.674-15.709c1.881-1.069,3.557-2.451,4.961-4.08l71.66,16.404l2.039-9.098L1079.582,1711.918z"/>
	<ellipse cx="1011.378" cy="1664.276" rx="23.249" ry="31.998"/>
	<path fill="#FFFFFF" d="M1013.129,1654.738c0,6.369-3.755,11.536-8.383,11.536c-4.631,0-8.383-5.167-8.383-11.536
		c0-6.375,3.752-11.54,8.383-11.54C1009.374,1643.198,1013.129,1648.363,1013.129,1654.738z"/>
	<ellipse cx="1111.589" cy="1664.276" rx="23.249" ry="31.998"/>
	<path fill="#FFFFFF" d="M1113.34,1654.738c0,6.369-3.755,11.536-8.383,11.536c-4.631,0-8.383-5.167-8.383-11.536
		c0-6.375,3.752-11.54,8.383-11.54C1109.585,1643.198,1113.34,1648.363,1113.34,1654.738z"/>
	<path d="M1061.484,1799.002c20.879,0,37.807-16.18,37.807-36.142h-75.613C1023.678,1782.822,1040.604,1799.002,1061.484,1799.002z"
		/>
</g>
<g>
	<path d="M641.355,1892.136c0,8.662-7.021,15.685-15.686,15.685H236.289c-8.664,0-15.686-7.022-15.686-15.685v-389.382
		c0-8.662,7.021-15.686,15.686-15.686H625.67c8.664,0,15.686,7.023,15.686,15.686V1892.136z"/>
	<path fill="#FFFFFF" d="M569.508,1682.76c-1.006,0-2,0.053-2.98,0.153c-10.43-49.48-47.266-89.23-95.077-103.813
		c-0.516-0.922-1.054-1.834-1.589-3.83c-2.725-11.934-10.685-21.883-21.299-27.854c-11.277-5.309-25.207-2.654-33.168,7.295
		c-5.971,7.298-6.633,16.584-1.327,24.547c5.308,6.633,16.585,9.286,21.893,1.324c3.316-4.644,0-11.938-5.97-11.938
		c-3.318,0-4.645,3.316-5.971,5.308c-2.654,3.314-5.309-2.656-5.309-5.308c0-3.319,0.664-7.298,3.318-9.951
		c7.961-8.624,21.227-6.633,28.523,1.989c9.951,12.605,2.654,29.854-11.276,35.822c-15.257,5.971-31.179-3.315-39.546-15.355
		c-1.996-3.025-3.257-3.218-4.441-2.92c-11.832,2.98-23.42,7.405-34.227,13.777c-10.261,6.011-19.68,13.306-28.035,21.665
		c-18.618,18.616-31.954,42.51-37.59,69.242c-0.981-0.101-1.978-0.153-2.986-0.153c-15.938,0-28.86,12.926-28.86,28.863
		c0,15.938,12.923,28.863,28.86,28.863c1.009,0,2.005-0.053,2.986-0.153c13.223,62.729,68.881,109.819,135.543,109.819
		s122.32-47.091,135.541-109.819c0.982,0.101,1.979,0.153,2.986,0.153c15.939,0,28.859-12.925,28.859-28.863
		C598.367,1695.686,585.447,1682.76,569.508,1682.76z"/>
	<path d="M449.078,1711.918c-0.948-6.347-5.07-11.646-10.712-14.235l-3.097-72.083h-9.387l-3.096,72.083
		c-2.121,0.973-4.03,2.322-5.639,3.976l-14.695-4.723l-5.238,19.085l15.283,3.499c1.308,4.904,4.542,9.016,8.859,11.467
		l-0.675,15.708h19.79l-0.674-15.709c1.881-1.069,3.557-2.451,4.961-4.08l71.66,16.404l2.039-9.098L449.078,1711.918z"/>
	<ellipse cx="380.875" cy="1664.276" rx="23.249" ry="31.998"/>
	<path fill="#FFFFFF" d="M382.625,1654.738c0,6.369-3.755,11.536-8.383,11.536c-4.631,0-8.383-5.167-8.383-11.536
		c0-6.375,3.752-11.54,8.383-11.54C378.87,1643.198,382.625,1648.363,382.625,1654.738z"/>
	<ellipse cx="481.085" cy="1664.276" rx="23.249" ry="31.998"/>
	<path fill="#FFFFFF" d="M482.836,1654.738c0,6.369-3.755,11.536-8.383,11.536c-4.631,0-8.383-5.167-8.383-11.536
		c0-6.375,3.752-11.54,8.383-11.54C479.081,1643.198,482.836,1648.363,482.836,1654.738z"/>
	<path d="M430.98,1799.002c20.879,0,37.807-16.18,37.807-36.142h-75.613C393.174,1782.822,410.1,1799.002,430.98,1799.002z"/>
</g>
<g>
	<g>
		<g>
			<path fill="#FFFFFF" d="M208.001,2719.221c-9.281,0-17.254-2.601-23.915-7.8c-5.543-4.813-8.314-10.529-8.314-17.147
				c0-8.293-0.064-20.282-0.193-35.969c0.472-4.941,1.159-8.681,2.062-11.218c2.277-5.414,5.889-9.302,10.83-11.667
				c4.9-2.276,10.958-3.416,18.179-3.416c9.97,0,18.114,1.14,24.431,3.416v15.922h-0.193c-4.942-2.491-11.496-3.738-19.66-3.738
				h-2.063c-7.178,0-11.69,1.87-13.536,5.607c-0.475,1.119-0.818,2.472-1.033,4.062l0.129,0.321v15.278l18.76-0.387
				c14.826,0.258,23.915,4.362,27.267,12.313c1.117,2.751,1.677,5.63,1.677,8.639v1.998c0,9.712-5.266,16.673-15.793,20.885
				C221.688,2718.253,215.479,2719.221,208.001,2719.221z M229.983,2635.291c10.529,4.255,15.794,11.216,15.794,20.886v1.998
				c0,3.009-0.56,5.909-1.677,8.703c-3.353,7.907-12.441,11.989-27.268,12.247l-18.758-0.387l-18.309-0.064
				c-0.43-5.888-0.645-12.998-0.645-21.337c0-6.575,2.771-12.29,8.316-17.147c6.661-5.198,14.633-7.799,23.916-7.799
				C218.831,2632.391,225.042,2633.357,229.983,2635.291z M194.593,2686.279v6.318c0,4.169,2.493,7.049,7.479,8.638
				c2.192,0.56,4.275,0.839,6.254,0.839H210c6.403,0,10.7-1.741,12.893-5.223c0.473-1.072,0.71-2.213,0.71-3.415
				c0-4.771-4.189-7.157-12.57-7.157H194.593z M214.384,2665.331c8.38,0,12.57-2.385,12.57-7.156c0-1.202-0.236-2.321-0.709-3.352
				c-2.191-3.523-6.49-5.286-12.893-5.286h-1.676c-1.978,0-4.062,0.279-6.254,0.838c-4.984,1.592-7.477,4.491-7.477,8.702v6.254
				H214.384z"/>
			<path fill="#FFFFFF" d="M283.681,2652.181c13.32,0,21.938,4.361,25.85,13.086c1.331,3.824,1.998,7.455,1.998,10.894v19.854
				c0,9.111-5.352,15.965-16.052,20.563c-4.642,1.548-9.261,2.32-13.858,2.32c-16.074,0-26.15-5.049-30.233-15.148
				c-0.73-2.362-1.095-4.598-1.095-6.704v-1.869c0-8.336,3.996-13.945,11.988-16.824c4.513-1.331,9.712-1.998,15.6-1.998h16.053
				c0.213,0,0.321-0.106,0.321-0.322c0-6.359-4.47-9.541-13.407-9.541h-1.87c-7.349,0-13.431,1.161-18.241,3.481v-14.697
				C266.404,2653.211,274.054,2652.181,283.681,2652.181z M267.565,2695.692c0,4.125,3.588,6.618,10.766,7.477h3.287
				c6.23,0,10.334-2.04,12.313-6.124c0.213-0.814,0.321-1.696,0.321-2.643v-5.736h-15.148c-5.716,0-9.282,1.183-10.7,3.545
				C267.843,2693.199,267.565,2694.361,267.565,2695.692z"/>
			<path fill="#FFFFFF" d="M336.152,2654.437c4.255-2.707,9.131-4.062,14.632-4.062h0.646c7.176,0,13.665,1.611,19.467,4.834
				c10.271,6.792,15.406,16.546,15.406,29.267c0,7.822-1.934,14.633-5.802,20.435c-6.618,9.325-16.374,13.987-29.265,13.987
				c-8.768,0-16.096-2.084-21.982-6.252c-8.811-6.705-13.215-15.771-13.215-27.203v-58.982h20.112V2654.437z M366.386,2678.352
				c-2.666-7.906-7.824-11.861-15.473-11.861c-1.933,0-4.188,0.474-6.769,1.418c-6.103,3.31-9.153,8.726-9.153,16.244v0.968
				c0,2.364,0.43,4.877,1.29,7.542c3.051,6.662,7.714,9.991,13.987,9.991h1.291c2.621,0,5.135-0.644,7.541-1.934
				c5.371-3.481,8.058-8.896,8.058-16.244C367.158,2683.145,366.901,2681.102,366.386,2678.352z"/>
			<path fill="#FFFFFF" d="M403.773,2653.019h1.288l14.247,43.318l18.242-43.318h19.339l-39.064,91.342l-17.275-7.735l10.829-26.494
				l-7.67-3.479l-18.243-53.763C397.069,2652.977,403.171,2653.019,403.773,2653.019z"/>
			<path fill="#FFFFFF" d="M481.514,2654.437c4.255-2.707,9.131-4.062,14.634-4.062h0.644c7.177,0,13.665,1.611,19.468,4.834
				c10.27,6.792,15.406,16.546,15.406,29.267c0,7.822-1.934,14.633-5.802,20.435c-6.618,9.325-16.373,13.987-29.266,13.987
				c-8.767,0-16.095-2.084-21.981-6.252c-8.811-6.705-13.215-15.771-13.215-27.203v-58.982h20.112V2654.437z M511.747,2678.352
				c-2.666-7.906-7.824-11.861-15.471-11.861c-1.935,0-4.191,0.474-6.77,1.418c-6.102,3.31-9.154,8.726-9.154,16.244v0.968
				c0,2.364,0.43,4.877,1.29,7.542c3.051,6.662,7.713,9.991,13.987,9.991h1.29c2.62,0,5.134-0.644,7.542-1.934
				c5.372-3.481,8.058-8.896,8.058-16.244C512.52,2683.145,512.262,2681.102,511.747,2678.352z"/>
			<path fill="#FFFFFF" d="M554.484,2653.019h1.29l-0.129,32.037c0,3.438,1.138,7.134,3.416,11.087
				c3.309,4.169,7.455,6.254,12.441,6.254h1.289c6.404,0,11.152-3.375,14.246-10.121c0.859-2.749,1.289-5.327,1.289-7.734v-31.522
				h19.275v31.908c0,11.603-4.472,20.8-13.41,27.589c-6.017,4.255-13.473,6.382-22.367,6.382c-13.109,0-23.035-4.747-29.781-14.245
				c-3.911-5.888-5.866-12.806-5.866-20.758v-31.006C547.821,2652.977,553.926,2653.019,554.484,2653.019z"/>
			<path fill="#FFFFFF" d="M662.265,2626.46h20.111v58.982c0,11.433-4.404,20.498-13.215,27.203
				c-5.887,4.168-13.214,6.252-21.979,6.252c-12.893,0-22.648-4.662-29.267-13.987c-3.867-5.802-5.801-12.612-5.801-20.435
				c0-12.721,5.133-22.475,15.406-29.267c5.801-3.223,12.29-4.834,19.468-4.834h0.644c5.5,0,10.378,1.354,14.633,4.062V2626.46z
				 M631.258,2684.476c0,7.349,2.687,12.763,8.06,16.244c2.405,1.29,4.919,1.934,7.542,1.934h1.288
				c6.274,0,10.938-3.329,13.988-9.991c0.859-2.665,1.29-5.178,1.29-7.542v-0.968c0-7.519-3.053-12.935-9.154-16.244
				c-2.579-0.944-4.834-1.418-6.768-1.418c-7.65,0-12.808,3.955-15.472,11.861C631.518,2681.102,631.258,2683.145,631.258,2684.476z
				"/>
			<path fill="#FFFFFF" d="M737.041,2626.46h20.113v58.982c0,11.433-4.407,20.498-13.215,27.203
				c-5.89,4.168-13.214,6.252-21.982,6.252c-12.893,0-22.65-4.662-29.267-13.987c-3.866-5.802-5.801-12.612-5.801-20.435
				c0-12.721,5.133-22.475,15.407-29.267c5.8-3.223,12.288-4.834,19.467-4.834h0.644c5.502,0,10.38,1.354,14.634,4.062V2626.46z
				 M706.034,2684.476c0,7.349,2.684,12.763,8.059,16.244c2.405,1.29,4.92,1.934,7.542,1.934h1.289
				c6.273,0,10.937-3.329,13.988-9.991c0.859-2.665,1.289-5.178,1.289-7.542v-0.968c0-7.519-3.053-12.935-9.153-16.244
				c-2.578-0.944-4.835-1.418-6.769-1.418c-7.65,0-12.807,3.955-15.471,11.861C706.293,2681.102,706.034,2683.145,706.034,2684.476z
				"/>
			<path fill="#FFFFFF" d="M779.974,2653.019h1.289l14.248,43.318l18.242-43.318h19.337l-39.064,91.342l-17.275-7.735l10.831-26.494
				l-7.672-3.479l-18.242-53.763C773.269,2652.977,779.37,2653.019,779.974,2653.019z"/>
		</g>
	</g>
	<path fill="#FFFFFF" d="M642.862,2404.31c-1.006,0-2,0.053-2.98,0.154c-10.43-49.48-47.266-89.23-95.076-103.813
		c-0.516-0.923-1.055-1.835-1.59-3.831c-2.725-11.934-10.684-21.883-21.299-27.854c-11.277-5.308-25.207-2.653-33.168,7.295
		c-5.971,7.299-6.633,16.585-1.326,24.547c5.307,6.633,16.584,9.287,21.893,1.324c3.316-4.643,0-11.938-5.971-11.938
		c-3.318,0-4.645,3.316-5.971,5.307c-2.654,3.314-5.309-2.655-5.309-5.307c0-3.319,0.664-7.298,3.318-9.951
		c7.961-8.625,21.227-6.633,28.523,1.988c9.951,12.605,2.654,29.854-11.275,35.822c-15.258,5.971-31.18-3.314-39.547-15.355
		c-1.996-3.025-3.256-3.217-4.441-2.92c-11.832,2.98-23.42,7.406-34.227,13.777c-10.26,6.012-19.68,13.307-28.035,21.666
		c-18.617,18.615-31.953,42.51-37.59,69.242c-0.98-0.102-1.977-0.154-2.986-0.154c-15.938,0-28.859,12.926-28.859,28.863
		c0,15.939,12.922,28.863,28.859,28.863c1.01,0,2.006-0.053,2.986-0.152c13.223,62.729,68.881,109.818,135.543,109.818
		s122.32-47.09,135.541-109.818c0.982,0.1,1.979,0.152,2.986,0.152c15.939,0,28.859-12.924,28.859-28.863
		C671.722,2417.235,658.802,2404.31,642.862,2404.31z M554.44,2353.825c12.84,0,23.248,14.33,23.248,32.002
		c0,17.67-10.408,31.998-23.248,31.998s-23.248-14.328-23.248-31.998C531.192,2368.155,541.601,2353.825,554.44,2353.825z
		 M430.981,2385.827c0-17.672,10.408-32.002,23.248-32.002s23.248,14.33,23.248,32.002c0,17.67-10.408,31.998-23.248,31.998
		S430.981,2403.497,430.981,2385.827z M504.335,2520.552c-20.881,0-37.807-16.18-37.807-36.141h75.613
		C542.142,2504.372,525.214,2520.552,504.335,2520.552z M589.774,2464.86l-71.66-16.404c-1.404,1.629-3.08,3.01-4.961,4.08
		l0.674,15.709h-19.789l0.674-15.709c-4.316-2.451-7.551-6.563-8.859-11.467l-15.283-3.498l5.238-19.086l14.695,4.723
		c1.609-1.652,3.518-3.002,5.639-3.975l3.096-72.084h9.387l3.098,72.084c5.641,2.588,9.764,7.889,10.711,14.234l69.381,22.295
		L589.774,2464.86z"/>
</g>
<g>
	<g>
		<g>
			<path fill="#FFFFFF" d="M1377.487,2488.113c-14.717,0-27.357-4.123-37.918-12.367c-8.789-7.631-13.183-16.693-13.183-27.187
				c0-13.148-0.103-32.157-0.307-57.028c0.747-7.835,1.839-13.764,3.269-17.785c3.611-8.584,9.335-14.749,17.17-18.498
				c7.77-3.609,17.375-5.416,28.823-5.416c15.806,0,28.719,1.807,38.735,5.416v25.243h-0.307
				c-7.838-3.949-18.229-5.926-31.172-5.926h-3.271c-11.38,0-18.534,2.964-21.462,8.891c-0.751,1.774-1.296,3.919-1.637,6.438
				l0.204,0.511v24.223l29.742-0.613c23.508,0.409,37.918,6.916,43.231,19.521c1.771,4.36,2.657,8.927,2.657,13.696v3.168
				c0,15.397-8.348,26.436-25.039,33.113C1399.188,2486.579,1389.344,2488.113,1377.487,2488.113z M1412.338,2355.043
				c16.694,6.746,25.042,17.783,25.042,33.115v3.169c0,4.769-0.888,9.367-2.658,13.797c-5.315,12.536-19.726,19.009-43.233,19.418
				l-29.739-0.613l-29.027-0.102c-0.682-9.336-1.021-20.609-1.021-33.83c0-10.425,4.395-19.485,13.185-27.187
				c10.561-8.241,23.2-12.365,37.917-12.365C1394.657,2350.445,1404.503,2351.978,1412.338,2355.043z M1356.229,2435.886v10.017
				c0,6.609,3.952,11.176,11.856,13.695c3.476,0.887,6.778,1.33,9.914,1.33h2.656c10.152,0,16.966-2.761,20.441-8.28
				c0.748-1.7,1.125-3.509,1.125-5.415c0-7.563-6.644-11.347-19.93-11.347H1356.229z M1387.604,2402.671
				c13.287,0,19.931-3.781,19.931-11.344c0-1.907-0.374-3.682-1.124-5.315c-3.475-5.586-10.29-8.38-20.44-8.38h-2.657
				c-3.135,0-6.439,0.442-9.914,1.327c-7.903,2.524-11.855,7.12-11.855,13.798v9.914H1387.604z"/>
			<path fill="#FFFFFF" d="M1497.475,2381.821c21.12,0,34.783,6.916,40.983,20.747c2.111,6.064,3.169,11.821,3.169,17.272v31.479
				c0,14.447-8.483,25.313-25.45,32.603c-7.358,2.453-14.683,3.679-21.973,3.679c-25.484,0-41.461-8.005-47.934-24.018
				c-1.158-3.745-1.736-7.29-1.736-10.629v-2.965c0-13.216,6.336-22.108,19.008-26.673c7.154-2.111,15.398-3.169,24.733-3.169h25.45
				c0.338,0,0.511-0.168,0.511-0.511c0-10.082-7.088-15.127-21.258-15.127h-2.965c-11.65,0-21.294,1.84-28.923,5.52v-23.303
				C1470.084,2383.456,1482.211,2381.821,1497.475,2381.821z M1471.925,2450.809c0,6.542,5.688,10.493,17.068,11.855h5.211
				c9.88,0,16.385-3.234,19.521-9.71c0.338-1.292,0.511-2.689,0.511-4.19v-9.095h-24.019c-9.063,0-14.717,1.875-16.966,5.62
				C1472.365,2446.857,1471.925,2448.698,1471.925,2450.809z"/>
			<path fill="#FFFFFF" d="M1580.668,2385.398c6.746-4.292,14.477-6.439,23.199-6.439h1.023c11.378,0,21.667,2.556,30.865,7.665
				c16.283,10.768,24.427,26.233,24.427,46.401c0,12.402-3.066,23.199-9.199,32.398c-10.492,14.785-25.961,22.177-46.399,22.177
				c-13.899,0-25.519-3.305-34.852-9.914c-13.97-10.629-20.953-25.003-20.953-43.129v-93.516h31.889V2385.398z M1628.603,2423.316
				c-4.227-12.536-12.404-18.807-24.531-18.807c-3.064,0-6.642,0.751-10.731,2.249c-9.676,5.247-14.513,13.833-14.513,25.754v1.534
				c0,3.748,0.682,7.733,2.045,11.957c4.837,10.563,12.229,15.843,22.178,15.843h2.045c4.156,0,8.142-1.021,11.957-3.066
				c8.516-5.52,12.775-14.104,12.775-25.755C1629.827,2430.915,1629.419,2427.676,1628.603,2423.316z"/>
			<path fill="#FFFFFF" d="M1687.88,2383.149h2.043l22.588,68.681l28.923-68.681h30.661l-61.936,144.822l-27.391-12.265
				l17.17-42.006l-12.16-5.518l-28.926-85.238C1677.251,2383.083,1686.925,2383.149,1687.88,2383.149z"/>
			<path fill="#FFFFFF" d="M1811.136,2385.398c6.746-4.292,14.477-6.439,23.201-6.439h1.021c11.378,0,21.667,2.556,30.865,7.665
				c16.283,10.768,24.427,26.233,24.427,46.401c0,12.402-3.066,23.199-9.198,32.398c-10.493,14.785-25.959,22.177-46.4,22.177
				c-13.899,0-25.518-3.305-34.852-9.914c-13.969-10.629-20.951-25.003-20.951-43.129v-93.516h31.887V2385.398z M1859.07,2423.316
				c-4.227-12.536-12.404-18.807-24.529-18.807c-3.066,0-6.644,0.751-10.731,2.249c-9.675,5.247-14.514,13.833-14.514,25.754v1.534
				c0,3.748,0.681,7.733,2.045,11.957c4.836,10.563,12.229,15.843,22.177,15.843h2.045c4.154,0,8.14-1.021,11.957-3.066
				c8.519-5.52,12.776-14.104,12.776-25.755C1860.296,2430.915,1859.888,2427.676,1859.07,2423.316z"/>
			<path fill="#FFFFFF" d="M1926.83,2383.149h2.045l-0.204,50.796c0,5.451,1.804,11.31,5.415,17.578
				c5.247,6.609,11.821,9.914,19.726,9.914h2.045c10.152,0,17.682-5.35,22.586-16.046c1.364-4.358,2.045-8.446,2.045-12.264v-49.979
				h30.56v50.592c0,18.396-7.088,32.977-21.26,43.741c-9.54,6.746-21.36,10.118-35.464,10.118c-20.784,0-36.522-7.526-47.217-22.586
				c-6.201-9.335-9.302-20.302-9.302-32.91v-49.159C1916.267,2383.083,1925.944,2383.149,1926.83,2383.149z"/>
			<path fill="#FFFFFF" d="M2097.714,2341.042h31.887v93.516c0,18.126-6.984,32.5-20.951,43.129
				c-9.334,6.609-20.952,9.914-34.85,9.914c-20.441,0-35.909-7.392-46.401-22.177c-6.131-9.199-9.197-19.996-9.197-32.398
				c0-20.168,8.14-35.634,24.427-46.401c9.197-5.109,19.485-7.665,30.865-7.665h1.021c8.721,0,16.453,2.147,23.199,6.439V2341.042z
				 M2048.554,2433.025c0,11.65,4.258,20.235,12.776,25.755c3.815,2.045,7.801,3.066,11.959,3.066h2.043
				c9.948,0,17.341-5.279,22.177-15.843c1.364-4.224,2.045-8.209,2.045-11.957v-1.534c0-11.921-4.838-20.507-14.512-25.754
				c-4.09-1.498-7.665-2.249-10.731-2.249c-12.129,0-20.305,6.271-24.528,18.807
				C2048.965,2427.676,2048.554,2430.915,2048.554,2433.025z"/>
			<path fill="#FFFFFF" d="M2216.271,2341.042h31.89v93.516c0,18.126-6.988,32.5-20.952,43.129
				c-9.337,6.609-20.952,9.914-34.854,9.914c-20.44,0-35.911-7.392-46.401-22.177c-6.131-9.199-9.197-19.996-9.197-32.398
				c0-20.168,8.137-35.634,24.427-46.401c9.196-5.109,19.483-7.665,30.865-7.665h1.021c8.723,0,16.456,2.147,23.201,6.439V2341.042z
				 M2167.109,2433.025c0,11.65,4.256,20.235,12.776,25.755c3.815,2.045,7.801,3.066,11.959,3.066h2.043
				c9.948,0,17.34-5.279,22.18-15.843c1.361-4.224,2.043-8.209,2.043-11.957v-1.534c0-11.921-4.84-20.507-14.513-25.754
				c-4.088-1.498-7.665-2.249-10.731-2.249c-12.129,0-20.305,6.271-24.529,18.807
				C2167.521,2427.676,2167.109,2430.915,2167.109,2433.025z"/>
			<path fill="#FFFFFF" d="M2284.34,2383.149h2.043l22.59,68.681l28.923-68.681h30.659l-61.936,144.822l-27.391-12.265
				l17.173-42.006l-12.164-5.518l-28.923-85.238C2273.708,2383.083,2283.382,2383.149,2284.34,2383.149z"/>
		</g>
	</g>
	<path fill="#FFFFFF" d="M1226.87,2404.31c-1.006,0-2,0.053-2.98,0.154c-10.43-49.48-47.266-89.23-95.077-103.813
		c-0.516-0.923-1.054-1.835-1.589-3.831c-2.725-11.934-10.685-21.883-21.299-27.854c-11.277-5.308-25.207-2.653-33.168,7.295
		c-5.971,7.299-6.633,16.585-1.327,24.547c5.308,6.633,16.585,9.287,21.893,1.324c3.316-4.643,0-11.938-5.97-11.938
		c-3.318,0-4.645,3.316-5.971,5.307c-2.654,3.314-5.309-2.655-5.309-5.307c0-3.319,0.664-7.298,3.318-9.951
		c7.961-8.625,21.227-6.633,28.523,1.988c9.951,12.605,2.654,29.854-11.276,35.822c-15.257,5.971-31.179-3.314-39.546-15.355
		c-1.996-3.025-3.257-3.217-4.441-2.92c-11.832,2.98-23.42,7.406-34.227,13.777c-10.261,6.012-19.68,13.307-28.035,21.666
		c-18.618,18.615-31.954,42.51-37.59,69.242c-0.981-0.102-1.978-0.154-2.986-0.154c-15.938,0-28.86,12.926-28.86,28.863
		c0,15.939,12.923,28.863,28.86,28.863c1.009,0,2.005-0.053,2.986-0.152c13.223,62.729,68.881,109.818,135.543,109.818
		s122.32-47.09,135.541-109.818c0.982,0.1,1.979,0.152,2.986,0.152c15.939,0,28.859-12.924,28.859-28.863
		C1255.729,2417.235,1242.81,2404.31,1226.87,2404.31z M1138.448,2353.825c12.839,0,23.248,14.33,23.248,32.002
		c0,17.67-10.409,31.998-23.248,31.998c-12.841,0-23.249-14.328-23.249-31.998
		C1115.199,2368.155,1125.607,2353.825,1138.448,2353.825z M1014.988,2385.827c0-17.672,10.408-32.002,23.249-32.002
		c12.839,0,23.248,14.33,23.248,32.002c0,17.67-10.409,31.998-23.248,31.998C1025.396,2417.825,1014.988,2403.497,1014.988,2385.827
		z M1088.343,2520.552c-20.881,0-37.807-16.18-37.807-36.141h75.613C1126.149,2504.372,1109.222,2520.552,1088.343,2520.552z
		 M1173.782,2464.86l-71.66-16.404c-1.404,1.629-3.08,3.01-4.961,4.08l0.674,15.709h-19.79l0.675-15.709
		c-4.317-2.451-7.552-6.563-8.859-11.467l-15.283-3.498l5.238-19.086l14.695,4.723c1.608-1.652,3.518-3.002,5.639-3.975
		l3.096-72.084h9.387l3.097,72.084c5.642,2.588,9.764,7.889,10.712,14.234l69.381,22.295L1173.782,2464.86z"/>
</g>
<rect y="2845.83" fill="#37ABE9" width="2598.534" height="726.95"/>
<g>
	<g>
		<path fill="#FFFFFF" d="M208.001,3446.171c-9.281,0-17.254-2.601-23.915-7.8c-5.543-4.813-8.314-10.529-8.314-17.147
			c0-8.293-0.064-20.282-0.193-35.969c0.472-4.941,1.159-8.681,2.062-11.218c2.277-5.414,5.889-9.302,10.83-11.667
			c4.9-2.276,10.958-3.416,18.179-3.416c9.97,0,18.114,1.14,24.431,3.416v15.922h-0.193c-4.942-2.491-11.496-3.738-19.66-3.738
			h-2.063c-7.178,0-11.69,1.87-13.536,5.607c-0.475,1.119-0.818,2.472-1.033,4.062l0.129,0.321v15.278l18.76-0.387
			c14.826,0.258,23.915,4.362,27.267,12.313c1.117,2.751,1.677,5.63,1.677,8.639v1.998c0,9.712-5.266,16.673-15.793,20.885
			C221.688,3445.203,215.479,3446.171,208.001,3446.171z M229.983,3362.241c10.529,4.255,15.794,11.216,15.794,20.886v1.998
			c0,3.009-0.56,5.909-1.677,8.703c-3.353,7.907-12.441,11.989-27.268,12.247l-18.758-0.387l-18.309-0.064
			c-0.43-5.888-0.645-12.998-0.645-21.337c0-6.575,2.771-12.29,8.316-17.147c6.661-5.198,14.633-7.799,23.916-7.799
			C218.831,3359.341,225.042,3360.308,229.983,3362.241z M194.593,3413.229v6.318c0,4.169,2.493,7.049,7.479,8.638
			c2.192,0.56,4.275,0.839,6.254,0.839H210c6.403,0,10.7-1.741,12.893-5.223c0.473-1.072,0.71-2.213,0.71-3.415
			c0-4.771-4.189-7.157-12.57-7.157H194.593z M214.384,3392.281c8.38,0,12.57-2.385,12.57-7.156c0-1.202-0.236-2.321-0.709-3.352
			c-2.191-3.523-6.49-5.286-12.893-5.286h-1.676c-1.978,0-4.062,0.279-6.254,0.838c-4.984,1.592-7.477,4.491-7.477,8.702v6.254
			H214.384z"/>
		<path fill="#FFFFFF" d="M283.681,3379.131c13.32,0,21.938,4.361,25.85,13.086c1.331,3.824,1.998,7.455,1.998,10.894v19.854
			c0,9.111-5.352,15.965-16.052,20.563c-4.642,1.548-9.261,2.32-13.858,2.32c-16.074,0-26.15-5.049-30.233-15.148
			c-0.73-2.362-1.095-4.598-1.095-6.704v-1.869c0-8.336,3.996-13.945,11.988-16.824c4.513-1.331,9.712-1.998,15.6-1.998h16.053
			c0.213,0,0.321-0.106,0.321-0.322c0-6.359-4.47-9.541-13.407-9.541h-1.87c-7.349,0-13.431,1.161-18.241,3.481v-14.697
			C266.404,3380.161,274.054,3379.131,283.681,3379.131z M267.565,3422.643c0,4.125,3.588,6.618,10.766,7.477h3.287
			c6.23,0,10.334-2.04,12.313-6.124c0.213-0.814,0.321-1.696,0.321-2.643v-5.736h-15.148c-5.716,0-9.282,1.183-10.7,3.545
			C267.843,3420.149,267.565,3421.312,267.565,3422.643z"/>
		<path fill="#FFFFFF" d="M336.152,3381.387c4.255-2.707,9.131-4.062,14.632-4.062h0.646c7.176,0,13.665,1.611,19.467,4.834
			c10.271,6.792,15.406,16.546,15.406,29.267c0,7.822-1.934,14.633-5.802,20.435c-6.618,9.325-16.374,13.987-29.265,13.987
			c-8.768,0-16.096-2.084-21.982-6.252c-8.811-6.705-13.215-15.771-13.215-27.203v-58.982h20.112V3381.387z M366.386,3405.302
			c-2.666-7.906-7.824-11.861-15.473-11.861c-1.933,0-4.188,0.474-6.769,1.418c-6.103,3.31-9.153,8.726-9.153,16.244v0.968
			c0,2.364,0.43,4.877,1.29,7.542c3.051,6.662,7.714,9.991,13.987,9.991h1.291c2.621,0,5.135-0.644,7.541-1.934
			c5.371-3.481,8.058-8.896,8.058-16.244C367.158,3410.095,366.901,3408.052,366.386,3405.302z"/>
		<path fill="#FFFFFF" d="M403.773,3379.969h1.288l14.247,43.318l18.242-43.318h19.339l-39.064,91.342l-17.275-7.735l10.829-26.494
			l-7.67-3.479l-18.243-53.763C397.069,3379.927,403.171,3379.969,403.773,3379.969z"/>
		<path fill="#FFFFFF" d="M481.514,3381.387c4.255-2.707,9.131-4.062,14.634-4.062h0.644c7.177,0,13.665,1.611,19.468,4.834
			c10.27,6.792,15.406,16.546,15.406,29.267c0,7.822-1.934,14.633-5.802,20.435c-6.618,9.325-16.373,13.987-29.266,13.987
			c-8.767,0-16.095-2.084-21.981-6.252c-8.811-6.705-13.215-15.771-13.215-27.203v-58.982h20.112V3381.387z M511.747,3405.302
			c-2.666-7.906-7.824-11.861-15.471-11.861c-1.935,0-4.191,0.474-6.77,1.418c-6.102,3.31-9.154,8.726-9.154,16.244v0.968
			c0,2.364,0.43,4.877,1.29,7.542c3.051,6.662,7.713,9.991,13.987,9.991h1.29c2.62,0,5.134-0.644,7.542-1.934
			c5.372-3.481,8.058-8.896,8.058-16.244C512.52,3410.095,512.262,3408.052,511.747,3405.302z"/>
		<path fill="#FFFFFF" d="M554.484,3379.969h1.29l-0.129,32.037c0,3.438,1.138,7.134,3.416,11.087
			c3.309,4.169,7.455,6.254,12.441,6.254h1.289c6.404,0,11.152-3.375,14.246-10.121c0.859-2.749,1.289-5.327,1.289-7.734v-31.522
			h19.275v31.908c0,11.603-4.472,20.8-13.41,27.589c-6.017,4.255-13.473,6.382-22.367,6.382c-13.109,0-23.035-4.747-29.781-14.245
			c-3.911-5.888-5.866-12.806-5.866-20.758v-31.006C547.821,3379.927,553.926,3379.969,554.484,3379.969z"/>
		<path fill="#FFFFFF" d="M662.265,3353.41h20.111v58.982c0,11.433-4.404,20.498-13.215,27.203
			c-5.887,4.168-13.214,6.252-21.979,6.252c-12.893,0-22.648-4.662-29.267-13.987c-3.867-5.802-5.801-12.612-5.801-20.435
			c0-12.721,5.133-22.475,15.406-29.267c5.801-3.223,12.29-4.834,19.468-4.834h0.644c5.5,0,10.378,1.354,14.633,4.062V3353.41z
			 M631.258,3411.426c0,7.349,2.687,12.763,8.06,16.244c2.405,1.29,4.919,1.934,7.542,1.934h1.288
			c6.274,0,10.938-3.329,13.988-9.991c0.859-2.665,1.29-5.178,1.29-7.542v-0.968c0-7.519-3.053-12.935-9.154-16.244
			c-2.579-0.944-4.834-1.418-6.768-1.418c-7.65,0-12.808,3.955-15.472,11.861C631.518,3408.052,631.258,3410.095,631.258,3411.426z"
			/>
		<path fill="#FFFFFF" d="M737.041,3353.41h20.113v58.982c0,11.433-4.407,20.498-13.215,27.203
			c-5.89,4.168-13.214,6.252-21.982,6.252c-12.893,0-22.65-4.662-29.267-13.987c-3.866-5.802-5.801-12.612-5.801-20.435
			c0-12.721,5.133-22.475,15.407-29.267c5.8-3.223,12.288-4.834,19.467-4.834h0.644c5.502,0,10.38,1.354,14.634,4.062V3353.41z
			 M706.034,3411.426c0,7.349,2.684,12.763,8.059,16.244c2.405,1.29,4.92,1.934,7.542,1.934h1.289
			c6.273,0,10.937-3.329,13.988-9.991c0.859-2.665,1.289-5.178,1.289-7.542v-0.968c0-7.519-3.053-12.935-9.153-16.244
			c-2.578-0.944-4.835-1.418-6.769-1.418c-7.65,0-12.807,3.955-15.471,11.861C706.293,3408.052,706.034,3410.095,706.034,3411.426z"
			/>
		<path fill="#FFFFFF" d="M779.974,3379.969h1.289l14.248,43.318l18.242-43.318h19.337l-39.064,91.342l-17.275-7.735l10.831-26.494
			l-7.672-3.479l-18.242-53.763C773.269,3379.927,779.37,3379.969,779.974,3379.969z"/>
	</g>
</g>
<g>
	<g>
		<path fill="#FFFFFF" d="M1377.487,3215.063c-14.717,0-27.357-4.123-37.918-12.367c-8.789-7.631-13.183-16.693-13.183-27.187
			c0-13.148-0.103-32.157-0.307-57.028c0.747-7.835,1.839-13.764,3.269-17.785c3.611-8.584,9.335-14.749,17.17-18.498
			c7.77-3.609,17.375-5.416,28.823-5.416c15.806,0,28.719,1.807,38.735,5.416v25.243h-0.307c-7.838-3.949-18.229-5.926-31.172-5.926
			h-3.271c-11.38,0-18.534,2.964-21.462,8.891c-0.751,1.774-1.296,3.919-1.637,6.438l0.204,0.511v24.223l29.742-0.613
			c23.508,0.409,37.918,6.916,43.231,19.521c1.771,4.36,2.657,8.927,2.657,13.696v3.168c0,15.397-8.348,26.436-25.039,33.113
			C1399.188,3213.529,1389.344,3215.063,1377.487,3215.063z M1412.338,3081.993c16.694,6.746,25.042,17.783,25.042,33.115v3.169
			c0,4.769-0.888,9.367-2.658,13.797c-5.315,12.536-19.726,19.009-43.233,19.418l-29.739-0.613l-29.027-0.102
			c-0.682-9.336-1.021-20.609-1.021-33.83c0-10.425,4.395-19.485,13.185-27.187c10.561-8.241,23.2-12.365,37.917-12.365
			C1394.657,3077.396,1404.503,3078.928,1412.338,3081.993z M1356.229,3162.836v10.017c0,6.609,3.952,11.176,11.856,13.695
			c3.476,0.887,6.778,1.33,9.914,1.33h2.656c10.152,0,16.966-2.761,20.441-8.28c0.748-1.7,1.125-3.509,1.125-5.415
			c0-7.563-6.644-11.347-19.93-11.347H1356.229z M1387.604,3129.621c13.287,0,19.931-3.781,19.931-11.344
			c0-1.907-0.374-3.682-1.124-5.315c-3.475-5.586-10.29-8.38-20.44-8.38h-2.657c-3.135,0-6.439,0.442-9.914,1.327
			c-7.903,2.524-11.855,7.12-11.855,13.798v9.914H1387.604z"/>
		<path fill="#FFFFFF" d="M1497.475,3108.771c21.12,0,34.783,6.916,40.983,20.747c2.111,6.064,3.169,11.821,3.169,17.272v31.479
			c0,14.447-8.483,25.313-25.45,32.603c-7.358,2.453-14.683,3.679-21.973,3.679c-25.484,0-41.461-8.005-47.934-24.018
			c-1.158-3.745-1.736-7.29-1.736-10.629v-2.965c0-13.216,6.336-22.108,19.008-26.673c7.154-2.111,15.398-3.169,24.733-3.169h25.45
			c0.338,0,0.511-0.168,0.511-0.511c0-10.082-7.088-15.127-21.258-15.127h-2.965c-11.65,0-21.294,1.84-28.923,5.52v-23.303
			C1470.084,3110.406,1482.211,3108.771,1497.475,3108.771z M1471.925,3177.759c0,6.542,5.688,10.493,17.068,11.855h5.211
			c9.88,0,16.385-3.234,19.521-9.71c0.338-1.292,0.511-2.689,0.511-4.19v-9.095h-24.019c-9.063,0-14.717,1.875-16.966,5.62
			C1472.365,3173.808,1471.925,3175.648,1471.925,3177.759z"/>
		<path fill="#FFFFFF" d="M1580.668,3112.349c6.746-4.292,14.477-6.439,23.199-6.439h1.023c11.378,0,21.667,2.556,30.865,7.665
			c16.283,10.768,24.427,26.233,24.427,46.401c0,12.402-3.066,23.199-9.199,32.398c-10.492,14.785-25.961,22.177-46.399,22.177
			c-13.899,0-25.519-3.305-34.852-9.914c-13.97-10.629-20.953-25.003-20.953-43.129v-93.516h31.889V3112.349z M1628.603,3150.267
			c-4.227-12.536-12.404-18.807-24.531-18.807c-3.064,0-6.642,0.751-10.731,2.249c-9.676,5.247-14.513,13.833-14.513,25.754v1.534
			c0,3.748,0.682,7.733,2.045,11.957c4.837,10.563,12.229,15.843,22.178,15.843h2.045c4.156,0,8.142-1.021,11.957-3.066
			c8.516-5.52,12.775-14.104,12.775-25.755C1629.827,3157.865,1629.419,3154.626,1628.603,3150.267z"/>
		<path fill="#FFFFFF" d="M1687.88,3110.1h2.043l22.588,68.681l28.923-68.681h30.661l-61.936,144.822l-27.391-12.265l17.17-42.006
			l-12.16-5.518l-28.926-85.238C1677.251,3110.033,1686.925,3110.1,1687.88,3110.1z"/>
		<path fill="#FFFFFF" d="M1811.136,3112.349c6.746-4.292,14.477-6.439,23.201-6.439h1.021c11.378,0,21.667,2.556,30.865,7.665
			c16.283,10.768,24.427,26.233,24.427,46.401c0,12.402-3.066,23.199-9.198,32.398c-10.493,14.785-25.959,22.177-46.4,22.177
			c-13.899,0-25.518-3.305-34.852-9.914c-13.969-10.629-20.951-25.003-20.951-43.129v-93.516h31.887V3112.349z M1859.07,3150.267
			c-4.227-12.536-12.404-18.807-24.529-18.807c-3.066,0-6.644,0.751-10.731,2.249c-9.675,5.247-14.514,13.833-14.514,25.754v1.534
			c0,3.748,0.681,7.733,2.045,11.957c4.836,10.563,12.229,15.843,22.177,15.843h2.045c4.154,0,8.14-1.021,11.957-3.066
			c8.519-5.52,12.776-14.104,12.776-25.755C1860.296,3157.865,1859.888,3154.626,1859.07,3150.267z"/>
		<path fill="#FFFFFF" d="M1926.83,3110.1h2.045l-0.204,50.796c0,5.451,1.804,11.31,5.415,17.578
			c5.247,6.609,11.821,9.914,19.726,9.914h2.045c10.152,0,17.682-5.35,22.586-16.046c1.364-4.358,2.045-8.446,2.045-12.264V3110.1
			h30.56v50.592c0,18.396-7.088,32.977-21.26,43.741c-9.54,6.746-21.36,10.118-35.464,10.118c-20.784,0-36.522-7.526-47.217-22.586
			c-6.201-9.335-9.302-20.302-9.302-32.91v-49.159C1916.267,3110.033,1925.944,3110.1,1926.83,3110.1z"/>
		<path fill="#FFFFFF" d="M2097.714,3067.992h31.887v93.516c0,18.126-6.984,32.5-20.951,43.129
			c-9.334,6.609-20.952,9.914-34.85,9.914c-20.441,0-35.909-7.392-46.401-22.177c-6.131-9.199-9.197-19.996-9.197-32.398
			c0-20.168,8.14-35.634,24.427-46.401c9.197-5.109,19.485-7.665,30.865-7.665h1.021c8.721,0,16.453,2.147,23.199,6.439V3067.992z
			 M2048.554,3159.976c0,11.65,4.258,20.235,12.776,25.755c3.815,2.045,7.801,3.066,11.959,3.066h2.043
			c9.948,0,17.341-5.279,22.177-15.843c1.364-4.224,2.045-8.209,2.045-11.957v-1.534c0-11.921-4.838-20.507-14.512-25.754
			c-4.09-1.498-7.665-2.249-10.731-2.249c-12.129,0-20.305,6.271-24.528,18.807
			C2048.965,3154.626,2048.554,3157.865,2048.554,3159.976z"/>
		<path fill="#FFFFFF" d="M2216.271,3067.992h31.89v93.516c0,18.126-6.988,32.5-20.952,43.129
			c-9.337,6.609-20.952,9.914-34.854,9.914c-20.44,0-35.911-7.392-46.401-22.177c-6.131-9.199-9.197-19.996-9.197-32.398
			c0-20.168,8.137-35.634,24.427-46.401c9.196-5.109,19.483-7.665,30.865-7.665h1.021c8.723,0,16.456,2.147,23.201,6.439V3067.992z
			 M2167.109,3159.976c0,11.65,4.256,20.235,12.776,25.755c3.815,2.045,7.801,3.066,11.959,3.066h2.043
			c9.948,0,17.34-5.279,22.18-15.843c1.361-4.224,2.043-8.209,2.043-11.957v-1.534c0-11.921-4.84-20.507-14.513-25.754
			c-4.088-1.498-7.665-2.249-10.731-2.249c-12.129,0-20.305,6.271-24.529,18.807
			C2167.521,3154.626,2167.109,3157.865,2167.109,3159.976z"/>
		<path fill="#FFFFFF" d="M2284.34,3110.1h2.043l22.59,68.681l28.923-68.681h30.659l-61.936,144.822l-27.391-12.265l17.173-42.006
			l-12.164-5.518l-28.923-85.238C2273.708,3110.033,2283.382,3110.1,2284.34,3110.1z"/>
	</g>
</g>
<path fill="#FFFFFF" d="M714.71,3304.587c0,8.662-7.021,15.685-15.686,15.685H309.644c-8.664,0-15.686-7.022-15.686-15.685v-389.382
	c0-8.662,7.021-15.686,15.686-15.686h389.381c8.664,0,15.686,7.023,15.686,15.686V3304.587z"/>
<path fill="#37ABE9" d="M642.862,3095.211c-1.006,0-2,0.053-2.98,0.153c-10.43-49.48-47.266-89.23-95.077-103.813
	c-0.516-0.922-1.054-1.834-1.589-3.83c-2.725-11.934-10.685-21.883-21.299-27.854c-11.277-5.309-25.207-2.654-33.168,7.295
	c-5.971,7.298-6.633,16.584-1.327,24.547c5.308,6.633,16.585,9.286,21.893,1.324c3.316-4.644,0-11.938-5.97-11.938
	c-3.318,0-4.645,3.316-5.971,5.308c-2.654,3.314-5.309-2.656-5.309-5.308c0-3.319,0.664-7.298,3.318-9.951
	c7.961-8.624,21.227-6.633,28.523,1.989c9.951,12.605,2.654,29.854-11.276,35.822c-15.257,5.971-31.179-3.315-39.546-15.355
	c-1.996-3.025-3.257-3.218-4.441-2.92c-11.832,2.98-23.42,7.405-34.227,13.777c-10.261,6.011-19.68,13.306-28.035,21.665
	c-18.618,18.616-31.954,42.51-37.59,69.242c-0.981-0.101-1.978-0.153-2.986-0.153c-15.938,0-28.86,12.926-28.86,28.863
	c0,15.938,12.923,28.863,28.86,28.863c1.009,0,2.005-0.053,2.986-0.153c13.223,62.729,68.881,109.819,135.543,109.819
	s122.32-47.091,135.541-109.819c0.982,0.101,1.979,0.153,2.986,0.153c15.939,0,28.859-12.925,28.859-28.863
	C671.722,3108.137,658.802,3095.211,642.862,3095.211z"/>
<path fill="#FFFFFF" d="M522.433,3124.369c-0.948-6.347-5.07-11.646-10.712-14.235l-3.097-72.083h-9.387l-3.096,72.083
	c-2.121,0.973-4.03,2.322-5.639,3.976l-14.695-4.723l-5.238,19.085l15.283,3.499c1.308,4.904,4.542,9.016,8.859,11.467
	l-0.675,15.708h19.79l-0.674-15.709c1.881-1.069,3.557-2.451,4.961-4.08l71.66,16.404l2.039-9.098L522.433,3124.369z"/>
<g>
	<ellipse fill="#FFFFFF" cx="454.229" cy="3076.728" rx="23.249" ry="31.998"/>
	<path fill="#37ABE9" d="M455.979,3067.189c0,6.369-3.755,11.536-8.383,11.536c-4.631,0-8.383-5.167-8.383-11.536
		c0-6.375,3.752-11.54,8.383-11.54C452.225,3055.649,455.979,3060.814,455.979,3067.189z"/>
	<ellipse fill="#FFFFFF" cx="554.44" cy="3076.728" rx="23.249" ry="31.998"/>
	<path fill="#37ABE9" d="M556.19,3067.189c0,6.369-3.755,11.536-8.383,11.536c-4.631,0-8.383-5.167-8.383-11.536
		c0-6.375,3.752-11.54,8.383-11.54C552.436,3055.649,556.19,3060.814,556.19,3067.189z"/>
</g>
<path fill="#FFFFFF" d="M455.979,2376.458c0,6.369-3.755,11.536-8.383,11.536c-4.631,0-8.383-5.167-8.383-11.536
	c0-6.375,3.752-11.54,8.383-11.54C452.224,2364.918,455.979,2370.083,455.979,2376.458z"/>
<path fill="#FFFFFF" d="M556.19,2376.458c0,6.369-3.755,11.536-8.383,11.536c-4.631,0-8.383-5.167-8.383-11.536
	c0-6.375,3.752-11.54,8.383-11.54C552.435,2364.918,556.19,2370.083,556.19,2376.458z"/>
<path fill="#FFFFFF" d="M1039.383,2376.458c0,6.369-3.755,11.536-8.383,11.536c-4.631,0-8.383-5.167-8.383-11.536
	c0-6.375,3.752-11.54,8.383-11.54C1035.628,2364.918,1039.383,2370.083,1039.383,2376.458z"/>
<path fill="#FFFFFF" d="M1139.594,2376.458c0,6.369-3.755,11.536-8.383,11.536c-4.631,0-8.383-5.167-8.383-11.536
	c0-6.375,3.752-11.54,8.383-11.54C1135.839,2364.918,1139.594,2370.083,1139.594,2376.458z"/>
<path fill="#FFFFFF" d="M504.335,3211.453c20.879,0,37.807-16.18,37.807-36.142h-75.613
	C466.528,3195.273,483.454,3211.453,504.335,3211.453z"/>
<g>
	<path fill="#FFFFFF" d="M1288.71,3304.587c0,8.662-7.021,15.685-15.686,15.685H883.644c-8.664,0-15.686-7.022-15.686-15.685
		v-389.382c0-8.662,7.021-15.686,15.686-15.686h389.381c8.664,0,15.686,7.023,15.686,15.686V3304.587z"/>
	<path fill="#37ABE9" d="M1216.862,3095.211c-1.006,0-2,0.053-2.98,0.153c-10.43-49.48-47.266-89.23-95.077-103.813
		c-0.516-0.922-1.054-1.834-1.589-3.83c-2.725-11.934-10.685-21.883-21.299-27.854c-11.277-5.309-25.207-2.654-33.168,7.295
		c-5.971,7.298-6.633,16.584-1.327,24.547c5.308,6.633,16.585,9.286,21.893,1.324c3.316-4.644,0-11.938-5.97-11.938
		c-3.318,0-4.645,3.316-5.971,5.308c-2.654,3.314-5.309-2.656-5.309-5.308c0-3.319,0.664-7.298,3.318-9.951
		c7.961-8.624,21.227-6.633,28.523,1.989c9.951,12.605,2.654,29.854-11.276,35.822c-15.257,5.971-31.179-3.315-39.546-15.355
		c-1.996-3.025-3.257-3.218-4.441-2.92c-11.832,2.98-23.42,7.405-34.227,13.777c-10.261,6.011-19.68,13.306-28.035,21.665
		c-18.618,18.616-31.954,42.51-37.59,69.242c-0.981-0.101-1.978-0.153-2.986-0.153c-15.938,0-28.86,12.926-28.86,28.863
		c0,15.938,12.923,28.863,28.86,28.863c1.009,0,2.005-0.053,2.986-0.153c13.223,62.729,68.881,109.819,135.543,109.819
		s122.32-47.091,135.541-109.819c0.982,0.101,1.979,0.153,2.986,0.153c15.939,0,28.859-12.925,28.859-28.863
		C1245.722,3108.137,1232.802,3095.211,1216.862,3095.211z"/>
	<path fill="#FFFFFF" d="M1096.433,3124.369c-0.948-6.347-5.07-11.646-10.712-14.235l-3.097-72.083h-9.387l-3.096,72.083
		c-2.121,0.973-4.03,2.322-5.639,3.976l-14.695-4.723l-5.238,19.085l15.283,3.499c1.308,4.904,4.542,9.016,8.859,11.467
		l-0.675,15.708h19.79l-0.674-15.709c1.881-1.069,3.557-2.451,4.961-4.08l71.66,16.404l2.039-9.098L1096.433,3124.369z"/>
	<ellipse fill="#FFFFFF" cx="1028.229" cy="3076.728" rx="23.249" ry="31.998"/>
	<path fill="#37ABE9" d="M1029.979,3067.189c0,6.369-3.755,11.536-8.383,11.536c-4.631,0-8.383-5.167-8.383-11.536
		c0-6.375,3.752-11.54,8.383-11.54C1026.225,3055.649,1029.979,3060.814,1029.979,3067.189z"/>
	<ellipse fill="#FFFFFF" cx="1128.44" cy="3076.728" rx="23.249" ry="31.998"/>
	<path fill="#37ABE9" d="M1130.19,3067.189c0,6.369-3.755,11.536-8.383,11.536c-4.631,0-8.383-5.167-8.383-11.536
		c0-6.375,3.752-11.54,8.383-11.54C1126.436,3055.649,1130.19,3060.814,1130.19,3067.189z"/>
	<path fill="#FFFFFF" d="M1078.335,3211.453c20.879,0,37.807-16.18,37.807-36.142h-75.613
		C1040.528,3195.273,1057.454,3211.453,1078.335,3211.453z"/>
</g>
</svg>