<?xml version="1.0" encoding="utf-8"?>
<svg viewBox="910.945 2957.187 334.775 305.416" width="334.775" height="305.416" xmlns="http://www.w3.org/2000/svg">
  <g>
    <path fill="#37ABE9" d="M1216.862,3095.211c-1.006,0-2,0.053-2.98,0.153c-10.43-49.48-47.266-89.23-95.077-103.813 c-0.516-0.922-1.054-1.834-1.589-3.83c-2.725-11.934-10.685-21.883-21.299-27.854c-11.277-5.309-25.207-2.654-33.168,7.295 c-5.971,7.298-6.633,16.584-1.327,24.547c5.308,6.633,16.585,9.286,21.893,1.324c3.316-4.644,0-11.938-5.97-11.938 c-3.318,0-4.645,3.316-5.971,5.308c-2.654,3.314-5.309-2.656-5.309-5.308c0-3.319,0.664-7.298,3.318-9.951 c7.961-8.624,21.227-6.633,28.523,1.989c9.951,12.605,2.654,29.854-11.276,35.822c-15.257,5.971-31.179-3.315-39.546-15.355 c-1.996-3.025-3.257-3.218-4.441-2.92c-11.832,2.98-23.42,7.405-34.227,13.777c-10.261,6.011-19.68,13.306-28.035,21.665 c-18.618,18.616-31.954,42.51-37.59,69.242c-0.981-0.101-1.978-0.153-2.986-0.153c-15.938,0-28.86,12.926-28.86,28.863 c0,15.938,12.923,28.863,28.86,28.863c1.009,0,2.005-0.053,2.986-0.153c13.223,62.729,68.881,109.819,135.543,109.819 s122.32-47.091,135.541-109.819c0.982,0.101,1.979,0.153,2.986,0.153c15.939,0,28.859-12.925,28.859-28.863 C1245.722,3108.137,1232.802,3095.211,1216.862,3095.211z"/>
    <path fill="#FFFFFF" d="M1096.433,3124.369c-0.948-6.347-5.07-11.646-10.712-14.235l-3.097-72.083h-9.387l-3.096,72.083 c-2.121,0.973-4.03,2.322-5.639,3.976l-14.695-4.723l-5.238,19.085l15.283,3.499c1.308,4.904,4.542,9.016,8.859,11.467 l-0.675,15.708h19.79l-0.674-15.709c1.881-1.069,3.557-2.451,4.961-4.08l71.66,16.404l2.039-9.098L1096.433,3124.369z"/>
    <ellipse fill="#FFFFFF" cx="1028.229" cy="3076.728" rx="23.249" ry="31.998"/>
    <path fill="#37ABE9" d="M1029.979,3067.189c0,6.369-3.755,11.536-8.383,11.536c-4.631,0-8.383-5.167-8.383-11.536 c0-6.375,3.752-11.54,8.383-11.54C1026.225,3055.649,1029.979,3060.814,1029.979,3067.189z"/>
    <ellipse fill="#FFFFFF" cx="1128.44" cy="3076.728" rx="23.249" ry="31.998"/>
    <path fill="#37ABE9" d="M1130.19,3067.189c0,6.369-3.755,11.536-8.383,11.536c-4.631,0-8.383-5.167-8.383-11.536 c0-6.375,3.752-11.54,8.383-11.54C1126.436,3055.649,1130.19,3060.814,1130.19,3067.189z"/>
    <path fill="#FFFFFF" d="M1078.335,3211.453c20.879,0,37.807-16.18,37.807-36.142h-75.613 C1040.528,3195.273,1057.454,3211.453,1078.335,3211.453z"/>
  </g>
</svg>