<?xml version="1.0" ?>
<!-- Uploaded to: SVG Repo, www.svgrepo.com, Generator: SVG Repo Mixer Tools -->
<svg fill="#000000" width="800px" height="800px" viewBox="0 0 64 64" xmlns="http://www.w3.org/2000/svg">
<title/>
<g id="Outline">
<path d="M54.65,27h-.1c-2.14-5.93-7.31-10.83-14.2-13.09a6.52,6.52,0,0,0-5.51-3.67,6.09,6.09,0,0,0-5.7,2.5c-9.45,1-17,6.69-19.7,14.26H9.35C6.4,27,4,29.76,4,33.15S6.4,39.3,9.35,39.3h.07c3,8.38,12,14.49,22.58,14.49s19.59-6.11,22.58-14.49h.07c3,0,5.35-2.76,5.35-6.15S57.6,27,54.65,27Zm-20-14.76a4.49,4.49,0,0,1,4,2.79,3.77,3.77,0,0,1,.18,1.17c0,2-.59,3.4-1.8,4.21-2.52,1.69-7.36.65-10.19-.26a16.43,16.43,0,0,0,3.49-5.38,3.73,3.73,0,0,1,.26-.61A4,4,0,0,1,34.66,12.24ZM6,33.15a4,4,0,0,1,2.83-4.09,18.72,18.72,0,0,0-.48,4.12,18.25,18.25,0,0,0,.47,4.06A4,4,0,0,1,6,33.15ZM32,51.78c-11.94,0-21.65-8.35-21.65-18.6,0-9.1,7.54-16.73,17.79-18.3l-.09.18a1.24,1.24,0,0,1-.1.2c-.05.11-.11.21-.16.31l-.11.19-.19.32-.1.16-.27.4,0,.06-.33.46-.06.07-.27.36-.11.12a3.2,3.2,0,0,1-.22.27l-.12.15-.2.22-.13.15-.17.19-.12.13-.16.17-.11.12a1.85,1.85,0,0,0-.14.14l-.1.1-.11.11-.09.08-.09.09-.05.05-.07.06,0,0,0,0a1,1,0,0,0-.31.91,1,1,0,0,0,.6.76l.13.05.07,0,.25.1.06,0,.44.16.12,0,.45.15.15.05.67.21.13,0,.64.17.22.06.84.21h0l.86.17L30,23l.81.13.16,0c.31.05.63.08.95.11h.25c.26,0,.52,0,.79,0h.62l.86,0,.43-.05.77-.13L36,23a6.7,6.7,0,0,0,.76-.24l.35-.13a5.75,5.75,0,0,0,3.32-3.68s0,0,0-.05a6.52,6.52,0,0,0,.2-.79c0-.12,0-.25,0-.37s.06-.35.08-.54,0-.32,0-.48,0-.33,0-.5c7.72,3,12.81,9.63,12.81,17C53.65,43.43,43.94,51.78,32,51.78ZM55.18,37.24a17.49,17.49,0,0,0,0-8.18A4,4,0,0,1,58,33.15,4,4,0,0,1,55.18,37.24Z"/>
<path d="M23.29,27.39a3.86,3.86,0,0,0-3.61,4.05,1,1,0,0,0,2,0,1.87,1.87,0,0,1,1.61-2.05,1.87,1.87,0,0,1,1.61,2.05,1,1,0,1,0,2,0A3.86,3.86,0,0,0,23.29,27.39Z"/>
<path d="M39.84,27.39a3.86,3.86,0,0,0-3.61,4.05,1,1,0,1,0,2,0,1.87,1.87,0,0,1,1.61-2.05,1.87,1.87,0,0,1,1.61,2.05,1,1,0,1,0,2,0A3.86,3.86,0,0,0,39.84,27.39Z"/>
<path d="M36.35,38.71a1,1,0,0,0-1,1,3.35,3.35,0,1,1-6.7,0,1,1,0,0,0-2,0,5.35,5.35,0,1,0,10.7,0A1,1,0,0,0,36.35,38.71Z"/>
</g>
</svg>