<?xml version="1.0" encoding="iso-8859-1"?>
<!-- Uploaded to: SVG Repo, www.svgrepo.com, Generator: SVG Repo Mixer Tools -->
<svg fill="#000000" height="800px" width="800px" version="1.1" id="Layer_1" xmlns="http://www.w3.org/2000/svg" xmlns:xlink="http://www.w3.org/1999/xlink" 
	 viewBox="0 0 512 512" xml:space="preserve">
<g>
	<g>
		<path d="M502.702,41.363c-5.135,0-9.298,4.163-9.298,9.298v35.332H18.596V50.661c0-5.135-4.163-9.298-9.298-9.298
			C4.163,41.363,0,45.526,0,50.661v339.68c0,5.135,4.163,9.298,9.298,9.298h37.811v61.7c0,5.135,4.163,9.298,9.298,9.298H86.16
			c5.135,0,9.298-4.163,9.298-9.298v-61.7h321.085v61.7c0,5.135,4.163,9.298,9.298,9.298h29.753c5.135,0,9.298-4.163,9.298-9.298
			v-61.7h37.811c5.135,0,9.298-4.163,9.298-9.298V50.661C512,45.526,507.837,41.363,502.702,41.363z M18.596,151.697h28.513v182.237
			H18.596V151.697z M76.862,452.042H65.705v-52.403h11.157V452.042z M446.295,452.042h-11.157v-52.403h11.157V452.042z
			 M493.404,381.043H18.596V352.53h474.809V381.043z M65.705,333.934V151.697h11.157v182.237H65.705z M95.458,333.934V151.697h44.01
			v182.237H95.458z M158.063,333.934V151.697h11.157v182.237H158.063z M187.816,333.934V151.697h44.01v182.237H187.816z
			 M250.421,333.934V151.697h11.157v182.237H250.421z M280.174,333.934V151.697h44.01v182.237H280.174z M342.78,333.934V151.697
			h11.157v182.237H342.78z M372.533,333.934V151.697h44.01v182.237H372.533z M435.138,333.934V151.697h11.157v182.237H435.138z
			 M493.404,333.934h-28.513V151.697h28.513V333.934z M493.404,133.101H18.596v-28.513h474.809V133.101z"/>
	</g>
</g>
</svg>