<?xml version="1.0" encoding="iso-8859-1"?>
<!-- Uploaded to: SVG Repo, www.svgrepo.com, Generator: SVG Repo Mixer Tools -->
<svg fill="#000000" height="800px" width="800px" version="1.1" id="Layer_1" xmlns="http://www.w3.org/2000/svg" xmlns:xlink="http://www.w3.org/1999/xlink" 
	 viewBox="0 0 512.001 512.001" xml:space="preserve">
<g>
	<g>
		<path d="M501.801,171.851h-5.366V50.993c0-5.633-4.566-10.199-10.199-10.199H25.764c-5.633,0-10.199,4.566-10.199,10.199v120.858
			h-5.366C4.566,171.851,0,176.417,0,182.05v62.674c0,5.633,4.566,10.199,10.199,10.199h5.366v29.322
			c0,103.092,83.865,186.963,186.95,186.963h106.971c103.084,0,186.95-83.872,186.95-186.963v-29.322h5.366
			c5.633,0,10.199-4.566,10.199-10.199V182.05C512,176.417,507.434,171.851,501.801,171.851z M35.963,61.192h440.073v73.747H35.963
			V61.192z M20.398,192.249H69.62c4.251,0,7.709,3.458,7.709,7.709v26.858c0,4.251-3.458,7.709-7.709,7.709H20.398V192.249z
			 M36.307,294.788c83.461,5.241,150.438,72.218,155.676,155.68C108.523,445.232,41.547,378.253,36.307,294.788z M299.557,450.81
			h-87.115c-1.213-22.461-6.413-43.878-14.896-63.561c16.665-12.981,37.182-20.085,58.461-20.085
			c21.282,0,41.793,7.104,58.447,20.083C305.971,406.931,300.771,428.348,299.557,450.81z M320.017,450.468
			c5.238-83.462,72.215-150.439,155.676-155.68C470.454,378.253,403.478,445.232,320.017,450.468z M476.038,274.327h-0.001
			c-65.25,3.526-121.706,40.662-152.328,94.359c-19.612-14.194-43.241-21.92-67.701-21.92c-24.459,0-48.092,7.727-67.714,21.923
			c-30.622-53.699-87.078-90.836-152.329-94.362v-19.404h33.657c15.499,0,28.107-12.609,28.107-28.107v-26.858
			c0-15.498-12.609-28.107-28.107-28.107H35.965v-16.513h440.073v16.513h-33.657c-15.499,0-28.107,12.609-28.107,28.107v26.858
			c0,15.499,12.609,28.107,28.107,28.107h33.657V274.327z M491.602,234.525H442.38c-4.251,0-7.709-3.458-7.709-7.709v-26.858
			c0-4.251,3.458-7.709,7.709-7.709h49.222V234.525z"/>
	</g>
</g>
</svg>