<?xml version="1.0" encoding="iso-8859-1"?>
<!-- Uploaded to: SVG Repo, www.svgrepo.com, Generator: SVG Repo Mixer Tools -->
<svg fill="#000000" height="800px" width="800px" version="1.1" id="Layer_1" xmlns="http://www.w3.org/2000/svg" xmlns:xlink="http://www.w3.org/1999/xlink" 
	 viewBox="0 0 511.999 511.999" xml:space="preserve">
<g>
	<g>
		<path d="M344.348,198.343V143.02c0-4.651-3.77-8.421-8.421-8.421h-19.036c-3.271-6.669-7.588-12.732-12.913-18.058
			c-5.113-5.113-10.978-9.356-17.432-12.609c-2.339-1.179-3.793-3.531-3.793-6.139c0-9.087,2.955-17.751,8.317-24.389
			c6.461-7.981,10.019-18.035,10.019-28.312c0-12.368-4.909-23.904-13.82-32.484c-8.913-8.579-20.645-13.05-33.036-12.573
			c-22.904,0.883-41.896,19.483-43.235,42.341c-0.65,10.983,2.704,21.786,9.44,30.413c5.767,7.393,8.814,15.955,8.814,24.761v0.23
			c0,2.581-1.395,4.947-3.551,6.025c-13.383,6.688-24.072,17.501-30.596,30.794h-19.029c-4.651,0-8.421,3.77-8.421,8.421v55.322
			c-16.151,2.825-28.47,16.941-28.47,33.888v245.357c0,18.975,15.437,34.412,34.413,34.412h164.808
			c18.975,0,34.413-15.437,34.413-34.412V232.231C372.817,215.283,360.499,201.168,344.348,198.343z M233.228,118.87
			c7.815-3.906,12.864-12.185,12.864-21.091v-0.23c0-12.415-4.396-24.888-12.379-35.123c-4.215-5.4-6.312-12.167-5.905-19.062
			c0.839-14.308,12.729-25.949,27.066-26.501c7.772-0.296,15.129,2.502,20.711,7.876c5.584,5.375,8.659,12.602,8.659,20.351
			c0,6.526-2.167,12.652-6.273,17.723c-7.779,9.631-12.062,22.054-12.062,34.978c0,9.005,5.002,17.119,13.054,21.178
			c4.852,2.445,9.261,5.635,13.104,9.479c1.926,1.926,3.678,3.977,5.254,6.145h-82.644
			C219.457,127.994,225.791,122.588,233.228,118.87z M184.494,151.441h143.011v46.377H184.494V151.441z M338.405,495.158H173.596
			c-9.689,0-17.571-7.882-17.571-17.571V232.231c0-9.689,7.883-17.571,17.571-17.571h164.808c9.689,0,17.571,7.882,17.571,17.571
			v245.356h0C355.975,487.276,348.092,495.158,338.405,495.158z"/>
	</g>
</g>
<g>
	<g>
		<path d="M337.058,348.144c-8.745-0.758-13.704-3.263-19.446-6.163c-7.616-3.847-16.248-8.207-32.704-8.207
			c-16.462,0-25.094,4.361-32.709,8.209c-6.796,3.433-12.665,6.399-25.115,6.399c-12.445,0-18.315-2.965-25.111-6.399
			c-6.374-3.22-13.598-6.87-25.575-7.908c-2.348-0.204-4.679,0.588-6.419,2.184c-1.739,1.594-2.729,3.847-2.729,6.206v133.04
			c0,4.651,3.77,8.421,8.421,8.421h160.661c4.651,0,8.421-3.77,8.421-8.421V356.533
			C344.753,352.164,341.411,348.521,337.058,348.144z M327.911,467.084H184.092V352.571c3.782,1.158,6.897,2.732,10.286,4.444
			c7.616,3.848,16.248,8.209,32.706,8.209c16.462,0,25.094-4.361,32.709-8.209c6.795-3.434,12.665-6.399,25.115-6.399
			c12.444,0,18.314,2.965,25.11,6.398c4.882,2.466,10.261,5.183,17.893,6.787V467.084z"/>
	</g>
</g>
<g>
	<g>
		<path d="M251.789,239.733h-44.12c-4.651,0-8.421,3.77-8.421,8.421s3.77,8.421,8.421,8.421h44.12c4.651,0,8.421-3.77,8.421-8.421
			S256.44,239.733,251.789,239.733z"/>
	</g>
</g>
<g>
	<g>
		<path d="M251.789,291.941h-44.12c-4.651,0-8.421,3.77-8.421,8.421s3.77,8.421,8.421,8.421h44.12c4.651,0,8.421-3.77,8.421-8.421
			S256.44,291.941,251.789,291.941z"/>
	</g>
</g>
<g>
	<g>
		<path d="M251.79,396.355h-44.12c-4.651,0-8.421,3.77-8.421,8.421s3.77,8.421,8.421,8.421h44.12c4.651,0,8.421-3.77,8.421-8.421
			S256.441,396.355,251.79,396.355z"/>
	</g>
</g>
<g>
	<g>
		<path d="M336.332,243.601c-4.651,0-8.421,3.77-8.421,8.421v71.859c0,4.651,3.77,8.421,8.421,8.421c4.651,0,8.421-3.77,8.421-8.421
			v-71.859C344.753,247.372,340.983,243.601,336.332,243.601z"/>
	</g>
</g>
</svg>