<?xml version="1.0" encoding="utf-8"?>

<!-- Uploaded to: SVG Repo, www.svgrepo.com, Generator: SVG Repo Mixer Tools -->
<svg version="1.1" id="Icons" xmlns="http://www.w3.org/2000/svg" xmlns:xlink="http://www.w3.org/1999/xlink" 
	 viewBox="0 0 32 32" xml:space="preserve">
<style type="text/css">
	.st0{fill:none;stroke:#000000;stroke-width:2;stroke-linecap:round;stroke-linejoin:round;stroke-miterlimit:10;}
</style>
<path class="st0" d="M22,6.5C22,4.6,20.4,3,18.5,3S15,4.6,15,6.5C15,5.7,14.3,5,13.5,5S12,5.7,12,6.5V8v3v1c0,2.2,1.8,4,4,4
	s4-1.8,4-4V9h2V6.5z"/>
<path class="st0" d="M14,15.5v1c0,1.5-0.8,2.9-2.2,3.6l-2,1c-1.1,0.6-1.9,1.7-2.1,3L7,29"/>
<line class="st0" x1="18" y1="25" x2="21" y2="25"/>
<path class="st0" d="M25,29l-0.7-5c-0.2-1.3-1-2.4-2.1-3L18,18.9L16,20l-2.5-1.7"/>
</svg>