<?xml version="1.0" encoding="iso-8859-1"?>
<!-- Uploaded to: SVG Repo, www.svgrepo.com, Generator: SVG Repo Mixer Tools -->
<svg fill="#000000" height="800px" width="800px" version="1.1" id="Layer_1" xmlns="http://www.w3.org/2000/svg" xmlns:xlink="http://www.w3.org/1999/xlink" 
	 viewBox="0 0 178.5 178.5" xml:space="preserve">
<g>
	<g>
		<path d="M124.251,161V96.274c0-5.457-2.784-10.27-7-13.104V21h17.51c4.551,0,8.397-2.935,9.845-7h14.644V7h-14.644
			c-1.448-4.065-5.294-7-9.846-7H82.241c-4.551,0-8.397,2.935-9.845,7H57.752v7h14.644c1.448,4.065,5.294,7,9.845,7h17.51v62.17
			c-3.716,2.497-6.244,6.552-6.809,11.211c-3.994-1.362-9.883-2.362-16.321-0.079c-10.425,3.715-18.491,14.622-23.967,32.419
			c-4.997,16.239-12.329,27.108-21.202,31.435c-7.783,3.798-14.157,1.436-14.403,1.343c-1.777-0.721-3.831,0.15-4.549,1.952
			c-0.718,1.794,0.157,3.831,1.952,4.549c0.215,0.085,3.319,1.292,7.957,1.292c3.339,0,7.475-0.625,11.901-2.741
			c10.914-5.216,19.339-17.254,25.037-35.772c4.706-15.295,11.464-24.927,19.54-27.853c5.962-2.154,11.315-0.309,13.863,0.9v60.9
			c0,8.699,7.065,15.774,15.75,15.774c6.83,0,12.599-4.401,14.778-10.5h42.972l0.001-7H124.251z M82.242,14
			c-1.925,0-3.491-1.569-3.491-3.5c0-1.931,1.566-3.5,3.49-3.5h52.521c1.924,0,3.49,1.569,3.49,3.5c0,1.931-1.566,3.5-3.49,3.5
			h-21.01h-10.5H82.242z M110.251,21v59.5h-3.5V21H110.251z M117.251,162.726c0,4.836-3.924,8.774-8.75,8.774
			s-8.75-3.938-8.75-8.774V96.274c0-4.836,3.924-8.774,8.75-8.774s8.75,3.938,8.75,8.774V162.726z"/>
	</g>
</g>
</svg>