<?xml version="1.0" encoding="utf-8"?><!-- Uploaded to: SVG Repo, www.svgrepo.com, Generator: SVG Repo Mixer Tools -->
<svg width="800px" height="800px" viewBox="0 0 48 48" fill="none" xmlns="http://www.w3.org/2000/svg">
<path d="M41 18.1026C41 20.979 38.6683 23.3106 35.7919 23.3106C32.9157 23.3106 30.5839 20.9789 30.5839 18.1026C30.5839 15.2263 32.9157 12.8945 35.7919 12.8945C38.6683 12.8945 41 15.2263 41 18.1026Z" stroke="#333333" stroke-width="2"/>
<path d="M36.1346 30.6042L36.4275 30.8976H36.8421H38.896C39.4541 30.8976 39.9892 31.1193 40.3837 31.5139C40.7783 31.9084 41 32.4436 41 33.0016C41 33.5596 40.7783 34.0948 40.3837 34.4894C39.9892 34.884 39.4541 35.1056 38.896 35.1056H35.8385C35.8306 35.1047 35.8218 35.1037 35.8126 35.1028C35.7817 35.0998 35.739 35.0966 35.6884 35.0966H35.6754L35.6624 35.097C35.3806 35.1043 35.1002 35.0532 34.839 34.9468C34.5777 34.8402 34.3413 34.6809 34.1448 34.4786L34.1448 34.4786L34.1352 34.4689L33.1781 33.5103L32.4581 32.7891L31.7506 33.5226C31.2686 34.0224 30.6908 34.4201 30.0519 34.6921C29.4131 34.964 28.7262 35.1045 28.0318 35.1056C28.0316 35.1056 28.0314 35.1056 28.0312 35.1056L23.3969 35.1056L22.8759 24.6896H28.3477V24.6896L28.3534 24.6895C29.2022 24.6847 30.0379 24.8971 30.7815 25.3066C31.5248 25.7162 32.1509 26.3091 32.6003 27.029L32.6605 27.1256L32.741 27.2062L36.1346 30.6042Z" stroke="#333333" stroke-width="2"/>
<path d="M16.5158 27.5006L16.6306 27.3857C16.7962 27.2443 16.9831 27.1296 17.1848 27.0461L17.1851 27.0459C17.4369 26.9416 17.7067 26.8879 17.9795 26.8879C18.2523 26.8879 18.5223 26.9416 18.7741 27.0459L18.7744 27.0461C19.026 27.1503 19.2548 27.3032 19.4478 27.4961C19.6406 27.6889 19.7936 27.9179 19.8978 28.1696L19.8979 28.1699C20.0022 28.4217 20.0559 28.6916 20.0559 28.9644C20.0559 29.2372 20.0022 29.5072 19.898 29.7587L19.8978 29.7591C19.7936 30.0109 19.6406 30.2398 19.4478 30.4326L19.4476 30.4327L15.4135 34.4684L15.4134 34.4684L15.404 34.478C15.207 34.6804 14.9706 34.8398 14.7095 34.9461L14.7091 34.9462C14.4479 35.0527 14.1673 35.104 13.8852 35.0969L13.7492 35.0934L13.7007 35.1056H9.10402C8.54605 35.1056 8.01082 34.8839 7.61626 34.4893C7.2217 34.0947 7 33.5595 7 33.0015C7 32.4436 7.2217 31.9083 7.61626 31.5138C8.01082 31.1192 8.54605 30.8975 9.10402 30.8975H12.7046H13.1188L13.4117 30.6046L16.5158 27.5006Z" stroke="#333333" stroke-width="2"/>
</svg>