<svg version="1" xmlns="http://www.w3.org/2000/svg" width="3432" height="3432" viewBox="0 0 2574.000000 2574.000000"><path d="M1361 70.7c-1.9 1.1-8.6 1.4-30 1.3-31.6-.1-35.6.3-48.5 5-5.7 2-9.4 3-11.8 3-1.4 0-2.8.4-3.1.9-.7 1.1-5.5 2-16.3 3-5.2.4-8.9 1.3-10 2.3-1.4 1.2-4.8 1.7-14.3 2.1-24.6.9-33.2 2.5-44.3 8.2-1.6.8-3.6 1.5-4.5 1.5-.9 0-2.8.9-4.2 2-1.4 1.1-3.2 2-4 2-1.9 0-8.7 2.4-9.6 3.3-.4.4-2.8.7-5.4.7-2.6 0-6.3.9-8.5 2-4.3 2.2-18.2 2.9-20.1 1-.7-.7-2.5-.4-5.8 1-2.6 1.1-5.6 2-6.7 2-2.4 0-6 2-7.7 4.2-.7 1-2.6 1.8-4.2 1.8s-4.5.9-6.5 2-4.6 2-6 2c-1.3 0-2.7.4-3 1-.3.5-1.3 1-2.1 1s-4.4 1.3-7.9 3c-5.1 2.4-7.8 3-12.9 3-3.6 0-6.8.4-7.1 1-.3.5-1.4 1-2.4 1-.9 0-3.6.9-5.9 2-2.2 1.1-4.7 2-5.4 2-.7 0-2.4.9-3.8 2s-3.5 2-4.7 2c-1.2 0-2.5.4-2.8 1-.3.5-1.7 1-2.9 1-1.3 0-2.9.6-3.5 1.4-2.2 2.6-9.1 5.6-12.9 5.6-2 0-4.6.7-5.6 1.5-1.1.8-3.1 1.5-4.5 1.5-3.4.1-6.3 1.8-9.5 5.7-2.5 2.9-5.8 4.9-15.6 9.1-1.9.8-4.3 1.9-5.2 2.3-1 .5-3.6.9-5.8.9-3.8 0-16.3 5-17.5 7.1-.4.5-1.4.9-2.4.9s-2.6.9-3.6 2-2.8 2-4 2c-1.2 0-2.9.8-3.8 1.7-.8 1-3.7 4.1-6.2 7-2.6 2.9-5.7 5.5-6.9 5.9-1.1.3-4.4 1.7-7.3 3-2.8 1.3-5.8 2.4-6.7 2.4-.8 0-2.7 1.3-4.3 3-1.6 1.7-3.8 3-5.3 3-1.8.1-3.2 1.2-5.3 4.4-2.7 4.4-6.8 7.2-13.9 9.5-2.5.8-3.8 1.9-3.8 3 0 2.2-1.9 4.1-4.1 4.1-.9 0-3.6 1.6-5.9 3.5-2.6 2.2-5.2 3.5-7 3.5-2.6 0-2.9.4-3.2 3.7-.3 3.5-1 4.3-9.8 10.5-5.2 3.8-10.6 7.9-12 9.1-6.4 5.9-14 10.7-16.9 10.7-1 0-2.5.7-3.2 1.6-.7.9-2.2 1.9-3.3 2.3-1 .4-2.9 2.5-4 4.6-1.3 2.3-3.3 4.2-5 4.8-2.8.9-5.3 2.6-8.5 5.8-.9.9-4 2.8-6.8 4.3-3.6 1.8-5.3 3.2-5.3 4.5 0 2.2-4.6 8.1-6.4 8.1-.6 0-1.6 1-2.1 2.2-.6 1.3-2.1 2.4-3.5 2.6-1.4.2-3.2 1-4 1.7-.8.7-2.6 1.5-4 1.7-2 .2-2.6 1-3 3.8-.6 3.8-5.5 8-9.5 8-1.6 0-2.9 1.2-4.7 4.7-1.7 3.5-3.1 4.9-4.9 5.1-2.8.4-5.9 2.9-5.9 4.7 0 .7-1.9 3.5-4.2 6.2-2.4 2.6-4.8 5.7-5.4 6.7-.6 1.1-1.7 2.3-2.5 2.7-.8.4-2.7 1.3-4.2 2s-4.2 2.8-6 4.6c-1.8 1.8-4 3.3-4.9 3.3-.9 0-3.6 2-6 4.5-2.4 2.4-5 4.5-5.9 4.5-1.7 0-4.9 3-4.9 4.7 0 1.4-13.1 13.3-14.7 13.3-.7 0-1.3.4-1.3.8s-2.3 3.2-5.1 6.2c-11 11.8-14.9 16.5-14.9 17.7 0 1.8-7.9 13-10.9 15.6-4.1 3.4-7.1 7.8-7.1 10.1 0 1.3-3.2 5.3-8 10.3-4.5 4.6-7.7 8.3-7.3 8.3.4 0 .1.6-.8 1.3-.8.7-1.8 2-2.2 3-.4.9-1.7 2.1-2.9 2.6-2.1.8-6 4.9-13.2 13.7-1.4 1.8-2.6 4.5-2.6 6 0 1.9-1.5 4.7-4 7.9-2.2 2.7-4 5.6-4 6.3 0 1.4-11.2 16.6-13.1 17.8-.6.3-1.9 2.5-2.9 4.8s-3.4 6-5.4 8.2c-4.2 4.5-11.6 19-11.6 22.7 0 1.3-.8 3.5-1.9 4.8-1 1.3-3.1 5.1-4.6 8.3-1.5 3.3-4.3 7.6-6.1 9.6-1.9 2.1-4.3 5.7-5.4 8.2-1.1 2.4-3.3 6.2-5 8.3-1.6 2.1-3 4.5-3 5.4 0 1-.8 2.6-1.8 3.7-.9 1-2.3 3-2.9 4.4-.7 1.4-2.6 4.7-4.2 7.5-1.7 2.7-3 6.5-3.1 8.2 0 1.8-.4 3.3-.8 3.3s-.8 1-.9 2.1c-.2 2.6-6.8 16.7-9.1 19.4-3.2 3.8-4.2 6.5-4.2 11.4 0 2.6-.7 6.8-1.5 9.2-.9 2.4-1.8 6.1-2.1 8.3-.2 2.1-.9 4.6-1.4 5.6-.6 1-1 2.7-1 3.7s-.7 3.1-1.5 4.7c-.8 1.5-1.5 3.6-1.5 4.6 0 1-.7 2.3-1.5 3-.8.7-1.5 2.5-1.5 4.1 0 1.6-.5 2.9-1.2 2.9-.6 0-.8.3-.5.6.3.4.1 1.6-.5 2.8-.7 1.1-1.2 2.4-1.3 2.8 0 .4-.6 1.3-1.2 1.9-.7.7-1.3 3.1-1.3 5.4 0 2.3-.4 4.5-.9 5-1.1 1.3-3 6.8-4.7 13.5-1.5 6.3-4.1 16.1-5.5 20.6-.5 1.7-.9 4.7-.9 6.7s-.4 3.9-1 4.2c-.5.3-1 2.3-1 4.3 0 2.1-.6 4.6-1.4 5.7-.7 1.1-1.5 2.4-1.6 3-.1.5-.6 1.9-1 3.1-.5 1.1-1.5 14.3-2.3 29.3-.9 16.6-1.9 27.7-2.6 28.4-1.3 1.3-1.5 27.9-.2 29.2 1.8 1.9 3.8 57.9 2.1 59-.5.3-1 3.5-1 7.1 0 4.9-.5 7.1-2 9.2-1.3 1.7-2.4 5.5-3 10.5-.5 4.3-1.2 8.2-1.4 8.6-.8 1.2-1.8 18.1-2 31.6 0 6.6-.5 12.6-.9 13.3-.5.7-.9 18.5-.9 39.5 0 21.6-.4 39.2-1 40.6-.7 1.9-.6 2.8.5 3.6 1 .7 1.3 2.5 1.1 5.7-.2 2.6.1 5 .6 5.3 1.3.8 1.3 11.2 0 12-.5.3-1 4.2-1 8.6 0 4.4-.5 9-1.2 10.2-1.3 2.6-1.4 3.2-.3 19.5.4 7.7.4 12.7-.3 13.5-.5.7-1 10.3-1 23.1 0 17.1-.3 22.1-1.4 22.7-.7.5-.9.9-.5.9 1.3 0-4.4 7-5.7 7-1.7 0-13.9 12.4-18.1 18.4-1.9 2.7-3.7 6.4-4.1 8.2-.3 1.8-1.2 3.8-2 4.5-.8.6-1.4 3-1.5 5.3 0 2.2-.3 5.9-.7 8-.6 3.3-.1 5.1 2.8 11 1.9 3.9 4.4 8.5 5.6 10.1 1.2 1.7 2.3 3.5 2.5 4.2.2.6 2.1 3.1 4.1 5.5 2.1 2.4 4.9 5.9 6.2 7.8 1.4 1.9 3.2 4.4 4 5.5.8 1.1 1.7 3.3 2 5 2.2 11.4 2.6 14.9 2.4 22-.1 4.4.2 11.6.6 16 .5 4.4 1 14.5 1.1 22.5.2 8 .6 16.1.9 18 1.7 9.5 4.4 34.9 5 47 .3 5.2 1 12.6 1.6 16.5.6 3.8 1.2 8.4 1.4 10.2.2 1.7.7 3.6 1 4.1 1.1 1.7 2.6 16.9 3 29.2.3 11.1 1.6 23.6 3.6 34.2.6 2.8 1 7.2 1 9.8 0 2.9.6 5.2 1.5 6 .7.6 1.7 3.3 2 5.8.4 2.6 1.1 6.5 1.7 8.7.6 2.2 1.1 5.8 1.3 8 .1 2.2.9 5.6 1.7 7.5 2.2 4.9 4 16.1 5.3 32.7.1 2.4 1.5 6.3 2.9 8.7 1.8 3.1 2.6 5.9 2.6 9.3.1 6.2 2.4 16 4.4 18.2 1.1 1.2 1.6 3.7 1.6 7.3 0 3.7.5 6 1.5 6.8.9.8 1.5 2.9 1.5 5.6 0 2.3.4 4.5.9 4.8.4.3 1.1 2.8 1.3 5.6.4 3.7 1.1 5.5 2.7 6.6 1.5 1.1 2.1 2.6 2.1 5.2 0 2 .7 5 1.5 6.6.8 1.5 1.5 5.2 1.5 8.2 0 2.9.5 5.6 1 5.9.6.3 1 3.3 1 6.6 0 4 .6 7.1 2 9.6 1.1 2.1 2 5 2 6.5 0 1.4.5 2.8 1.2 3 .6.2 1.3 3.1 1.6 6.6.2 3.5 1 6.6 1.8 7.3.8.6 1.4 2.9 1.4 5 0 2.4 1.1 5.6 3 8.9 1.6 2.8 3 6.4 3 8 0 1.6.5 3.2 1 3.5.6.3 1 2.2 1 4.1 0 1.9.4 3.4.8 3.4.9 0 .7 7.6-.2 11.5-.2 1.1-.5 2.5-.5 3.2-.2 2.3-9 7.3-13.1 7.3-2.1 0-4.5.6-5.2 1.3-.7.8-2.8 1.4-4.7 1.5-1.8 0-4.1.8-5 1.6-1 .9-2 1.4-2.3 1-.3-.3-2.3.4-4.4 1.5-2.1 1.2-4.5 2.1-5.3 2.1-.8 0-2.4.8-3.5 1.8-2.7 2.3-13 6.5-17.9 7.2-2.1.3-3.8.9-3.9 1.5-.2 1.6-3.1 3.4-5.6 3.5-1.3 0-4.2 1.6-6.5 3.6s-5.8 4.2-7.7 4.8c-2 .6-4 2.2-4.7 3.6-.7 1.4-2.4 3.6-3.9 5-7.9 7.4-11.4 11.7-11.9 14.4-.4 1.7-1.1 4.4-1.7 6.1-1.3 3.4-9.3 11.5-11.5 11.5-.7 0-2.1.4-3.1.8-11.2 5.4-12.5 7-14.3 18.7-.9 5.8-1.8 8.5-3.3 9.9-1.2 1-2.1 2.2-2.1 2.6 0 .5-1.2 1.9-2.7 3.2-2.5 2.1-2.6 2.6-1.8 6.3.5 2.2.8 8.4.6 13.8-.2 7.2.1 10 1.1 10.8 1.8 1.5 1.7 9.3-.1 10.8-1.4 1.2-2.6 4.9-3.2 9.8-.1 1.2-.5 2.7-.9 3.3-.4.6-.7 6.8-.6 13.8 0 7-.3 13.2-.7 13.8-1.4 2.1-9.4 5.4-12.9 5.4-2.2 0-4.8.9-6.7 2.3-2.1 1.6-4.8 2.4-8.1 2.6-2.7.2-5.4.6-6 1.1-.9.7-3.6 1.3-9.7 2.3-1 .2-2.6 1.1-3.6 2-1 .9-3.1 1.7-4.5 1.7-1.5 0-2.7.4-2.7.8s-2.7 1.4-6.1 2.1c-4.3 1-6.9 2.2-8.7 4.2-1.5 1.6-4 3.1-5.7 3.3-7.8 1.1-12.8 2.5-14.8 4.3-4.9 4.1-8.8 6.3-11.5 6.3-1.5 0-3.3.5-3.9 1.1-.6.6-3.7 1.3-6.9 1.5-4.3.3-6.1.9-7.1 2.4-.7 1-2.9 2.2-4.8 2.6-2 .3-3.9 1.2-4.3 1.8-.4.7-2.9 2.7-5.6 4.4-4.6 3.2-5.1 3.3-14.2 3.1-8.2-.2-9.6 0-11.1 1.8-1.6 1.7-9.9 6.3-11.5 6.3-1.3 0-13.7 11.7-18.3 17.4-2.7 3.3-4.9 4.3-9.8 4.5-1 .1-2 .9-2.4 1.9-.7 2.2-6.2 7.2-7.8 7.2-.7 0-1.8.7-2.5 1.5s-2.1 1.5-3.1 1.5-3.4 2-5.5 4.5c-2 2.5-4.1 4.5-4.6 4.5-.6 0-1.9 1.1-3 2.5s-2.5 2.5-3.2 2.5c-.7 0-2.3 1.2-3.7 2.6-1.3 1.4-3.7 3.2-5.4 3.9-4.2 1.9-6.7 4.4-9 8.9-2.4 4.7-13.6 16.6-15.6 16.6-1.6.1-5.2 4.6-4.6 5.8.8 1.3-2.9 6.7-4.9 7.1-2.8.5-4.8 2.5-7.2 7.5-2.4 4.7-9.3 11.6-11.6 11.6-.8 0-2.4 1.2-3.6 2.7-1.2 1.6-2.6 2.8-3.1 2.8s-4.6 3.9-9.1 8.6c-8 8.4-8.4 8.7-12.8 8.6-2.5 0-5.4-.6-6.5-1.3-1.1-.8-2.2-1.4-2.5-1.4-.3 0-.4 2.6-.2 5.8.4 6.8-.8 8.7-8.2 12.6-2.7 1.4-5.5 3.1-6.2 3.7-.7.6-1.9 1.2-2.6 1.3-4.5.9-7.3 2.1-9.4 4.1-1.8 1.7-4.2 2.4-9.4 2.9l-7 .7V2574h2574v-215h-3.3c-3.6 0-5.7-1.5-5.7-4.1 0-1.1-1.1-2-3-2.4-3.4-.8-17-13.6-17-16 0-.9-2-3.8-4.5-6.4-3.1-3.3-4.8-6.1-5.2-8.6-.4-2.5-1.3-3.9-2.7-4.5-1.2-.4-4.8-3.3-8.1-6.5-3.3-3.1-8.6-7.9-11.7-10.7-3.1-2.7-6-5.9-6.4-7.1-1.1-3.6-4.7-7.7-6.6-7.7-1.1 0-2.7-1.3-3.6-3-.9-1.6-2.4-3-3.2-3-.9 0-3.2-1.1-5.2-2.5s-4.3-2.5-5.1-2.5c-1.5 0-4.7-3.1-4.7-4.6 0-1.4-7-8.4-8.5-8.4-.7 0-1.8-.7-2.5-1.5s-2.3-1.5-3.6-1.5c-1.4 0-3.1-1.2-4.6-3.2-1.2-1.8-3.1-4.1-4-5-1-1-1.8-2.4-1.8-3.2 0-1-2.1-1.6-7.5-2.1-8.5-.8-13.2-2.7-14.5-5.9-.4-1.2-2-3-3.4-4.1-1.4-1.1-2.6-2.8-2.6-3.8 0-2.1-2.7-7.7-3.8-7.8-7.9-.7-8.9-1.2-13.4-5.7-2.7-2.5-4.8-5.1-4.8-5.7 0-1.3-3.4-4.3-7.6-6.6-1.6-1-3.3-2.6-3.8-3.6-.9-1.9-2-2.7-8.1-5.7-5.9-2.8-11-10.2-12.1-17.1-.5-3.8-1.5-5.6-4-7.9-1.9-1.6-3.4-3.9-3.4-4.9 0-1.1-1.8-3.8-4-5.9-2.2-2.2-3.8-4.4-3.4-4.9.3-.5.2-.9-.3-.9-.4 0-1.8-1.5-3-3.3-1.8-2.6-2.3-4.7-2.3-10.1 0-5.9.4-7.3 3-11.1 1.7-2.4 3-4.8 3-5.4 0-1.3-5.2 3.8-6.5 6.4-.9 1.7-2.2 2-10 2.3-8.4.3-9 .1-11.2-2.2-1.3-1.4-2.3-3.2-2.3-4.1 0-.8-.6-1.5-1.4-1.5-.8 0-2.6-1.5-4-3.3-1.5-1.7-3.1-3.7-3.6-4.4-.6-.7-1-1.6-1-2 0-.4-2.3-3.3-5-6.2-2.8-3-5-5.8-5-6.2 0-.4-2.6-2.4-5.7-4.5-3.2-2.1-7.4-5-9.3-6.6-2.6-2.1-4.5-2.8-7.7-2.8-3.3 0-5.1-.7-7.4-2.8-3.7-3.2-5.9-7.2-5.9-10.6 0-3.8-1.6-4-7.2-1.1-4.7 2.4-6.1 2.7-15.4 2.6-10.6-.1-13.7-1-20-5.8-1.7-1.3-4-2.3-5-2.3-1.1 0-4.6-1.3-7.9-2.9-3.2-1.6-6.4-2.7-7.1-2.4-.7.2-3-.7-5.1-2-2.2-1.4-6.5-3-9.6-3.7-3.1-.6-5.7-1.6-5.7-2.1 0-.6-.4-.8-.9-.5-.5.4-1.1.1-1.3-.6-.3-.7-4.1-1.4-9.9-1.9-5.2-.3-12.5-1.1-16.4-1.7-3.8-.6-11-1.6-16-2.2-13.9-1.6-18.3-2.5-20.3-4.3-1-.9-3.4-2-5.3-2.3-1.9-.4-4.2-1.3-5.3-2-1-.7-2.5-1-3.3-.7-.7.3-2.3-.3-3.3-1.2-4-3.6-9.9-6.4-16-7.6-2.4-.5-5.6-1.9-7-3.2-3.9-3.5-6.7-4.7-10.5-4.7-3.6 0-6.4-1.2-10-4.1-1.1-.9-3.1-2-4.5-2.4-1.4-.3-4.7-1.7-7.5-3-4.7-2.2-8.3-3.6-9.5-3.7-.3 0-1.4-.5-2.5-1.1-1.1-.6-2.7-1.2-3.5-1.4-7.2-1.4-15.9-2.3-23.1-2.3-4.8 0-9-.5-9.6-1.1-1.1-1.1-14.2-1.3-28.8-.4-5.3.4-7.8.1-10.5-1.3l-3.5-1.7v-8.2c.1-5.9.5-8.7 1.6-10 .9-1 2.2-3.4 2.9-5.3.7-1.9 2.3-4.6 3.6-6 1.2-1.4 2.9-4.1 3.8-6 .9-1.9 2-4.2 2.4-5 1.2-2 3.3-7.9 3.9-11 .7-3.4 3.1-8.8 4.3-9.5 1.6-1 6-10.2 6-12.4 0-1 1.6-3.8 3.5-6.1s3.5-4.6 3.5-5.1c0-.6.8-2.9 1.9-5.2 2.1-4.8 3.3-7.8 3.7-9.2.1-.6 1.9-5.2 3.8-10.4 2-5.1 3.6-10.2 3.6-11.2 0-1.1.5-1.9 1.2-1.9.6 0 .9-.3.5-.6-.3-.3.5-2.5 1.7-4.8 1.3-2.5 2.3-6.3 2.5-9.6.1-3.1 1-6.9 2-8.5 1.4-2.5 3.1-6.9 3.5-9.5.2-1.1 2.8-9.6 3.8-12.5.5-1.7 1.2-5 1.5-7.5.3-2.4.9-5.3 1.5-6.3.5-1.1 1.4-4.8 1.9-8.3 1.4-10.1 9.8-21.4 15.8-21.4 2.4 0 15.9-5.6 17.1-7.1.3-.3 1.6-1.2 3-1.9 8.2-4.4 30-26.6 30-30.7 0-1.3 3.2-7.5 7.1-13.8 1.4-2.2 2.6-5.3 2.7-7 .2-3 6-15.5 7.2-15.5.4 0 .7-.6.7-1.3.4-6.8 2-13.8 4-16.9 1.2-2.1 2.3-4.7 2.3-5.8 0-1.1.4-2 .9-2 .4 0 1.1-2.1 1.5-4.6.3-2.5 1.2-5.8 2-7.2 2-3.7 3.6-9 3.6-12 0-2.9 1.6-8.5 3.6-12.4.8-1.4 1.4-3.3 1.4-4.1 0-.9.5-1.7 1.1-1.9 1.5-.5 3.9-7.5 3.9-11.3 0-1.7.7-4.1 1.5-5.5.8-1.4 1.7-3.2 2.1-4 3.2-7.7 4.4-11.2 4.4-13.1 0-1.2.6-3 1.4-3.8.9-1.1 1.6-5.6 2-14.1.3-6.9.9-18.1 1.2-25 .7-12-.4-28.4-2.8-46.5-1.3-9.2-1.7-38.5-.5-38.5.4 0 .7-2.3.7-5 0-3.4.8-6.6 2.4-9.8 1.4-2.6 2.8-7 3.1-9.7.9-7.5 2.7-14.8 4.2-17 .7-1.1 1.3-2.7 1.3-3.5 0-.9 1-2.7 2.3-4 1.2-1.4 2.1-2.6 1.9-2.8-.5-.5 4.1-8.2 5-8.2.4 0 .8-1.1.8-2.5s.3-2.5.8-2.5c.4 0 1.7-2.1 2.9-4.8 1.2-2.6 4-6.7 6.3-9.1 2.2-2.4 4-4.9 4-5.6 0-.7 1.5-2.6 3.3-4.2 1.7-1.5 4.1-4.8 5.1-7.1 1.1-2.4 2.8-4.9 3.7-5.6 1-.6 1.9-1.8 2.1-2.6.2-.8 1.5-2.7 3.1-4.3 1.5-1.5 2.7-3.3 2.7-4.1 0-.8 1.1-3.4 2.5-5.7 1.4-2.4 2.5-5.1 2.5-5.9 0-.9 1.8-3.4 4-5.5s4-4.6 4-5.5c0-.9 1.1-2.6 2.4-3.9 1.2-1.2 2.8-3.9 3.4-6 .7-2.1 2.1-4.6 3.2-5.6s2-2.5 2-3.3c0-.9.9-3.4 1.9-5.6 3.7-8.1 5-13.2 5.4-21.6.3-4.7 1.2-13.9 2-20.5.9-6.6 2.1-17.6 2.6-24.5.6-6.9 1.3-15.2 1.7-18.5.4-3.3.6-14.1.4-24-.1-9.9-.3-21.8-.4-26.5 0-4.7-.5-9.2-1.1-10-.5-.8-1-2-1.1-2.6-.5-2.9-5.7-10.3-10-13.9-2.5-2.2-5-5-5.5-6.3-.5-1.2-1.5-2.2-2.3-2.2-.7 0-1.6-.6-1.9-1.4-.3-.8-2-1.7-3.8-2.1-1.8-.4-3.9-1.4-4.7-2.1-.7-.8-1.8-1.2-2.3-.9-.5.4-.9.1-.9-.4 0-.6-2-1.6-4.5-2.2-2.5-.6-4.8-1.5-5.1-2-.7-1.2-25.6-1.2-28.6 0-1.3.5-4.1 1.4-6.3 2-2.2.7-6 2.2-8.5 3.3-2.5 1.1-5.6 2.5-7 3.1-1.4.7-4.5 2.8-7 4.8-6.8 5.5-11.6 7.9-16.1 7.9-8.1 0-9.7-2.3-11.4-16.5-.7-5.5-1.6-11.1-2-12.5-.3-1.4-.9-4.4-1.2-6.8-.3-2.3-1-4.5-1.4-4.8-.5-.3-.9-6.5-.9-13.7 0-12.8-.1-13.3-2.2-14.2-1.9-.8-2.4-2.1-3-7.5-1.2-11.1-2.7-36.7-3.4-55.5-.5-12.8-1-18.4-2-19.5-1.6-1.9-3.4-15.1-4.3-32-.3-6.9-1.2-13.5-1.9-14.7-1.5-2.6-1.7-25.5-.2-28.2.6-1.3.5-2.4-.5-3.7-1-1.3-1.4-4.6-1.5-10.1 0-4.5-.4-8.5-1-8.8-1.2-.8-1.3-10.7-.1-12 .4-.6.5-4.8.1-9.5-.5-4.7-1.1-17.8-1.5-29.2-.6-18.1-.5-21 .9-23 1.9-2.7 2.1-10.9.4-12.7-1-.9-1.2-7-1-24.9.2-19.9.6-24.3 2-27.2 1.5-3 1.7-7.7 2-34.3.3-28.8.2-31-1.5-32.9-1.9-2.1-2.3-6-4.1-38.5-.6-12.1-1.1-15.6-2.5-17.1-.9-1-1.7-3.2-1.7-4.8 0-1.6-.5-4.7-1.1-6.9-1-4.2-1.8-8.3-4.4-22.9-1.1-5.9-2.4-9.9-3.9-12-1.7-2.2-2.7-5.4-3.4-11.1-1.4-10.5-2.7-16.3-4.7-20.2-.9-1.7-2.3-6.9-3.1-11.5-.8-4.6-1.9-9.2-2.4-10.3-.5-1.1-1.2-3.6-1.5-5.5-.8-4.3-3.4-13-4.6-15-.5-.8-1.4-2.6-2-4-.5-1.4-1.8-4.1-2.8-6-1.7-3.4-3.5-12.7-4.5-23.9-.4-4.2-1.2-6.2-3.4-8.5-3.8-4.1-7.2-10.2-7.2-12.9 0-1.2-1.4-4-3-6.1-1.7-2.2-3-5-3-6.2 0-1.3-.4-2.5-.9-2.8-.5-.4-1.2-2.4-1.6-4.5-.4-2.2-1.3-4.5-2.1-5.2-.8-.6-1.4-2-1.4-3s-.4-2.1-1-2.4c-.5-.3-1-2.5-1-4.9 0-2.3-.5-4.7-1-5.2-.6-.6-1.9-2.6-2.9-4.5s-2.9-3.6-4.2-3.9c-2.7-.7-6.8-6.1-7.6-10.2-.3-1.5-1.6-3.7-2.9-4.9-1.3-1.2-2.4-2.8-2.4-3.5 0-1.7-4.3-8.3-5.4-8.4-1.3 0-7.6-5-7.6-5.9 0-.5-2.8-3.5-6.1-6.7-14.7-14.1-22.9-23.2-22.9-25.6 0-1.9-7-9.8-8.7-9.8-1.4 0-4.8-4-6.8-8-1-1.9-3.1-5.1-4.6-7.1-1.6-2-2.9-4.4-2.9-5.3 0-.8-1.6-3-3.5-4.7-1.9-1.8-3.5-3.7-3.5-4.4 0-1.8-8.3-9.4-13-11.7-3.6-1.8-4.8-3.1-5.8-6.3-.7-2.2-2-4.4-2.8-4.8-2.4-1.4-9.4-8-9.4-9 0-2.1-12.5-15.7-14.4-15.7-1.2-.1-22.1-19.9-22.7-21.5-.9-2.4-10.4-9.5-12.6-9.5-1.6 0-2.9-1-4.1-3-.9-1.6-2.3-3-2.9-3-.7 0-1.8-.9-2.5-2s-2-2-3-2c-1.4 0-5.8-4.8-5.8-6.4 0-1.5-5.4-5.6-7.3-5.6-1.4 0-3.9-1.9-6.7-5-10.4-11.7-12.1-13-17.3-13-5.4 0-9.4-2.1-10.8-5.7-.7-1.9-1.6-2.3-5.2-2.3-3.5 0-4.9-.6-7.2-3-1.6-1.7-3.4-3-4.1-3-.6 0-1.7-.7-2.4-1.5s-2-1.5-2.9-1.5c-.9 0-2.8-1.3-4.4-2.9-3.6-3.9-10-6.8-16.7-7.7-4.5-.6-6.1-1.3-9-4.3-4.6-4.7-7-6.5-11.2-8.5-1.8-.9-5.3-3.4-7.8-5.7-8.3-7.4-12.6-9.9-16.9-9.9-2.2 0-4.3-.5-4.6-1-.3-.6-2.4-1-4.5-1s-4.2-.5-4.5-1c-.3-.6-3.1-1-6.1-1-3 0-6.4-.6-7.7-1.3-3.6-2-6.7-4.9-6.7-6.4 0-.9-1.4-1.3-4.1-1.3-4.3 0-11.8-2.9-13.9-5.5-.7-.8-2.3-1.5-3.6-1.5-1.2 0-2.6-.5-2.9-1-.3-.6-2.6-1-5-1s-4.7-.5-5-1c-.3-.6-1.7-1-3-1s-2.7-.5-3-1c-.3-.6-1.4-1-2.4-1-2.5 0-8.1-3-8.8-4.6-.3-.9-2-1.4-4.3-1.4-2.2 0-4.2-.5-4.5-1-.3-.6-1.6-1-2.8-1.1-4.3-.1-8.2-3.3-8.5-7-.2-1.8-.9-3.7-1.5-4.1-.7-.4-6.5-.8-12.9-.8-6.7 0-11.9-.4-12.3-1-.3-.6-2.1-1-4-1s-3.7-.5-4-1c-.3-.6-1.9-1-3.5-1s-3.2-.5-3.5-1c-.3-.6-2.1-1-3.8-1-3.2 0-10.1-2-11.3-3.3-.4-.4-1.7-.7-2.8-.7-1.2 0-4.5-1.4-7.4-3-3.7-2-8-3.3-13.5-4-4.5-.7-9-1.6-9.9-2.1-1-.5-2.9-.9-4.2-.9-1.4 0-3.5-.4-4.8-.9-4.9-2-6.6-2.2-17.3-2.7-6-.2-15.5-1.1-21-2-5.5-.8-12.2-1.8-15-2.1-2.7-.3-6-1.3-7.4-2.1-1.8-1.2-5-1.7-12-1.8-20-.2-31.5-.7-34.5-1.4-6-1.6-17-1.7-19.6-.3z"/><path d="M2363.6 2108.7c-.6 1.4-.5 1.5.5.6.7-.7 1-1.5.7-1.8-.3-.3-.9.2-1.2 1.2z"/></svg>